<svg width="40" height="40" viewBox="0 0 40 40" fill="none" xmlns="http://www.w3.org/2000/svg">
<rect x="0.5" y="6.21484" width="39" height="27.5714" rx="3.5" fill="white" stroke="#F5F5F5"/>
<mask id="mask0_101_3315" style="mask-type:luminance" maskUnits="userSpaceOnUse" x="0" y="5" width="40" height="30">
<rect x="0.5" y="6.21484" width="39" height="27.5714" rx="3.5" fill="white" stroke="white"/>
</mask>
<g mask="url(#mask0_101_3315)">
<path fill-rule="evenodd" clip-rule="evenodd" d="M0 34.2855H40V24.7617H0V34.2855Z" fill="#199E56"/>
<path fill-rule="evenodd" clip-rule="evenodd" d="M0 15.2387H40V5.71484H0V15.2387Z" fill="#262626"/>
<path fill-rule="evenodd" clip-rule="evenodd" d="M0 5.71484L19.0476 20.0006L0 34.2863V5.71484Z" fill="#E6223A"/>
<path fill-rule="evenodd" clip-rule="evenodd" d="M6.66671 21.4302L5.42705 22.5759L5.54981 20.8924L3.8812 20.6374L5.27396 19.6838L4.43291 18.2203L6.04688 18.7146L6.66671 17.1445L7.28655 18.7146L8.90052 18.2203L8.05947 19.6838L9.45222 20.6374L7.78362 20.8924L7.90638 22.5759L6.66671 21.4302Z" fill="white"/>
</g>
</svg>
