<svg width="40" height="40" viewBox="0 0 40 40" fill="none" xmlns="http://www.w3.org/2000/svg">
<rect y="5.71484" width="40" height="28.5714" rx="4" fill="white"/>
<mask id="mask0_101_4489" style="mask-type:luminance" maskUnits="userSpaceOnUse" x="0" y="5" width="40" height="30">
<rect y="5.71484" width="40" height="28.5714" rx="4" fill="white"/>
</mask>
<g mask="url(#mask0_101_4489)">
<path d="M-7.85742 5.71484H49.2854V34.2863H-7.85742V5.71484Z" fill="#00247D"/>
<path d="M-7.85742 20.0006H20.714V5.71484H49.2854V34.2863H-7.85742V20.0006Z" fill="#0096C8"/>
<path d="M22.8735 29.0898L24.2753 33.404L20.6055 30.7377H25.1416L21.4718 33.404L22.8735 29.0898Z" fill="#FFCE00"/>
<path d="M31.0693 27.8086L29.6675 32.1227L28.2658 27.8086L31.9356 30.4749L27.3994 30.4749L31.0693 27.8086Z" fill="#FFCE00"/>
<path d="M31.0693 22L29.6675 26.3141L28.2658 22L31.9356 24.6663L27.3994 24.6663L31.0693 22Z" fill="#FFCE00"/>
<path d="M37.0703 26.3398L35.6685 30.654L34.2667 26.3398L37.9366 29.0061L33.4004 29.0062L37.0703 26.3398Z" fill="#FFCE00"/>
<path d="M37.0703 13.7031L35.6685 18.0173L34.2667 13.7031L37.9366 16.3694L33.4004 16.3694L37.0703 13.7031Z" fill="#FFCE00"/>
<path d="M39.5923 21.9023L40.9941 26.2165L37.3242 23.5502H41.8604L38.1905 26.2165L39.5923 21.9023Z" fill="#FFCE00"/>
<path d="M42.1122 11.9805L40.7105 16.2946L39.3087 11.9805L42.9786 14.6468L38.4424 14.6468L42.1122 11.9805Z" fill="#FFCE00"/>
</g>
</svg>
