<svg width="40" height="40" viewBox="0 0 40 40" fill="none" xmlns="http://www.w3.org/2000/svg">
<rect y="5.71484" width="40" height="28.5714" rx="4" fill="white"/>
<mask id="mask0_101_3810" style="mask-type:luminance" maskUnits="userSpaceOnUse" x="0" y="5" width="40" height="30">
<rect y="5.71484" width="40" height="28.5714" rx="4" fill="white"/>
</mask>
<g mask="url(#mask0_101_3810)">
<rect y="5.71484" width="40" height="28.5714" fill="#262626"/>
<path fill-rule="evenodd" clip-rule="evenodd" d="M0 5.71484H40V34.2863L0 5.71484Z" fill="#E8283F"/>
<path fill-rule="evenodd" clip-rule="evenodd" d="M9.5239 29.5251L8.17703 29.9196L8.57152 28.5727L8.17703 27.2259L9.5239 27.6203L10.8708 27.2259L10.4763 28.5727L10.8708 29.9196L9.5239 29.5251Z" fill="white"/>
<path fill-rule="evenodd" clip-rule="evenodd" d="M9.5239 18.0954L8.17703 18.4899L8.57152 17.143L8.17703 15.7962L9.5239 16.1907L10.8708 15.7962L10.4763 17.143L10.8708 18.4899L9.5239 18.0954Z" fill="white"/>
<path fill-rule="evenodd" clip-rule="evenodd" d="M4.76218 22.8571L3.41531 23.2516L3.8098 21.9048L3.41531 20.5579L4.76218 20.9524L6.10905 20.5579L5.71457 21.9048L6.10905 23.2516L4.76218 22.8571Z" fill="white"/>
<path fill-rule="evenodd" clip-rule="evenodd" d="M13.3335 21.904L11.9866 22.2985L12.3811 20.9516L11.9866 19.6048L13.3335 19.9993L14.6803 19.6048L14.2859 20.9516L14.6803 22.2985L13.3335 21.904Z" fill="white"/>
<path fill-rule="evenodd" clip-rule="evenodd" d="M26.9442 18.9504C26.7162 18.8136 26.5313 18.4913 26.5313 18.2335L26.5313 16.4782C26.5313 16.219 26.3449 16.0711 26.0627 16.1652L24.9796 16.5262C24.7208 16.6125 24.3246 16.6203 24.0424 16.5262L22.9593 16.1652C22.7005 16.0789 22.6717 15.9004 22.9036 15.7612L25.445 14.2364C25.673 14.0996 25.7957 13.8022 25.7017 13.5201L25.3406 12.4369C25.2544 12.1782 25.3709 12.0305 25.653 12.1246L26.7362 12.4856C26.995 12.5719 27.3134 12.4608 27.4525 12.2289L28.9773 9.6875C29.1142 9.45948 29.2872 9.46107 29.3813 9.7432L29.7423 10.8264C29.8286 11.0851 29.8364 11.4814 29.7423 11.7635L29.3813 12.8467C29.295 13.1054 29.4364 13.3152 29.6943 13.3152H31.4496C31.7087 13.3152 32.0274 13.4963 32.1665 13.7281L33.6914 16.2695C33.8282 16.4976 33.7182 16.7266 33.4709 16.776L31.0401 17.2622C30.7816 17.3139 30.5277 17.5768 30.4783 17.824L29.9921 20.2548C29.9404 20.5134 29.7175 20.6144 29.4856 20.4753L26.9442 18.9504V18.9504Z" fill="#FFD84E"/>
</g>
</svg>
