<svg width="40" height="40" viewBox="0 0 40 40" fill="none" xmlns="http://www.w3.org/2000/svg">
<rect y="5.71484" width="40" height="28.5714" rx="4" fill="white"/>
<mask id="mask0_101_3553" style="mask-type:luminance" maskUnits="userSpaceOnUse" x="0" y="5" width="40" height="30">
<rect y="5.71484" width="40" height="28.5714" rx="4" fill="white"/>
</mask>
<g mask="url(#mask0_101_3553)">
<rect x="-1.42871" y="5.71484" width="54.2857" height="28.5714" fill="#003893"/>
<path d="M-1.42871 33.8278V33.1421L52.857 9.04688V17.3707L-1.42871 33.8278Z" fill="white"/>
<path d="M-1.42871 33.3719V32.9147L52.857 6.17188V11.7719L-1.42871 33.3719Z" fill="#DD7500"/>
<path d="M9.00308 7.28906L9.53547 16.1462H8.4707L9.00308 7.28906Z" fill="white"/>
<path d="M10.6444 10.0198L9.63076 16.3136L8.37524 15.9772L10.6444 10.0198Z" fill="white"/>
<path d="M12.1742 10.6531L9.56614 16.4701L8.44047 15.8202L12.1742 10.6531Z" fill="white"/>
<path d="M13.4879 11.6627L9.46315 16.6064L8.54405 15.6873L13.4879 11.6627Z" fill="white"/>
<path d="M14.4959 12.973L9.32872 16.7066L8.67881 15.581L14.4959 12.973Z" fill="white"/>
<path d="M15.1291 14.5067L9.17173 16.7758L8.83531 15.5202L15.1291 14.5067Z" fill="white"/>
<path d="M17.8604 16.1457L9.00321 16.678V15.6133L17.8604 16.1457Z" fill="white"/>
<path d="M15.1287 17.7879L8.83483 16.7743L9.17125 15.5188L15.1287 17.7879Z" fill="white"/>
<path d="M14.4954 19.3167L8.67832 16.7088L9.32823 15.5831L14.4954 19.3167Z" fill="white"/>
<path d="M13.4877 20.6314L8.54389 16.6067L9.463 15.6876L13.4877 20.6314Z" fill="white"/>
<path d="M12.1745 21.6374L8.44078 16.4703L9.56645 15.8204L12.1745 21.6374Z" fill="white"/>
<path d="M10.6447 22.2737L8.37558 16.3163L9.6311 15.9799L10.6447 22.2737Z" fill="white"/>
<path d="M9.00375 25.0039L8.47137 16.1468H9.53613L9.00375 25.0039Z" fill="white"/>
<path d="M7.36247 22.2732L8.37607 15.9794L9.63159 16.3158L7.36247 22.2732Z" fill="white"/>
<path d="M5.83267 21.6399L8.4407 15.8229L9.56637 16.4728L5.83267 21.6399Z" fill="white"/>
<path d="M4.51896 20.6303L8.54368 15.6865L9.46278 16.6056L4.51896 20.6303Z" fill="white"/>
<path d="M3.51099 19.3161L8.67812 15.5824L9.32802 16.7081L3.51099 19.3161Z" fill="white"/>
<path d="M2.87769 17.7863L8.83511 15.5172L9.17152 16.7727L2.87769 17.7863Z" fill="white"/>
<path d="M0.146484 16.1473L9.00363 15.6149V16.6797L0.146484 16.1473Z" fill="white"/>
<path d="M2.87817 14.5051L9.172 15.5186L8.83559 16.7742L2.87817 14.5051Z" fill="white"/>
<path d="M3.51148 12.9762L9.32851 15.5842L8.67861 16.7099L3.51148 12.9762Z" fill="white"/>
<path d="M4.51912 11.6616L9.46294 15.6863L8.54384 16.6054L4.51912 11.6616Z" fill="white"/>
<path d="M5.83237 10.6555L9.56606 15.8227L8.44039 16.4726L5.83237 10.6555Z" fill="white"/>
<path d="M7.36213 10.0193L9.63125 15.9767L8.37573 16.3131L7.36213 10.0193Z" fill="white"/>
</g>
</svg>
