<svg width="40" height="40" viewBox="0 0 40 40" fill="none" xmlns="http://www.w3.org/2000/svg">
<rect y="5.71484" width="40" height="28.5714" rx="4" fill="white"/>
<mask id="mask0_101_3955" style="mask-type:luminance" maskUnits="userSpaceOnUse" x="0" y="5" width="40" height="30">
<rect y="5.71484" width="40" height="28.5714" rx="4" fill="white"/>
</mask>
<g mask="url(#mask0_101_3955)">
<rect y="5.71484" width="40" height="28.5714" fill="#128C4B"/>
<path fill-rule="evenodd" clip-rule="evenodd" d="M9.52344 22.8578H24.7615V22.1302C24.7615 21.1518 25.7912 20.5155 26.6663 20.953V20.953V22.8578H29.206C29.9073 22.8578 30.4758 23.4263 30.4758 24.1276V24.1276C30.4758 25.5303 29.3388 26.6673 27.9361 26.6673H26.0949C25.3585 26.6673 24.7615 26.0704 24.7615 25.334V24.7625H11.9805C11.6269 24.7625 11.2877 24.6221 11.0377 24.372L9.52344 22.8578Z" fill="white"/>
<path fill-rule="evenodd" clip-rule="evenodd" d="M9.52344 17.4177C9.52344 17.2409 9.59368 17.0713 9.7187 16.9463L10.0044 16.6606C10.2648 16.4002 10.2648 15.9781 10.0044 15.7178L9.7187 15.4321C9.59368 15.307 9.52344 15.1375 9.52344 14.9607V13.9987C9.52344 13.6305 9.82191 13.332 10.1901 13.332H11.0644C11.2653 13.332 11.4282 13.4949 11.4282 13.6958V13.6958C11.4282 14.0797 11.9457 14.2018 12.1173 13.8585L12.2593 13.5745C12.3336 13.4259 12.4855 13.332 12.6517 13.332H14.7615C15.0245 13.332 15.2377 13.5452 15.2377 13.8082V13.8082C15.2377 14.0712 15.0245 14.2844 14.7615 14.2844H13.8092C13.5462 14.2844 13.333 14.4976 13.333 14.7606V14.7606C13.333 15.0236 13.5462 15.2368 13.8092 15.2368H14.5711C14.9392 15.2368 15.2377 15.5353 15.2377 15.9035V18.3796C15.2377 18.7478 14.9392 19.0463 14.5711 19.0463H13.9996C13.6314 19.0463 13.333 18.7478 13.333 18.3796V17.6177C13.333 17.3548 13.5462 17.1416 13.8092 17.1416V17.1416C14.0721 17.1416 14.2853 16.9284 14.2853 16.6654V16.6654C14.2853 16.4024 14.0721 16.1892 13.8092 16.1892H13.0472C12.6791 16.1892 12.3806 16.4877 12.3806 16.8558V18.5701C12.3806 18.8331 12.1674 19.0463 11.9044 19.0463V19.0463C11.6414 19.0463 11.4282 18.8331 11.4282 18.5701V17.6177C11.4282 17.3548 11.215 17.1416 10.952 17.1416V17.1416C10.689 17.1416 10.4758 17.3548 10.4758 17.6177V18.5701C10.4758 18.8331 10.2626 19.0463 9.99963 19.0463V19.0463C9.73664 19.0463 9.52344 18.8331 9.52344 18.5701V17.4177Z" fill="white"/>
<path fill-rule="evenodd" clip-rule="evenodd" d="M24.7617 17.4177C24.7617 17.2409 24.832 17.0713 24.957 16.9463L25.2427 16.6606C25.503 16.4002 25.503 15.9781 25.2427 15.7178L24.957 15.4321C24.832 15.307 24.7617 15.1375 24.7617 14.9607V13.9987C24.7617 13.6305 25.0602 13.332 25.4284 13.332H26.3027C26.5036 13.332 26.6665 13.4949 26.6665 13.6958V13.6958C26.6665 14.0797 27.184 14.2018 27.3556 13.8585L27.4976 13.5745C27.5719 13.4259 27.7238 13.332 27.89 13.332H29.9998C30.2628 13.332 30.476 13.5452 30.476 13.8082V13.8082C30.476 14.0712 30.2628 14.2844 29.9998 14.2844H29.0474C28.7844 14.2844 28.5712 14.4976 28.5712 14.7606V14.7606C28.5712 15.0236 28.7844 15.2368 29.0474 15.2368H29.8093C30.1775 15.2368 30.476 15.5353 30.476 15.9035V18.3796C30.476 18.7478 30.1775 19.0463 29.8093 19.0463H29.2379C28.8697 19.0463 28.5712 18.7478 28.5712 18.3796V17.6177C28.5712 17.3548 28.7844 17.1416 29.0474 17.1416V17.1416C29.3104 17.1416 29.5236 16.9284 29.5236 16.6654V16.6654C29.5236 16.4024 29.3104 16.1892 29.0474 16.1892H28.2855C27.9173 16.1892 27.6189 16.4877 27.6189 16.8558V18.5701C27.6189 18.8331 27.4057 19.0463 27.1427 19.0463V19.0463C26.8797 19.0463 26.6665 18.8331 26.6665 18.5701V17.6177C26.6665 17.3548 26.4533 17.1416 26.1903 17.1416V17.1416C25.9273 17.1416 25.7141 17.3548 25.7141 17.6177V18.5701C25.7141 18.8331 25.5009 19.0463 25.2379 19.0463V19.0463C24.9749 19.0463 24.7617 18.8331 24.7617 18.5701V17.4177Z" fill="white"/>
<path fill-rule="evenodd" clip-rule="evenodd" d="M22.8569 14.7561C22.8569 15.0216 22.7081 15.3856 22.513 15.5806L22.2483 15.8453C22.0584 16.0352 22.0533 16.338 22.2483 16.533L22.513 16.7977C22.7029 16.9876 22.8569 17.3454 22.8569 17.6222V18.5657C22.8569 18.8311 22.653 19.0463 22.3762 19.0463H21.4328C21.1673 19.0463 20.9521 18.8425 20.9521 18.5657V17.6222C20.9521 17.3567 20.8642 17.3173 20.7312 17.5833L20.2206 18.6045C20.0986 18.8485 19.7755 19.0463 19.5279 19.0463H17.6144C17.3538 19.0463 17.1426 18.8254 17.1426 18.5701V18.5701C17.1426 18.3071 17.3464 18.0939 17.6232 18.0939H18.5667C18.8321 18.0939 19.0473 17.873 19.0473 17.6177V17.6177C19.0473 17.3548 18.8435 17.1416 18.5667 17.1416H17.6232C17.3578 17.1416 17.1426 16.9367 17.1426 16.6744V13.7992C17.1426 13.5412 17.3464 13.332 17.6232 13.332H18.5667C18.8321 13.332 19.0473 13.5359 19.0473 13.8127V14.7561C19.0473 15.0216 18.8265 15.2368 18.5712 15.2368V15.2368C18.3082 15.2368 18.095 15.4577 18.095 15.713V15.713C18.095 15.976 18.2988 16.1892 18.5756 16.1892H19.5191C19.7845 16.1892 19.9997 15.965 19.9997 15.7174V13.8038C19.9997 13.5433 20.2206 13.332 20.4759 13.332V13.332C20.7389 13.332 20.9521 13.5359 20.9521 13.8127V14.7561C20.9521 15.0216 21.173 15.2368 21.4283 15.2368V15.2368C21.6913 15.2368 21.9045 15.033 21.9045 14.7561V13.8127C21.9045 13.5472 22.1254 13.332 22.3807 13.332V13.332C22.6437 13.332 22.8569 13.5359 22.8569 13.8127V14.7561V14.7561Z" fill="white"/>
</g>
</svg>
