<svg width="40" height="40" viewBox="0 0 40 40" fill="none" xmlns="http://www.w3.org/2000/svg">
<rect x="0.5" y="6.21484" width="39" height="27.5714" rx="3.5" fill="white" stroke="#F5F5F5"/>
<mask id="mask0_101_2790" style="mask-type:luminance" maskUnits="userSpaceOnUse" x="0" y="5" width="40" height="30">
<rect x="0.5" y="6.21484" width="39" height="27.5714" rx="3.5" fill="white" stroke="white"/>
</mask>
<g mask="url(#mask0_101_2790)">
<rect x="28.5713" y="5.71484" width="11.4286" height="28.5714" fill="#FF3131"/>
<path fill-rule="evenodd" clip-rule="evenodd" d="M0 34.2863H11.4286V5.71484H0V34.2863Z" fill="#FF3131"/>
<path fill-rule="evenodd" clip-rule="evenodd" d="M23.3665 18.5366C22.9285 18.9746 22.1885 18.5785 22.3099 17.9712L22.8568 15.2368L20.9521 16.1892L19.9997 13.332L19.0473 16.1892L17.1425 15.2368L17.6894 17.9712C17.8109 18.5785 17.0708 18.9746 16.6328 18.5366V18.5366C16.3883 18.2921 15.992 18.2921 15.7475 18.5366L15.2378 19.0463L13.333 18.0939L14.2854 19.9987L13.8044 20.4797C13.5441 20.74 13.5441 21.1621 13.8044 21.4225L16.1902 23.8082H19.0473L19.5235 26.6654H20.4759L20.9521 23.8082H23.8092L26.1949 21.4225C26.4553 21.1621 26.4553 20.74 26.1949 20.4797L25.714 19.9987L26.6663 18.0939L24.7616 19.0463L24.2519 18.5366C24.0074 18.2921 23.611 18.2921 23.3665 18.5366V18.5366Z" fill="#FF3131"/>
</g>
</svg>
