<svg width="40" height="40" viewBox="0 0 40 40" fill="none" xmlns="http://www.w3.org/2000/svg">
<rect x="0.5" y="6.21484" width="39" height="27.5714" rx="3.5" fill="white" stroke="#F5F5F5"/>
<mask id="mask0_101_2973" style="mask-type:luminance" maskUnits="userSpaceOnUse" x="0" y="5" width="40" height="30">
<rect x="0.5" y="6.21484" width="39" height="27.5714" rx="3.5" fill="white" stroke="white"/>
</mask>
<g mask="url(#mask0_101_2973)">
<path fill-rule="evenodd" clip-rule="evenodd" d="M0 15.2387H40V5.71484H0V15.2387Z" fill="#E41D33"/>
<path fill-rule="evenodd" clip-rule="evenodd" d="M0 34.2855H40V24.7617H0V34.2855Z" fill="#262626"/>
<path d="M18.1759 20.2874H19.0478H19.7145V20.9541V21.9064C19.7145 22.0642 19.8424 22.1922 20.0002 22.1922C20.158 22.1922 20.2859 22.0642 20.2859 21.9064V20.9541V20.2874H20.9526H21.7786L21.309 19.348L21.3089 19.3479L21.3089 19.3478L21.3088 19.3476L21.3087 19.3474L21.3078 19.3458L21.3017 19.3339C21.296 19.3227 21.2868 19.3052 21.2745 19.2823C21.2499 19.2363 21.2129 19.169 21.1654 19.0876C21.0696 18.9234 20.9349 18.7083 20.7764 18.4969C20.6149 18.2816 20.4451 18.0923 20.2831 17.9627C20.1183 17.8309 20.0267 17.8125 20.0027 17.8113M18.1759 20.2874L20.0002 17.8112C20.0009 17.8112 20.0018 17.8112 20.0027 17.8113M18.1759 20.2874L18.6795 19.3707L18.6796 19.3706L18.6796 19.3705L18.6796 19.3704L18.6797 19.3703L18.681 19.3681L18.688 19.3556C18.6945 19.344 18.7048 19.326 18.7184 19.3026C18.7456 19.2557 18.7862 19.1874 18.8378 19.1048C18.9417 18.9384 19.0864 18.7201 19.2529 18.5052C19.4225 18.2863 19.5984 18.0921 19.7619 17.9586C19.9075 17.8399 19.985 17.8168 20.0001 17.8123C20.0023 17.8116 20.0031 17.8114 20.0027 17.8113M18.1759 20.2874L20.0027 17.8113M17.4991 19.3474L17.9691 20.2874H17.8936L17.7256 20.3994L16.9414 20.9222C16.4984 21.2175 15.9049 20.8999 15.9049 20.3675V18.4779C15.9049 18.1097 16.2034 17.8112 16.5716 17.8112H16.731L17.4991 19.3474ZM22.1068 20.2874H22.0313L22.5012 19.3474L23.2694 17.8112L23.4288 17.8112C23.7969 17.8112 24.0954 18.1097 24.0954 18.4779V20.3675C24.0954 20.8999 23.502 21.2175 23.059 20.9222L22.2747 20.3994L22.1068 20.2874Z" fill="#F4B32E" fill-opacity="0.25" stroke="#C6A846" stroke-width="1.33333"/>
</g>
</svg>
