<svg width="40" height="40" viewBox="0 0 40 40" fill="none" xmlns="http://www.w3.org/2000/svg">
<rect y="5.71484" width="40" height="28.5714" rx="4" fill="#009F60"/>
<mask id="mask0_101_4723" style="mask-type:luminance" maskUnits="userSpaceOnUse" x="0" y="5" width="40" height="30">
<rect y="5.71484" width="40" height="28.5714" rx="4" fill="white"/>
</mask>
<g mask="url(#mask0_101_4723)">
<rect x="34.2861" y="20.9531" width="5.71429" height="13.3333" fill="#EA8B42"/>
<path fill-rule="evenodd" clip-rule="evenodd" d="M28.5713 34.2865H34.2856V20.9531H28.5713V34.2865Z" fill="#1A1919"/>
<path fill-rule="evenodd" clip-rule="evenodd" d="M22.8574 34.2865H28.5717V20.9531H22.8574V34.2865Z" fill="#DB3C36"/>
<path fill-rule="evenodd" clip-rule="evenodd" d="M30.0197 10.69C29.8884 10.6937 29.792 10.6482 29.7574 10.5718C29.9715 10.4462 30.1162 10.4742 30.2957 10.6342C30.3302 10.5091 30.2957 10.3697 30.2198 10.2862C30.1439 10.2026 30.0817 10.2026 29.9783 10.1955C29.8747 10.1886 29.7711 10.1608 29.7021 10.1608C29.6009 9.9379 29.3475 10.0323 29.104 10.1237C28.7083 10.2722 28.3527 10.5418 28.193 10.8109C28.12 10.934 28.1112 10.9825 28.0664 11.0523C28.1034 11.0476 28.1009 11.0476 28.124 11.0336C28.0963 11.3401 28.0595 11.6232 28.1147 11.8043C28.0458 12.069 28.1009 12.2362 28.1837 12.3197C28.2667 12.4033 28.301 12.4382 28.315 12.5358C28.3287 12.6331 28.3701 12.7235 28.4391 12.7793C28.5082 12.8351 28.5496 12.9187 28.5564 12.9676C28.5633 13.0162 28.7769 13.2261 28.867 13.2809C28.9015 13.3016 28.9084 13.3436 28.95 13.3992C28.8601 13.9286 29.2191 14.458 29.1361 14.9802C29.1983 14.9871 29.2811 14.9802 29.3641 14.9593C29.4329 15.4049 29.4743 15.621 29.0879 15.7532C28.7014 15.8857 28.4901 16.0159 28.5978 16.1641C28.6738 16.2686 28.831 16.1777 28.9292 16.0875C29.0051 16.0179 29.0947 15.9552 29.1638 15.9343C29.2329 15.9135 29.2468 15.9343 29.212 16.0248C29.1775 16.1155 28.9914 16.3104 28.9843 16.408C28.9774 16.5055 29.0602 16.5751 29.1915 16.4984C29.3225 16.4217 29.4378 16.2212 29.4675 16.1015C29.488 16.0179 29.5228 15.9621 29.5157 16.1015C29.5089 16.2408 29.4261 16.4915 29.6124 16.5333C29.7988 16.5751 29.8542 16.3522 29.792 16.1501C29.7298 15.9484 29.7092 15.8368 29.7366 15.7672C29.7643 15.6974 29.792 15.6559 29.8608 15.6765C29.9298 15.6974 30.068 15.6696 30.0611 15.5583C30.054 15.447 29.9575 15.3563 29.8471 15.4189C29.7366 15.4816 29.6538 15.4723 29.7021 15.3354C29.7366 15.2378 29.7988 15.1193 29.8057 15.0429C29.8816 15.1542 30.3094 15.1683 30.4821 15.0638C30.5235 15.2727 30.6339 15.4607 30.3924 15.6559C30.1507 15.8508 29.9575 16.0388 29.9644 16.1782C29.9715 16.3175 30.0266 16.4008 30.1507 16.3313C30.2749 16.2617 30.3508 16.1641 30.3785 16.0737C30.4062 15.983 30.4615 15.983 30.4338 16.0946C30.4062 16.2059 30.3579 16.3662 30.3785 16.4637C30.3993 16.5611 30.5511 16.5682 30.6131 16.4775C30.6753 16.3871 30.6613 16.2686 30.6476 16.1501C30.6339 16.0317 30.6547 15.9066 30.6822 15.8577C30.7098 15.809 30.7649 15.7392 30.8203 15.8717C30.8756 16.0039 30.9031 16.1084 31.0135 16.1433C31.124 16.1782 31.2067 16.1292 31.1862 15.997C31.1653 15.8648 31.0204 15.7183 30.8756 15.607C30.7307 15.4956 30.7789 15.4398 30.7858 15.3354C30.7926 15.2309 30.772 15.0429 30.7649 14.9593C30.8962 15.0569 31.0412 15.0429 31.11 15.0429C31.1791 15.0429 31.2924 15.0215 31.1791 14.9176C30.9513 14.7087 31.0272 14.5831 30.8685 14.4299C30.7098 14.2768 30.5649 14.0399 30.5166 13.8381C30.4681 13.6361 30.3618 13.2669 30.1507 13.0789C30.0334 12.9745 29.9989 12.6889 30.0266 12.3615C30.054 12.0341 30.0611 11.6721 29.7643 11.505C29.4675 11.3378 29.4743 11.1985 29.5711 11.0523C29.6675 10.906 29.7917 10.763 29.9507 10.7527C29.9864 10.7504 30.0689 10.7436 30.1025 10.719C30.0875 10.7074 30.0633 10.689 30.0197 10.69" fill="#EA8B42"/>
<path fill-rule="evenodd" clip-rule="evenodd" d="M28.0902 11.4455C28.0829 11.587 28.0863 11.7117 28.1154 11.8075C28.0466 12.0722 28.1017 12.2393 28.1845 12.3229C28.2675 12.4065 28.3018 12.4414 28.3158 12.5389C28.3295 12.6363 28.3709 12.7267 28.4399 12.7825C28.509 12.8383 28.5504 12.9219 28.5572 12.9708C28.5641 13.0194 28.7777 13.2293 28.8678 13.2841C28.9023 13.3048 28.9092 13.3468 28.9508 13.4023C28.9133 13.6223 28.9528 13.8423 29.0066 14.0618C28.5188 14.4702 28.0373 14.2776 28.2399 13.8597C27.8348 14.1846 27.1356 14.1756 27.2921 13.8597C26.6571 14.0827 26.4639 13.8968 26.5466 13.6926C26.013 13.9062 25.7368 13.7019 25.8105 13.5532C25.3687 13.6739 25.0834 13.5997 25.0373 13.5255C24.9915 13.4513 25.1017 13.2841 25.2031 13.2006C25.0006 13.2748 24.8074 13.2748 24.6232 13.247C24.4393 13.219 24.4853 13.1632 24.5221 13.0796C24.559 12.9961 24.6073 12.8638 24.7545 12.7338C24.4025 12.8034 23.9608 12.8523 23.6502 12.7476C23.5917 12.7279 23.4915 12.7058 23.5535 12.6434C23.6157 12.5807 23.8021 12.4274 24.0298 12.3298C23.5121 12.4065 22.532 12.4623 22.256 12.1489C22.5252 12.2044 22.8702 12.0931 23.0911 12.0027C22.2215 11.9051 21.0345 11.3061 21.0205 10.7212C21.2691 11.125 21.6972 11.2643 22.125 11.3897C21.5451 11.0483 21.3036 10.6374 21.283 10.3658C21.6141 10.6863 22.1179 11.0483 22.615 11.1321C22.2629 10.9441 21.8074 10.3938 21.6832 10.0106C21.9386 10.2404 22.5942 10.6096 23.0429 10.7281C22.7323 10.4842 22.2286 9.90618 22.256 9.58594C22.3733 9.7044 22.6633 9.92707 23.2567 10.2753C23.8503 10.6236 24.1723 10.598 24.6624 10.7025C24.5728 10.5818 24.4922 10.4216 24.4853 10.3798C24.6303 10.4007 24.7682 10.4565 25.1823 10.714C25.5964 10.9719 26.5013 11.0508 27.0183 11.2783C27.3977 11.4455 27.9384 11.341 28.0902 11.4455" fill="#EA8B42"/>
<path fill-rule="evenodd" clip-rule="evenodd" d="M31.2136 15.0198C31.2364 15.0016 31.2364 14.9701 31.1796 14.9183C30.9518 14.7094 31.0277 14.5838 30.869 14.4307C30.7103 14.2775 30.5654 14.0406 30.5171 13.8388C30.4686 13.6368 30.3623 13.2676 30.1512 13.0796C30.0339 12.9752 29.9994 12.6896 30.0271 12.3622C30.0506 12.082 30.0592 11.7765 29.875 11.5895C30.2201 11.4919 30.5379 11.4708 30.6481 11.5821C31.221 11.4359 31.7181 11.3916 32.2057 11.3594C32.767 11.3221 33.8252 11.0807 34.58 10.57C34.5339 10.7558 34.2763 11.0343 34.0461 11.1736C34.8099 10.9878 35.7303 10.6442 36.5125 10.0593C36.5032 10.468 36.1721 10.7742 35.9786 10.9416C36.5125 10.6442 37.2944 10.2729 37.5614 9.80859C37.6787 10.2844 36.8806 10.9067 36.4478 11.2503C36.8896 11.0367 37.4602 10.8394 37.6811 10.5236C37.6765 10.9089 37.1749 11.3872 36.6964 11.6657C37.1842 11.4801 37.7272 11.285 38.0399 10.9972C38.0766 11.385 36.5813 12.2764 35.8405 12.52C36.4848 12.3622 37.3221 12.1486 37.6902 11.9257C37.6718 12.0046 37.5217 12.1152 37.4125 12.1958C36.9623 12.5286 36.272 12.7073 35.8498 12.7894C35.9051 13.0216 35.8314 13.1516 35.5738 13.1701C35.3161 13.1887 34.6926 13.089 34.3799 12.9309C34.3339 12.9587 34.2785 12.9683 34.2163 12.9752C34.52 13.205 34.6236 13.3721 34.5614 13.4697C34.4994 13.5672 34.2819 13.5495 34.1164 13.5149C34.2474 13.884 33.809 13.8597 33.4434 13.6506C33.5884 13.8388 33.6092 13.9988 33.4089 14.0406C33.2088 14.0824 33.0499 14.0686 32.8566 13.943C32.8429 14.0824 32.7094 14.1753 32.5324 14.1288C33.1397 14.498 33.1052 14.6327 33.0016 14.7718C32.8983 14.9111 32.5358 14.8834 32.3426 14.758C32.2598 15.0436 31.9297 15.0446 31.6833 14.8173C31.6811 14.9311 31.446 15.1569 31.2136 15.0198" fill="#EA8B42"/>
<path fill-rule="evenodd" clip-rule="evenodd" d="M28.3958 16.4221C28.4058 16.3341 28.4141 16.2319 28.4876 16.1668C28.5613 16.1016 28.6074 16.0461 28.6718 16.111C28.7362 16.1761 28.6948 16.2366 28.6074 16.2643C28.5199 16.2921 28.4602 16.371 28.4462 16.4221C28.4325 16.4732 28.3865 16.501 28.3958 16.4221" fill="black"/>
<path fill-rule="evenodd" clip-rule="evenodd" d="M28.8976 16.8493C28.8521 16.7033 28.8748 16.5151 28.9253 16.4593C28.976 16.4035 29.0404 16.3664 29.1001 16.4222C29.1599 16.4779 29.1829 16.5568 29.0725 16.6033C28.9748 16.6443 28.9667 16.7471 28.9623 16.8215C28.9576 16.8958 28.9253 16.9375 28.8976 16.8493" fill="black"/>
<path fill-rule="evenodd" clip-rule="evenodd" d="M29.5421 16.4729C29.5066 16.5326 29.5512 16.7747 29.671 16.8349C29.7557 16.8776 29.7951 16.8676 29.7444 16.7884C29.694 16.7095 29.7123 16.6353 29.74 16.5935C29.7674 16.5517 29.763 16.4775 29.703 16.4404C29.6433 16.403 29.5696 16.4264 29.5421 16.4729" fill="black"/>
<path fill-rule="evenodd" clip-rule="evenodd" d="M30.0612 16.2523C29.9853 16.1948 29.914 16.2638 29.8864 16.3125C29.831 16.4101 29.8727 16.5494 29.9601 16.6283C30.0475 16.7072 30.0336 16.6005 30.0059 16.5541C29.9784 16.5076 29.9738 16.4147 30.0336 16.4054C30.0933 16.3963 30.1349 16.3078 30.0612 16.2523" fill="black"/>
<path fill-rule="evenodd" clip-rule="evenodd" d="M30.4944 16.41C30.4204 16.3881 30.3472 16.4658 30.3562 16.5587C30.3631 16.628 30.3702 16.7165 30.439 16.7629C30.4853 16.7939 30.5174 16.814 30.4944 16.7305C30.4713 16.6469 30.5083 16.5771 30.5495 16.554C30.5908 16.5309 30.5725 16.4333 30.4944 16.41" fill="black"/>
<path fill-rule="evenodd" clip-rule="evenodd" d="M31.1065 16.0176C31.0529 16.0555 31.0558 16.1432 31.1065 16.1756C31.157 16.2081 31.2307 16.2545 31.217 16.3334C31.203 16.4123 31.2444 16.4403 31.2814 16.3521C31.3181 16.2639 31.3228 16.1339 31.2814 16.0734C31.2397 16.0129 31.1523 15.9852 31.1065 16.0176" fill="black"/>
<path d="M30.0195 10.6748C29.8952 10.6783 29.8035 10.6365 29.7715 10.5656C29.9673 10.4667 30.1052 10.4849 30.2857 10.6459L30.3106 10.6385C30.3457 10.5113 30.3127 10.3657 30.2313 10.276C30.2118 10.2546 30.1927 10.2379 30.1731 10.2251C30.1284 10.1958 30.0914 10.1879 30.0032 10.1819C29.9916 10.1811 29.9916 10.1811 29.9795 10.1803C29.9421 10.1778 29.9063 10.1731 29.8503 10.1639C29.7523 10.148 29.7355 10.1456 29.7023 10.1456C29.6269 9.95785 29.4755 9.96803 29.0988 10.1095C28.7014 10.2586 28.3422 10.5299 28.18 10.8032C28.1587 10.8392 28.1416 10.8708 28.1258 10.9027C28.1164 10.9217 28.0891 10.9801 28.0918 10.9744C28.0853 10.9878 28.0853 10.9878 28.0787 11.0009C28.0708 11.016 28.0628 11.0299 28.0537 11.0441L28.0685 11.0677C28.0812 11.0661 28.0812 11.0661 28.0904 11.0647C28.0993 11.0632 28.1052 11.0616 28.1112 11.0589C28.1161 11.0567 28.1206 11.054 28.1321 11.0469L28.1089 11.0324C28.1067 11.0567 28.1051 11.0735 28.1013 11.1143C28.0616 11.5345 28.0576 11.6691 28.1002 11.809C28.0372 12.0423 28.0709 12.2276 28.173 12.3307C28.2707 12.429 28.2882 12.4555 28.3 12.5381C28.3149 12.6439 28.3602 12.7353 28.4297 12.7915C28.4888 12.8392 28.534 12.9166 28.5415 12.9699C28.5489 13.0227 28.7611 13.2346 28.8592 13.2943C28.8705 13.301 28.8787 13.3106 28.889 13.3283C28.8923 13.3338 28.9054 13.3579 28.9089 13.3639C28.9182 13.3802 28.9272 13.3943 28.9379 13.4086C28.8968 13.622 28.924 13.8023 29.0274 14.2025C29.1285 14.5937 29.155 14.765 29.1212 14.978C29.2 15.0029 29.2849 14.9953 29.368 14.9744C29.4352 15.5192 29.4102 15.6269 29.0831 15.7388C28.8767 15.8096 28.7334 15.8751 28.6484 15.9408C28.5517 16.0154 28.5278 16.0938 28.5856 16.1734C28.6587 16.2739 28.8033 16.2243 28.9397 16.099C29.0201 16.0253 29.1061 15.9681 29.1684 15.9492C29.2238 15.9325 29.2283 15.9405 29.1979 16.0194C29.1858 16.0512 29.172 16.0716 29.0886 16.187C29.0794 16.1997 29.0794 16.1997 29.0703 16.2124C29.0044 16.305 28.9725 16.3622 28.9692 16.407C28.9606 16.5289 29.0684 16.5884 29.1993 16.5119C29.3213 16.4405 29.4471 16.2484 29.4825 16.1054C29.492 16.0665 29.5051 16.0345 29.5107 16.0308C29.5035 16.0356 29.4985 16.0306 29.4992 16.0341C29.5016 16.0463 29.5022 16.0687 29.5006 16.1009C29.4994 16.1252 29.4976 16.1399 29.4888 16.2043C29.4848 16.2338 29.4825 16.2526 29.4805 16.2724C29.4644 16.4317 29.4945 16.5227 29.6093 16.5485C29.7969 16.5905 29.8787 16.3794 29.8068 16.1458C29.7422 15.9364 29.7266 15.8349 29.751 15.773C29.7814 15.6964 29.8049 15.6759 29.8566 15.6914C29.956 15.7215 30.0833 15.6666 30.0765 15.5575C30.0681 15.4258 29.9537 15.341 29.8397 15.4058C29.7867 15.4358 29.7432 15.447 29.721 15.438C29.7005 15.4296 29.6962 15.3989 29.7167 15.3407C29.7261 15.314 29.7354 15.2911 29.7569 15.2397C29.757 15.2395 29.757 15.2395 29.757 15.2393C29.8016 15.1329 29.8171 15.0892 29.8211 15.0445L29.7932 15.0518C29.8747 15.1713 30.3117 15.1851 30.4902 15.0771L30.4672 15.067C30.4731 15.0963 30.4793 15.122 30.4915 15.1691C30.537 15.344 30.543 15.4124 30.5016 15.5016C30.4788 15.5508 30.4403 15.5978 30.383 15.6441C30.0881 15.8819 29.9428 16.048 29.9492 16.1791C29.9576 16.3436 30.0315 16.4159 30.1584 16.3449C30.2786 16.2775 30.3623 16.1796 30.3933 16.0784C30.4041 16.0429 30.42 16.0228 30.4243 16.0236C30.4269 16.0241 30.4298 16.0481 30.4192 16.0911C30.4153 16.1066 30.4002 16.1653 30.3979 16.1743C30.3898 16.206 30.3837 16.2318 30.3783 16.2567C30.3589 16.3473 30.3528 16.4155 30.3637 16.4671C30.3875 16.5786 30.5567 16.5877 30.6259 16.4864C30.6805 16.407 30.6841 16.3306 30.6631 16.1497C30.6631 16.1491 30.6631 16.1491 30.663 16.1485C30.6506 16.0416 30.6673 15.916 30.6957 15.8654C30.7124 15.8359 30.7297 15.8162 30.7452 15.8117C30.7633 15.8065 30.7838 15.8238 30.8063 15.8778C30.8138 15.8956 30.839 15.9583 30.8446 15.9717C30.8909 16.0824 30.9311 16.1334 31.0091 16.1581C31.1365 16.1984 31.2229 16.1324 31.2015 15.9948C31.1822 15.8724 31.0625 15.7314 30.8851 15.595C30.8174 15.5429 30.7914 15.5035 30.7884 15.4596C30.7872 15.4417 30.7884 15.4304 30.7948 15.3893C30.7983 15.367 30.8001 15.3528 30.8012 15.3366C30.804 15.2937 30.8026 15.2353 30.7977 15.1623C30.7957 15.1331 30.7933 15.1025 30.7903 15.068C30.7883 15.0456 30.7815 14.9715 30.7804 14.9582L30.756 14.9719C30.7761 14.9869 30.7972 14.9997 30.819 15.0106C30.9015 15.0517 30.9733 15.0609 31.0847 15.0588C31.0984 15.0585 31.0984 15.0585 31.1102 15.0585C31.1571 15.0585 31.1993 15.0502 31.2227 15.0314C31.2582 15.0029 31.247 14.9591 31.1896 14.9064C31.086 14.8114 31.0519 14.7528 31.0014 14.6184C30.9868 14.5795 30.9777 14.5578 30.9654 14.5338C30.9438 14.492 30.9169 14.4554 30.8793 14.4191C30.7192 14.2645 30.5782 14.0295 30.5317 13.8347C30.4501 13.4947 30.3369 13.2242 30.1611 13.0676C30.0548 12.973 30.0129 12.7077 30.042 12.363C30.0817 11.8885 30.029 11.6365 29.7719 11.4918C29.5133 11.3461 29.4753 11.2253 29.584 11.0609C29.7047 10.878 29.8199 10.7767 29.9518 10.7682C30.0242 10.7637 30.0813 10.7538 30.1117 10.7316C30.0829 10.6845 30.059 10.6739 30.0195 10.6748L30.0195 10.6748Z" fill="black"/>
<path d="M30.021 10.708C30.0522 10.7073 30.07 10.7152 30.0941 10.7338C30.0709 10.7264 30.0163 10.7359 29.9506 10.74C29.8063 10.7493 29.6848 10.8561 29.5592 11.0464C29.4401 11.2265 29.4844 11.3671 29.7577 11.521C30.0004 11.6576 30.0511 11.8997 30.0123 12.3628C29.9823 12.7167 30.0255 12.9898 30.1415 13.093C30.3111 13.2441 30.4225 13.5102 30.5027 13.8444C30.5506 14.045 30.6947 14.2852 30.8589 14.4437C30.894 14.4776 30.9189 14.5115 30.9389 14.5503C30.9506 14.573 30.9593 14.5938 30.9735 14.6317C31.0256 14.7702 31.0619 14.8327 31.1697 14.9315C31.2152 14.9733 31.2211 14.9964 31.2043 15.0099C31.1879 15.023 31.1513 15.0302 31.1109 15.0302C31.0987 15.0303 31.0987 15.0303 31.0849 15.0305C30.9781 15.0325 30.9104 15.0239 30.8334 14.9855C30.8132 14.9755 30.7937 14.9635 30.775 14.9496L30.7506 14.9633C30.7518 14.9767 30.7586 15.0509 30.7606 15.0732C30.7636 15.1075 30.766 15.1379 30.7679 15.1668C30.7727 15.2386 30.7741 15.2958 30.7714 15.337C30.7704 15.3521 30.7687 15.3655 30.7654 15.3869C30.7585 15.4307 30.7572 15.443 30.7586 15.4642C30.7624 15.5181 30.7932 15.5649 30.8673 15.6218C31.0388 15.7537 31.1543 15.8898 31.172 16.002C31.1897 16.1161 31.1257 16.1649 31.019 16.1312C30.9518 16.11 30.9167 16.0654 30.8736 15.9622C30.8681 15.9492 30.8429 15.8864 30.8353 15.8684C30.8075 15.8018 30.7746 15.7739 30.7375 15.7846C30.7118 15.792 30.6904 15.8165 30.6698 15.8527C30.6378 15.9098 30.6203 16.0416 30.6334 16.1545C30.6334 16.1551 30.6334 16.1551 30.6335 16.1557C30.6536 16.329 30.6502 16.4006 30.6014 16.4714C30.546 16.5525 30.412 16.5453 30.3944 16.4632C30.3846 16.417 30.3904 16.3522 30.409 16.2657C30.4143 16.2412 30.4204 16.2157 30.4283 16.1843C30.4306 16.1754 30.4457 16.1167 30.4496 16.1009C30.4643 16.0419 30.4593 16.0012 30.4307 15.9958C30.4047 15.9909 30.3798 16.0227 30.3648 16.0718C30.3362 16.1652 30.2578 16.2568 30.1442 16.3205C30.0418 16.3778 29.988 16.3251 29.9806 16.18C29.9749 16.0635 30.1169 15.9011 30.403 15.6705C30.4637 15.6214 30.5052 15.5707 30.5301 15.517C30.5756 15.419 30.5692 15.3456 30.5219 15.1638C30.5098 15.1172 30.5037 15.092 30.498 15.0634L30.4751 15.0533C30.309 15.1538 29.8899 15.1405 29.8192 15.0369L29.7914 15.0442C29.7878 15.0844 29.7726 15.127 29.7296 15.2299C29.7295 15.2301 29.7295 15.2301 29.7294 15.2303C29.7077 15.2822 29.6983 15.3055 29.6886 15.3329C29.6633 15.4046 29.6701 15.4525 29.7102 15.4689C29.7436 15.4825 29.7951 15.4692 29.8555 15.435C29.9477 15.3827 30.0397 15.4508 30.0468 15.5619C30.0518 15.6445 29.9481 15.6893 29.8661 15.6644C29.795 15.6431 29.7588 15.6746 29.7233 15.7642C29.6953 15.8352 29.7115 15.9409 29.7783 16.1573C29.8445 16.3723 29.7733 16.556 29.6167 16.5209C29.5222 16.4997 29.497 16.4235 29.5117 16.2779C29.5136 16.2586 29.516 16.24 29.5199 16.2109C29.5289 16.1454 29.5307 16.1305 29.5319 16.1049C29.5337 16.0704 29.533 16.0459 29.53 16.0306C29.5258 16.0091 29.5124 15.9956 29.4944 16.0077C29.4797 16.0176 29.4651 16.0533 29.4535 16.1004C29.42 16.236 29.2988 16.421 29.1847 16.4878C29.0742 16.5523 28.9937 16.5079 29.0005 16.4117C29.0032 16.3749 29.0338 16.3201 29.096 16.2328C29.105 16.2201 29.105 16.2201 29.1141 16.2075C29.2005 16.088 29.2137 16.0686 29.2273 16.0329C29.2655 15.9334 29.245 15.8967 29.1603 15.9223C29.0928 15.9427 29.0033 16.0023 28.9198 16.0787C28.7955 16.1929 28.6684 16.2365 28.6111 16.1577C28.5645 16.0936 28.583 16.033 28.6678 15.9676C28.7495 15.9045 28.8903 15.8401 29.0938 15.7704C29.44 15.6519 29.4683 15.5302 29.3802 14.9596C29.2816 14.9672 29.2003 14.9744 29.1387 14.9676C29.1869 14.7666 29.16 14.5926 29.0578 14.1972C28.9555 13.8013 28.9288 13.6238 28.966 13.4044C28.9533 13.3794 28.9449 13.3663 28.9362 13.3511C28.933 13.3455 28.9197 13.3212 28.9161 13.3152C28.9034 13.2934 28.8921 13.2802 28.8757 13.2704C28.7852 13.2153 28.5783 13.0087 28.5725 12.9681C28.564 12.9069 28.5147 12.8225 28.4497 12.77C28.3868 12.7192 28.345 12.6348 28.3311 12.5362C28.3181 12.4454 28.2974 12.4141 28.1955 12.3115C28.1018 12.2169 28.0701 12.0427 28.1304 11.8108C28.0894 11.6683 28.0933 11.5345 28.1325 11.1196C28.1364 11.0788 28.1379 11.062 28.1401 11.0376L28.117 11.0231C28.1053 11.0303 28.1025 11.0319 28.0993 11.0334C28.0961 11.0348 28.0927 11.0357 28.0862 11.0368C28.078 11.038 28.078 11.038 28.0654 11.0396L28.0802 11.0632C28.0899 11.0482 28.0983 11.0335 28.1066 11.0175C28.1135 11.0039 28.1135 11.0039 28.1202 10.9901C28.1176 10.9956 28.1448 10.9374 28.154 10.9189C28.1695 10.8876 28.1862 10.8567 28.2071 10.8214C28.3654 10.5546 28.7189 10.2875 29.1103 10.1407C29.4713 10.0051 29.6101 9.99581 29.6891 10.1698C29.7338 10.1788 29.7506 10.1811 29.8461 10.1967C29.903 10.206 29.9397 10.2109 29.9782 10.2134C29.9903 10.2143 29.9903 10.2143 30.0019 10.215C30.0852 10.2207 30.1181 10.2277 30.1571 10.2532C30.1745 10.2646 30.1916 10.2796 30.2094 10.2992C30.2837 10.3809 30.3142 10.5156 30.2819 10.6327L30.3068 10.6253C30.1167 10.4559 29.9644 10.4357 29.7506 10.5611C29.7823 10.6646 29.8857 10.7118 30.0211 10.708L30.021 10.708Z" fill="black"/>
<path d="M28.0743 11.4434C28.0659 11.6042 28.0728 11.7207 28.1002 11.8107C28.0372 12.0439 28.0709 12.2293 28.173 12.3324C28.2707 12.4307 28.2882 12.4572 28.3 12.5398C28.3149 12.6456 28.3602 12.737 28.4297 12.7931C28.4888 12.8409 28.534 12.9183 28.5414 12.9716C28.5489 13.0244 28.7611 13.2363 28.8592 13.2959C28.8704 13.3027 28.8786 13.3123 28.889 13.3299C28.8922 13.3355 28.9054 13.3596 28.9088 13.3656C28.9182 13.3819 28.9272 13.3959 28.9379 13.4103C28.9019 13.593 28.9228 13.7859 28.9911 14.0641C28.7726 14.2358 28.5335 14.3069 28.3683 14.2546C28.2121 14.2053 28.1606 14.0557 28.253 13.8651L28.2296 13.8464C28.0435 13.9957 27.7762 14.0846 27.5548 14.0833C27.3409 14.0822 27.2385 13.9997 27.3052 13.8653L27.2864 13.8439C26.7392 14.036 26.4646 13.9328 26.5602 13.6971L26.5403 13.677C26.0916 13.8566 25.7358 13.7358 25.8235 13.5588L25.8058 13.5371C25.4331 13.6389 25.1063 13.6074 25.0497 13.516C25.0139 13.458 25.1009 13.3028 25.2122 13.2111L25.1972 13.1848C25.0163 13.2511 24.8342 13.2621 24.6248 13.2305C24.5467 13.2186 24.5116 13.202 24.5047 13.1812C24.4995 13.1656 24.5025 13.157 24.531 13.0943C24.5332 13.0895 24.5332 13.0895 24.5354 13.0845C24.6135 12.9081 24.6425 12.8574 24.7456 12.7607C24.7546 12.7524 24.7546 12.7524 24.7639 12.744L24.7509 12.7174C24.3027 12.806 23.9207 12.8215 23.6544 12.7317C23.648 12.7296 23.6214 12.7211 23.615 12.719C23.5832 12.7084 23.5638 12.6993 23.5541 12.6892C23.5452 12.6799 23.5462 12.6705 23.5637 12.6529C23.6609 12.5549 23.8492 12.4223 24.0352 12.3426L24.0269 12.3133C23.2558 12.4275 22.4918 12.3928 22.2668 12.1374L22.2523 12.1626C22.4828 12.2102 22.7785 12.1456 23.0963 12.0156L23.0922 11.9861C22.1366 11.8788 21.0478 11.2504 21.0352 10.7195L21.0068 10.7279C21.2187 11.0721 21.5045 11.2228 22.1201 11.4031L22.1321 11.3751C21.6181 11.0725 21.3216 10.6799 21.2977 10.3633L21.2718 10.3755C21.679 10.7697 22.1699 11.0714 22.6119 11.1459L22.6216 11.1172C22.274 10.9317 21.8204 10.3851 21.6971 10.0046L21.6723 10.0208C21.9513 10.2718 22.6158 10.63 23.0383 10.7416L23.0517 10.7146C22.6597 10.4069 22.2474 9.85732 22.2706 9.58594L22.2445 9.59545C22.3922 9.74464 22.728 9.98191 23.2483 10.2873C23.5726 10.4775 23.8206 10.5652 24.1462 10.6254C24.192 10.6338 24.2363 10.6414 24.3059 10.6528C24.5026 10.685 24.5563 10.6944 24.6586 10.7162L24.674 10.692C24.5944 10.5849 24.5072 10.4214 24.4998 10.376L24.4825 10.3937C24.6382 10.4161 24.789 10.4866 25.1736 10.7258C25.3646 10.8447 25.5944 10.9135 26.1527 11.0434C26.1655 11.0464 26.1655 11.0464 26.1783 11.0493C26.6238 11.153 26.8217 11.2075 27.0115 11.2911C27.1149 11.3367 27.2349 11.365 27.3774 11.3814C27.473 11.3924 27.5419 11.3961 27.7157 11.4023C27.9435 11.4103 28.0285 11.4208 28.0809 11.4568L28.0743 11.4434Z" fill="black"/>
<path d="M28.0986 11.4319C28.0389 11.3909 27.9531 11.3803 27.7171 11.372C27.5441 11.3659 27.4758 11.3622 27.3813 11.3513C27.2416 11.3352 27.1244 11.3076 27.0241 11.2634C26.8319 11.1788 26.6331 11.124 26.1855 11.0198C26.1727 11.0168 26.1727 11.0168 26.16 11.0139C25.6055 10.8849 25.377 10.8165 25.19 10.7001C24.8021 10.4588 24.6482 10.3869 24.4872 10.3637L24.4699 10.3814C24.4783 10.4328 24.5675 10.6 24.6498 10.7108L24.6652 10.6866C24.5623 10.6646 24.5084 10.6552 24.3112 10.6229C24.2418 10.6115 24.1977 10.604 24.1521 10.5956C23.8298 10.5361 23.5852 10.4496 23.2641 10.2612C22.7459 9.95704 22.412 9.72111 22.2666 9.57422L22.2404 9.58373C22.216 9.86904 22.6335 10.4255 23.0331 10.7393L23.0464 10.7123C22.6286 10.602 21.9685 10.246 21.6931 9.99831L21.6683 10.0145C21.7941 10.4026 22.2529 10.9554 22.6075 11.1448L22.6173 11.1161C22.1824 11.0428 21.6966 10.7441 21.2933 10.3538L21.2675 10.3661C21.2923 10.6939 21.595 11.0948 22.1169 11.402L22.129 11.374C21.5203 11.1957 21.2398 11.0479 21.0332 10.7122L21.0049 10.7207C21.018 11.2722 22.12 11.9083 23.0891 12.017L23.085 11.9875C22.7725 12.1155 22.4817 12.179 22.2588 12.133L22.2442 12.1582C22.4793 12.425 23.2491 12.46 24.0317 12.3441L24.0235 12.3148C23.8337 12.3961 23.6422 12.531 23.5423 12.6317C23.514 12.6602 23.5108 12.6884 23.5323 12.7109C23.5467 12.7259 23.5692 12.7365 23.6057 12.7486C23.6124 12.7508 23.6389 12.7592 23.645 12.7613C23.9177 12.8532 24.3041 12.8375 24.7571 12.748L24.744 12.7214C24.7344 12.73 24.7344 12.73 24.7251 12.7387C24.6638 12.7961 24.617 12.8568 24.5788 12.9234C24.564 12.9493 24.5509 12.9754 24.5375 13.0048C24.5298 13.0215 24.5076 13.0728 24.5077 13.0725C24.5056 13.0773 24.5056 13.0773 24.5035 13.082C24.4698 13.156 24.467 13.1642 24.476 13.1913C24.4878 13.2269 24.5318 13.2478 24.6206 13.2613C24.8347 13.2936 25.0218 13.2823 25.208 13.2141L25.1931 13.1878C25.071 13.2884 24.9768 13.4563 25.024 13.5327C25.0902 13.6395 25.4297 13.6722 25.8142 13.5672L25.7964 13.5455C25.6899 13.7604 26.0828 13.8938 26.552 13.706L26.5321 13.6859C26.4223 13.9569 26.7297 14.0724 27.2968 13.8733L27.2781 13.852C27.1981 14.0133 27.3221 14.1132 27.555 14.1145C27.7832 14.1157 28.0574 14.0246 28.2491 13.8708L28.2258 13.8521C28.1256 14.0587 28.1843 14.229 28.3594 14.2844C28.5357 14.3401 28.7852 14.266 29.0161 14.0727C28.9538 13.7827 28.9333 13.5935 28.9656 13.404C28.9528 13.379 28.9444 13.366 28.9357 13.3507C28.9325 13.3451 28.9192 13.3209 28.9157 13.3148C28.903 13.2931 28.8917 13.2798 28.8753 13.27C28.7847 13.215 28.5778 13.0084 28.5721 12.9677C28.5635 12.9065 28.5142 12.8222 28.4492 12.7696C28.3863 12.7188 28.3445 12.6345 28.3306 12.5359C28.3176 12.4451 28.2969 12.4137 28.195 12.3112C28.1013 12.2166 28.0697 12.0424 28.1299 11.8105C28.1037 11.7164 28.097 11.603 28.1052 11.4454L28.0986 11.4319Z" fill="black"/>
<path d="M31.2229 15.032C31.2584 15.0036 31.2472 14.9596 31.1896 14.9071C31.086 14.8121 31.052 14.7535 31.0015 14.6191C30.9869 14.5802 30.9778 14.5585 30.9655 14.5345C30.9439 14.4927 30.917 14.4561 30.8794 14.4198C30.7193 14.2653 30.5783 14.0302 30.5318 13.8355C30.4502 13.4955 30.3369 13.2249 30.1612 13.0684C30.0549 12.9738 30.0129 12.7084 30.0421 12.3637C30.0755 11.9658 30.0456 11.7414 29.8856 11.5789L29.8789 11.6045C30.2437 11.5013 30.5385 11.4936 30.637 11.5932C31.1423 11.472 31.5605 11.4176 32.2065 11.375C32.9338 11.3266 33.9326 11.0266 34.5883 10.583L34.5649 10.5665C34.5215 10.7418 34.2735 11.0181 34.038 11.1607L34.0495 11.1888C34.9556 10.9684 35.8202 10.5961 36.5214 10.0718L36.4969 10.0592C36.4895 10.3854 36.3048 10.6391 35.9684 10.9302L35.9858 10.9553C36.0385 10.9259 36.437 10.71 36.559 10.6411C37.092 10.3396 37.4162 10.0916 37.5744 9.81649L37.5463 9.8125C37.5828 9.96083 37.5292 10.133 37.3962 10.3266C37.277 10.5002 37.0998 10.6841 36.8674 10.8867C36.7439 10.9943 36.6649 11.0584 36.4381 11.2385L36.4542 11.2644C36.5029 11.2408 36.5554 11.2164 36.6183 11.1878C36.6638 11.1672 36.8237 11.0955 36.8293 11.093C37.3184 10.8727 37.5545 10.7312 37.6934 10.5326L37.6656 10.5236C37.6614 10.8672 37.2302 11.3374 36.6885 11.6526L36.7016 11.6803C36.7324 11.6685 36.7725 11.6533 36.8442 11.6262C36.9015 11.6044 36.9455 11.5876 36.9884 11.571C37.5211 11.3655 37.8312 11.2101 38.05 11.0087L38.0244 10.9988C38.0563 11.3354 36.7009 12.2211 35.8355 12.5056L35.8439 12.5351C36.8323 12.2931 37.3904 12.1253 37.6978 11.9391L37.675 11.9224C37.6674 11.9553 37.6313 11.9993 37.5706 12.0528C37.5461 12.0743 37.5181 12.097 37.4851 12.1223C37.462 12.1401 37.4438 12.1537 37.4032 12.1837C37.0284 12.4607 36.4621 12.6548 35.8466 12.7745C35.8898 13.0247 35.8124 13.1378 35.5724 13.155C35.2856 13.1758 34.6709 13.0611 34.3865 12.9174C34.3337 12.9409 34.2894 12.9518 34.2144 12.9601L34.2068 12.9877C34.4943 13.2052 34.6064 13.3704 34.5482 13.4616C34.5 13.5375 34.3316 13.5445 34.1193 13.5001L34.1017 13.5203C34.1595 13.6831 34.1061 13.7703 33.9644 13.7845C33.83 13.798 33.6324 13.7413 33.4507 13.6374L33.4311 13.6602C33.5823 13.8565 33.5789 13.9896 33.4055 14.0258C33.194 14.07 33.0431 14.0463 32.8647 13.9304L32.8412 13.9417C32.8278 14.0774 32.6977 14.1566 32.536 14.1142L32.5242 14.1422C33.0417 14.4568 33.1169 14.5912 32.9891 14.7628C32.8963 14.8879 32.5487 14.8738 32.3507 14.7453L32.3277 14.754C32.2514 15.0169 31.9422 15.0357 31.6934 14.8062L31.6678 14.8172C31.665 14.9615 31.4086 15.1174 31.2211 15.0068L31.2229 15.032V15.032Z" fill="black"/>
<path d="M31.2042 15.0076L31.206 15.0329C31.4141 15.1557 31.6955 14.9847 31.6988 14.8174L31.6731 14.8284C31.9365 15.0715 32.2737 15.051 32.3574 14.7622L32.3344 14.7708C32.5443 14.9069 32.9095 14.9218 33.014 14.7808C33.1561 14.59 33.0713 14.4382 32.5405 14.1156L32.5287 14.1436C32.7077 14.1905 32.8567 14.0998 32.872 13.9444L32.8485 13.9558C33.0339 14.0764 33.193 14.1013 33.4121 14.0555C33.6144 14.0133 33.6184 13.8524 33.4557 13.641L33.436 13.6638C33.6227 13.7706 33.8263 13.8289 33.9678 13.8147C34.1295 13.7985 34.1954 13.691 34.131 13.5096L34.1134 13.5298C34.3388 13.577 34.5161 13.5696 34.5744 13.4778C34.6454 13.3665 34.5255 13.1897 34.2257 12.9628L34.2181 12.9903C34.2972 12.9815 34.3451 12.9698 34.3879 12.944C34.6626 13.0908 35.2829 13.2064 35.575 13.1853C35.8342 13.1667 35.9243 13.0352 35.8648 12.7857C36.4724 12.6838 37.0423 12.4885 37.4217 12.208C37.4625 12.178 37.4808 12.1643 37.5041 12.1464C37.5376 12.1207 37.5661 12.0976 37.5911 12.0755C37.6565 12.018 37.6957 11.9702 37.7052 11.9291L37.6824 11.9124C37.3789 12.0963 36.8215 12.2638 35.837 12.5049L35.8454 12.5345C36.7254 12.2451 38.0892 11.354 38.0553 10.9956L38.0297 10.9857C37.8147 11.1836 37.507 11.3378 36.9778 11.542C36.935 11.5585 36.8911 11.5753 36.8337 11.5971C36.7621 11.6242 36.722 11.6394 36.6911 11.6512L36.7042 11.6788C37.2544 11.3587 37.6923 10.8813 37.6966 10.5236L37.6687 10.5146C37.5343 10.7068 37.3008 10.8467 36.8171 11.0646C36.8116 11.0671 36.6516 11.1388 36.606 11.1595C36.543 11.1881 36.4903 11.2127 36.4413 11.2363L36.4575 11.2622C36.6847 11.0818 36.7639 11.0175 36.8878 10.9095C37.122 10.7054 37.3008 10.5199 37.4218 10.3437C37.5593 10.1435 37.6154 9.96326 37.5764 9.80477L37.5483 9.80078C37.3937 10.0696 37.0728 10.3152 36.5443 10.614C36.4227 10.6827 36.0243 10.8985 35.9713 10.9281L35.9887 10.9531C36.3314 10.6567 36.5202 10.3972 36.5279 10.0595L36.5035 10.0468C35.806 10.5684 34.9451 10.939 34.0426 11.1586L34.0542 11.1867C34.296 11.0402 34.5493 10.758 34.595 10.5736L34.5716 10.5571C33.9208 10.9975 32.9271 11.2959 32.2048 11.344C31.5572 11.3867 31.1373 11.4413 30.6445 11.5671C30.5496 11.4605 30.2463 11.4684 29.871 11.5746L29.8643 11.6001C30.0157 11.7539 30.0446 11.9715 30.012 12.3608C29.9821 12.7147 30.0253 12.9877 30.1412 13.091C30.3108 13.242 30.4222 13.5082 30.5024 13.8423C30.5504 14.043 30.6944 14.2832 30.8586 14.4416C30.8938 14.4755 30.9186 14.5094 30.9387 14.5483C30.9503 14.5709 30.959 14.5918 30.9732 14.6296C31.0253 14.7681 31.0616 14.8306 31.1694 14.9295C31.215 14.9711 31.2209 14.9943 31.2042 15.0076V15.0076Z" fill="black"/>
<path d="M24.6426 10.7045C24.743 10.8509 25.0113 11.0675 25.1712 11.11L25.1844 11.083L24.6645 10.6836L24.6426 10.7045V10.7045Z" fill="black"/>
<path d="M24.6674 10.6875L24.6455 10.7084L25.1654 11.1078L25.1786 11.0807C25.0266 11.0404 24.764 10.8283 24.6674 10.6875V10.6875Z" fill="black"/>
<path d="M25.155 11.0247C25.1428 11.2611 25.2907 11.5006 25.5663 11.5837C25.8391 11.6659 26.1061 11.6621 26.316 11.5974L26.3182 11.5689L25.177 11.0117L25.155 11.0247V11.0247Z" fill="black"/>
<path d="M25.186 11.0273L25.1641 11.0404L26.3053 11.5975L26.3075 11.569C26.1033 11.632 25.8425 11.6357 25.5756 11.5553C25.3143 11.4765 25.1746 11.2503 25.186 11.0273V11.0273Z" fill="black"/>
<path d="M26.3023 11.5664C26.0028 11.6346 25.6758 11.8129 25.594 11.9641C25.5131 12.1141 25.5546 12.1877 25.7138 12.2322C26.1429 12.353 26.6535 12.2395 27.038 11.9608L27.036 11.9346L26.3126 11.5677L26.3023 11.5664Z" fill="black"/>
<path d="M26.2985 11.5977L27.022 11.9646L27.0199 11.9384C26.6426 12.2119 26.1414 12.3233 25.7218 12.2052C25.5801 12.1656 25.55 12.1123 25.6207 11.9813C25.6972 11.8397 26.0172 11.6653 26.3088 11.5989L26.2985 11.5977Z" fill="black"/>
<path d="M26.2805 11.5179C26.2687 11.7617 26.7516 11.9387 27.3496 11.8423L27.3514 11.8124L26.3001 11.5039L26.2805 11.5179Z" fill="black"/>
<path d="M26.291 11.5335L27.3424 11.842L27.3442 11.8121C26.7627 11.9059 26.3001 11.7363 26.3106 11.5195L26.291 11.5335Z" fill="black"/>
<path d="M26.7281 11.8203C26.496 11.9456 26.3387 12.0044 26.0615 12.0396L26.068 12.0705L26.7398 11.8495L26.7281 11.8203V11.8203Z" fill="black"/>
<path d="M26.742 11.8495L26.7303 11.8203L26.0586 12.0413L26.0651 12.0722C26.3464 12.0365 26.507 11.9764 26.742 11.8495V11.8495Z" fill="black"/>
<path d="M27.0054 11.8465C26.9285 12.0959 27.467 12.2231 28.0865 12.0702L28.0857 12.0402L27.0229 11.8359L27.0054 11.8465Z" fill="black"/>
<path d="M27.0176 11.8662L28.0804 12.0734L28.0797 12.043C27.4802 12.1932 26.9697 12.0708 27.0351 11.8555L27.0176 11.8662Z" fill="black"/>
<path d="M27.2886 12.0859C27.0596 12.2198 26.7756 12.3532 26.5234 12.4328L26.5343 12.4615L27.3026 12.1132L27.2886 12.0859V12.0859Z" fill="black"/>
<path d="M27.3037 12.1132L27.2897 12.0859L26.5215 12.4342L26.5324 12.4629C26.787 12.3825 27.073 12.2481 27.3037 12.1132V12.1132Z" fill="black"/>
<path d="M26.1566 12.2551C26.0575 12.4013 26.105 12.6593 26.3284 12.6876C26.7996 12.7472 27.5231 12.4478 27.8504 12.112L27.838 12.0859L26.1677 12.2484L26.1566 12.2551Z" fill="black"/>
<path d="M26.1702 12.2822L27.8404 12.1198L27.828 12.0938C27.5071 12.4231 26.7927 12.7187 26.3318 12.6604C26.1358 12.6356 26.0934 12.4055 26.1814 12.2756L26.1702 12.2822Z" fill="black"/>
<path d="M26.791 12.6186C26.6452 12.8662 26.7374 13.1087 27.0232 13.1431C27.3464 13.182 27.8582 12.9045 28.2789 12.4277L28.2652 12.4023L26.802 12.6113L26.791 12.6186Z" fill="black"/>
<path d="M26.8061 12.6445L28.2693 12.4355L28.2557 12.4102C27.841 12.8802 27.3381 13.1529 27.0266 13.1154C26.7644 13.0838 26.6819 12.8667 26.8171 12.6371L26.8061 12.6445Z" fill="black"/>
<path d="M28.1004 12.1914C28.052 12.2219 28.0011 12.2551 27.9373 12.2976C27.9063 12.3183 27.7934 12.3941 27.7701 12.4097C27.48 12.6035 27.2981 12.7086 27.1025 12.7821L27.1157 12.8097L28.1163 12.2177L28.1004 12.1914V12.1914Z" fill="black"/>
<path d="M28.1162 12.2177L28.1003 12.1914L27.0996 12.7835L27.1127 12.8111C27.3111 12.7366 27.4946 12.6305 27.7865 12.4355C27.8099 12.4198 27.9227 12.344 27.9538 12.3234C28.0173 12.281 28.068 12.2479 28.1162 12.2177V12.2177Z" fill="black"/>
<path d="M27.4681 13.0146C27.3423 13.1939 27.3211 13.2944 27.3995 13.3952C27.473 13.4894 27.5852 13.4601 27.8535 13.3154C27.9269 13.276 28.0132 13.22 28.1122 13.1491C28.1467 13.1244 28.1825 13.098 28.2199 13.0698C28.2686 13.033 28.3184 12.9945 28.375 12.9499C28.4063 12.9254 28.4991 12.8517 28.5045 12.8475L28.4922 12.8203L27.4778 13.0083L27.4681 13.0146Z" fill="black"/>
<path d="M27.4828 13.0394L28.4971 12.8514L28.4849 12.8242C28.4795 12.8285 28.3867 12.9021 28.3555 12.9266C28.299 12.9711 28.2494 13.0095 28.2008 13.0461C28.1636 13.0741 28.128 13.1004 28.0938 13.1249C27.9958 13.1952 27.9104 13.2505 27.8384 13.2892C27.5853 13.4257 27.4819 13.4527 27.423 13.3771C27.3552 13.29 27.3735 13.2027 27.4925 13.0332L27.4828 13.0394Z" fill="black"/>
<path d="M28.3487 12.6484C28.1541 12.7794 27.7518 13.0832 27.6562 13.1795L27.6764 13.2026L28.3665 12.6734L28.3487 12.6484V12.6484Z" fill="black"/>
<path d="M28.3652 12.6773L28.3474 12.6523L27.6572 13.1815L27.6774 13.2045C27.7711 13.1101 28.1722 12.8072 28.3652 12.6773V12.6773Z" fill="black"/>
<path d="M28.2119 13.0321C28.1289 13.2505 28.1935 13.3945 28.3588 13.4557C28.5475 13.5262 28.738 13.5046 28.9062 13.341L28.9016 13.3159L28.2323 13.0234L28.2119 13.0321Z" fill="black"/>
<path d="M28.2199 13.0516L28.8892 13.3441L28.8847 13.3189C28.7259 13.4734 28.5478 13.4936 28.3693 13.4269C28.22 13.3716 28.1634 13.2455 28.2403 13.043L28.2199 13.0516Z" fill="black"/>
<path d="M27.2927 13.8659C27.542 13.7701 28.0092 13.476 28.2148 13.3063L28.1972 13.2812L27.2793 13.8384L27.2927 13.8659V13.8659Z" fill="black"/>
<path d="M27.2812 13.8398L27.2946 13.8673L28.2125 13.3102L28.1949 13.2852C27.9916 13.453 27.5272 13.7453 27.2812 13.8398V13.8398Z" fill="black"/>
<path d="M28.3392 13.4258C28.2113 13.5549 27.9302 13.7378 27.6885 13.8403L27.7026 13.8674L28.3582 13.4496L28.3392 13.4258V13.4258Z" fill="black"/>
<path d="M28.3602 13.4457L28.3411 13.4219L27.6855 13.8397L27.6997 13.8668C27.9449 13.7628 28.2294 13.5778 28.3602 13.4457V13.4457Z" fill="black"/>
<path d="M28.2474 13.8739C28.5115 13.717 28.8249 13.4852 28.9278 13.362L28.9069 13.3398L28.2305 13.8484L28.2474 13.8739V13.8739Z" fill="black"/>
<path d="M28.2314 13.8489L28.2484 13.8744L28.9248 13.3659L28.9039 13.3438C28.8038 13.4636 28.4927 13.6937 28.2314 13.8489V13.8489Z" fill="black"/>
<path d="M28.9172 13.5742C28.854 13.6591 28.695 13.8471 28.5938 13.9561L28.6166 13.9765L28.9411 13.5934L28.9172 13.5742V13.5742Z" fill="black"/>
<path d="M28.9422 13.5895L28.9182 13.5703L28.5938 13.9535L28.6166 13.9739C28.7185 13.8641 28.8783 13.6753 28.9422 13.5895V13.5895Z" fill="black"/>
<path d="M27.6459 13.3789C27.4155 13.4988 27.1335 13.6303 26.9297 13.7125L26.9418 13.7407L27.6594 13.4065L27.6459 13.3789V13.3789Z" fill="black"/>
<path d="M27.6597 13.4065L27.6463 13.3789L26.9287 13.7132L26.9409 13.7413C27.1456 13.6587 27.4285 13.5268 27.6597 13.4065V13.4065Z" fill="black"/>
<path d="M26.5402 13.7C26.6899 13.6477 27.1315 13.4214 27.3778 13.281L27.3634 13.2539L26.5283 13.6717L26.5402 13.7V13.7Z" fill="black"/>
<path d="M26.5303 13.6706L26.5421 13.6988L27.3772 13.281L27.3629 13.2539C27.1181 13.3934 26.6776 13.6191 26.5303 13.6706V13.6706Z" fill="black"/>
<path d="M26.2548 13.5532C26.4343 13.515 26.6058 13.4447 26.7905 13.343C26.8684 13.3001 27.0975 13.1606 27.1352 13.1408L27.1216 13.1133L26.2451 13.5242L26.2548 13.5532V13.5532Z" fill="black"/>
<path d="M26.249 13.5267L26.2587 13.5557L27.1352 13.1447L27.1216 13.1172C27.0829 13.1375 26.8534 13.2773 26.7764 13.3197C26.5941 13.4201 26.4252 13.4893 26.249 13.5267V13.5267Z" fill="black"/>
<path d="M25.8137 13.5605C25.9211 13.5379 26.0491 13.4893 26.1945 13.4188C26.2742 13.3801 26.3578 13.3354 26.4449 13.2855C26.5725 13.2125 26.6722 13.1501 26.8264 13.0501L26.8112 13.0234L25.8037 13.5317L25.8137 13.5605V13.5605Z" fill="black"/>
<path d="M25.8066 13.5335L25.8166 13.5622L26.8242 13.054L26.809 13.0273C26.6552 13.1271 26.5559 13.1892 26.429 13.2619C26.3424 13.3115 26.2594 13.3559 26.1803 13.3942C26.037 13.4638 25.9111 13.5115 25.8066 13.5335V13.5335Z" fill="black"/>
<path d="M26.7271 12.8086C26.2732 13.0811 25.9757 13.2312 25.6475 13.3154L25.6577 13.3442L26.7414 12.8357L26.7271 12.8086V12.8086Z" fill="black"/>
<path d="M26.7425 12.8357L26.7282 12.8086L25.6445 13.3171L25.6548 13.3459C25.9868 13.2607 26.2862 13.1097 26.7425 12.8357V12.8357Z" fill="black"/>
<path d="M25.2062 13.2146C25.4754 13.1448 26.014 12.9085 26.4177 12.6838L26.4041 12.6562L25.1963 13.1857L25.2062 13.2146V13.2146Z" fill="black"/>
<path d="M25.1992 13.1842L25.2092 13.2132L26.417 12.6838L26.4035 12.6562C26.0019 12.8798 25.4655 13.1152 25.1992 13.1842V13.1842Z" fill="black"/>
<path d="M26.1349 12.5234C25.8647 12.6438 25.3729 12.8161 24.998 12.9265L25.0075 12.9558L26.1462 12.552L26.1349 12.5234V12.5234Z" fill="black"/>
<path d="M26.1481 12.552L26.1368 12.5234L24.998 12.9272L25.0075 12.9565C25.3835 12.8457 25.8765 12.673 26.1481 12.552V12.552Z" fill="black"/>
<path d="M24.7563 12.7481C25.0811 12.7003 25.5376 12.4879 25.8736 12.2652L25.8591 12.2383L24.748 12.7188L24.7563 12.7481V12.7481Z" fill="black"/>
<path d="M24.752 12.7164L24.7602 12.7457L25.8713 12.2652L25.8568 12.2383C25.5242 12.4587 25.0714 12.6694 24.752 12.7164V12.7164Z" fill="black"/>
<path d="M23.0264 10.7295C23.1972 10.8706 23.4643 10.9541 23.8341 11.0181L23.8418 10.9885L23.0412 10.7031L23.0264 10.7295V10.7295Z" fill="black"/>
<path d="M23.0451 10.707L23.0303 10.7334L23.8308 11.0187L23.8386 10.9891C23.4739 10.926 23.2105 10.8437 23.0451 10.707V10.707Z" fill="black"/>
<path d="M22.7031 10.1147C23.1107 10.5019 23.5987 10.7775 24.106 10.8384L24.1149 10.8095L22.7206 10.0898L22.7031 10.1147V10.1147Z" fill="black"/>
<path d="M22.7236 10.0898L22.7061 10.1147L24.1003 10.8343L24.1091 10.8054C23.6092 10.7454 23.1268 10.473 22.7236 10.0898V10.0898Z" fill="black"/>
<path d="M23.841 10.7617C23.7991 10.8374 23.7923 10.9493 23.8387 11.0306C23.9 11.1377 24.0408 11.1858 24.2659 11.1558L24.2741 11.1292L23.8646 10.7578L23.841 10.7617Z" fill="black"/>
<path d="M23.8447 10.7813L24.2542 11.1526L24.2624 11.126C24.0485 11.1546 23.92 11.1106 23.8659 11.0159C23.8252 10.9448 23.8313 10.8442 23.8684 10.7773L23.8447 10.7813Z" fill="black"/>
<path d="M24.0159 11.1366C23.897 11.3912 24.1696 11.5823 24.6876 11.4228L24.6889 11.3939L24.0355 11.1289L24.0159 11.1366Z" fill="black"/>
<path d="M24.0241 11.1562L24.6774 11.4211L24.6787 11.3922C24.1825 11.5449 23.9384 11.3739 24.0437 11.1484L24.0241 11.1562Z" fill="black"/>
<path d="M24.5488 11.2022C24.6426 11.5532 25.0932 11.6737 25.3554 11.4611L25.3505 11.4345L24.5683 11.1836L24.5488 11.2022V11.2022Z" fill="black"/>
<path d="M24.578 11.1953L24.5586 11.2139L25.3408 11.4649L25.3358 11.4383C25.0902 11.6375 24.6658 11.5239 24.578 11.1953V11.1953Z" fill="black"/>
<path d="M24.0119 11.2562C23.6272 11.1821 23.3845 11.1576 23.2851 11.2014C23.1513 11.2608 23.1365 11.386 23.2751 11.4926C23.6711 11.7966 25.2527 11.8969 25.8828 11.7599L25.8833 11.73L24.0128 11.2564L24.0119 11.2562Z" fill="black"/>
<path d="M24.0051 11.2828L25.8756 11.7564L25.8761 11.7265C25.2539 11.8618 23.6805 11.762 23.2935 11.4649C23.1733 11.3725 23.1847 11.2761 23.2972 11.2262C23.3879 11.1862 23.63 11.2106 24.0059 11.283L24.0051 11.2828Z" fill="black"/>
<path d="M23.3962 11.5355C23.1986 11.6018 23.2476 11.8012 23.5127 11.9055C23.8996 12.0577 25.027 12.1612 25.5698 12.1085L25.5721 12.0783L23.4047 11.5352L23.3962 11.5355Z" fill="black"/>
<path d="M23.3974 11.5628L25.5647 12.106L25.567 12.0758C25.0285 12.1281 23.9058 12.025 23.524 11.8748C23.2814 11.7793 23.2416 11.6176 23.4059 11.5625L23.3974 11.5628Z" fill="black"/>
<path d="M23.3695 11.8013C23.2796 11.892 23.3041 12.0118 23.4118 12.1089C23.7839 12.4457 24.705 12.4378 25.5736 12.1328L25.5706 12.1031L23.3825 11.7969L23.3695 11.8013Z" fill="black"/>
<path d="M23.3786 11.8286L25.5668 12.1348L25.5638 12.1051C24.7048 12.4067 23.7942 12.4145 23.4326 12.0873C23.3366 12.0007 23.3161 11.9004 23.3916 11.8242L23.3786 11.8286Z" fill="black"/>
<path d="M23.097 12.0192C23.1636 11.9913 23.2716 11.9738 23.3345 11.9807L23.3338 11.9492L23.0889 11.9888L23.097 12.0192V12.0192Z" fill="black"/>
<path d="M23.085 11.9876L23.0931 12.018L23.338 11.9784L23.3372 11.947C23.2691 11.9396 23.1562 11.9578 23.085 11.9876V11.9876Z" fill="black"/>
<path d="M22.1162 11.4028C22.4145 11.5926 22.7882 11.6935 23.3032 11.7393L23.3087 11.7093L22.1286 11.375L22.1162 11.4028V11.4028Z" fill="black"/>
<path d="M22.1325 11.375L22.1201 11.4028L23.3003 11.737L23.3058 11.7069C22.7952 11.6615 22.426 11.5618 22.1325 11.375V11.375Z" fill="black"/>
<path d="M22.6104 11.1477C22.6868 11.1704 22.9138 11.2342 22.8945 11.2287C22.9267 11.2379 22.9547 11.2462 22.9815 11.2545C23.0537 11.2767 23.1188 11.2994 23.1888 11.327L23.1986 11.297L22.619 11.1172L22.6104 11.1477V11.1477Z" fill="black"/>
<path d="M22.619 11.1172L22.6104 11.1477L23.19 11.3275L23.1999 11.2974C23.1292 11.2695 23.0633 11.2465 22.9904 11.2241C22.9634 11.2158 22.9352 11.2074 22.9028 11.1982C22.9219 11.2036 22.6952 11.1399 22.619 11.1172V11.1172Z" fill="black"/>
<path d="M34.0407 11.1681C34.0556 11.1628 33.6225 11.3196 33.4706 11.3727C33.4256 11.3885 33.3821 11.4035 33.3399 11.4178C33.0359 11.5215 32.8071 11.5889 32.6631 11.613L32.6703 11.6428L34.0505 11.1972L34.0407 11.1681V11.1681Z" fill="black"/>
<path d="M34.0512 11.1971L34.0414 11.168L32.6611 11.6136L32.6683 11.6433C32.8145 11.6188 33.0444 11.5511 33.35 11.4469C33.3922 11.4326 33.4358 11.4175 33.4809 11.4017C33.633 11.3485 34.0662 11.1917 34.0512 11.1971V11.1971Z" fill="black"/>
<path d="M30.0195 12.238C30.3344 12.4105 30.7017 12.3808 30.7461 12.0877L30.728 12.0703L30.0239 12.2094L30.0195 12.238V12.238Z" fill="black"/>
<path d="M30.0347 12.2142L30.0303 12.2437L30.7344 12.1L30.7163 12.082C30.6763 12.355 30.3338 12.3837 30.0347 12.2142V12.2142Z" fill="black"/>
<path d="M30.6953 12.1901C30.9743 12.3543 31.4705 12.2292 31.4567 11.9531L30.6986 12.1621L30.6953 12.1901V12.1901Z" fill="black"/>
<path d="M30.7113 12.1598L30.708 12.1878L31.4464 11.9648C31.439 12.1961 30.9726 12.3137 30.7113 12.1598V12.1598Z" fill="black"/>
<path d="M31.4023 12.0781C31.7387 12.2066 32.0571 12.1378 32.113 11.8298L32.093 11.8125L31.4028 12.0492L31.4023 12.0781V12.0781Z" fill="black"/>
<path d="M31.4126 12.0493L31.4121 12.0782L32.1022 11.8415L32.0822 11.8242C32.0308 12.1078 31.7337 12.1719 31.4126 12.0493V12.0493Z" fill="black"/>
<path d="M32.0186 12.0082C32.3597 12.0728 32.7584 11.7855 32.6636 11.5352L32.635 11.5461C32.7195 11.7691 32.3452 12.0388 32.0242 11.978L32.0186 12.0082V12.0082Z" fill="black"/>
<path d="M30.6508 11.5664C30.5225 11.6029 30.4505 11.6398 30.3154 11.7267L30.3316 11.7537C30.4644 11.6682 30.534 11.6325 30.6589 11.597L30.6508 11.5664V11.5664Z" fill="black"/>
<path d="M32.5059 11.8778C32.8625 11.9499 33.2986 12.1012 33.4467 12.2274C33.5378 12.3047 33.5858 12.3735 33.5829 12.426C33.5798 12.4836 33.5132 12.528 33.3712 12.5532C33.099 12.6018 32.9768 12.5944 32.6129 12.5255L32.6072 12.5557C32.9745 12.6252 33.1 12.6328 33.3765 12.5835C33.5309 12.5561 33.6093 12.5038 33.6135 12.4277C33.617 12.3625 33.5644 12.287 33.4665 12.2039C33.3132 12.0733 32.8734 11.9207 32.5119 11.8477L32.5059 11.8778V11.8778Z" fill="black"/>
<path d="M32.6922 11.918C33.0214 11.7243 33.5695 11.6353 33.9303 11.7177C34.0927 11.7548 34.177 11.8168 34.1939 11.8932C34.2075 11.9545 34.1758 12.0254 34.1164 12.0815C34.0039 12.188 33.7467 12.2498 33.4866 12.2237L33.4835 12.2542C33.7517 12.2812 34.0176 12.2173 34.1374 12.1039C34.2039 12.0411 34.2401 11.9601 34.2238 11.8865C34.2038 11.7964 34.1099 11.7272 33.9371 11.6877C33.5687 11.6035 33.0126 11.6939 32.6768 11.8915L32.6922 11.918V11.918Z" fill="black"/>
<path d="M33.0178 12.0202C33.2565 11.9786 33.6951 11.9341 33.9123 11.9341V11.9023C33.6932 11.9023 33.2529 11.947 33.0127 11.9889L33.0178 12.0202V12.0202Z" fill="black"/>
<path d="M35.9728 10.9297C35.7013 11.1968 34.8406 11.555 34.082 11.7336L34.089 11.7635C34.8526 11.5837 35.7177 11.2238 35.9942 10.9516L35.9728 10.9297V10.9297Z" fill="black"/>
<path d="M34.5997 11.6196C34.7025 11.6456 34.7348 11.7219 34.7081 11.8322C34.6861 11.9234 34.6223 12.0278 34.5661 12.0735C34.2685 12.3151 33.979 12.445 33.5596 12.488L33.5627 12.5186C33.9883 12.4749 34.2834 12.3426 34.5854 12.0974C34.6469 12.0473 34.7143 11.937 34.7379 11.8394C34.7681 11.7143 34.7284 11.6204 34.6071 11.5898L34.5997 11.6196V11.6196Z" fill="black"/>
<path d="M33.6309 12.5091C33.9127 12.6313 34.3767 12.6592 34.5632 12.5359C34.7613 12.405 34.7567 12.1888 34.5768 12.0781L34.5608 12.1043C34.7217 12.2032 34.7257 12.3917 34.5464 12.5102C34.3702 12.6267 33.9163 12.5995 33.643 12.4809L33.6309 12.5091V12.5091Z" fill="black"/>
<path d="M34.2261 12.9661C34.0745 12.8357 33.4574 12.6763 32.8318 12.5586L32.8262 12.5888C33.4429 12.7048 34.0609 12.8645 34.2061 12.9894L34.2261 12.9661V12.9661Z" fill="black"/>
<path d="M34.3843 12.9459C34.5199 12.9024 34.6325 12.6783 34.5469 12.5312L34.5205 12.5467C34.5954 12.6754 34.4932 12.8787 34.375 12.9166L34.3843 12.9459V12.9459Z" fill="black"/>
<path d="M30.873 12.2499C31.2059 12.5482 31.8585 12.8831 32.2546 12.9433C32.4668 12.9754 32.6524 12.9709 32.7601 12.9292C32.8843 12.8813 32.9007 12.7863 32.7928 12.6669C32.6136 12.4688 32.1847 12.2598 31.7373 12.1055L31.7273 12.1345C32.1698 12.2872 32.5957 12.4946 32.7701 12.6875C32.8642 12.7916 32.8523 12.8607 32.7491 12.9006C32.6474 12.9399 32.4666 12.9443 32.2592 12.9129C31.8694 12.8537 31.2221 12.5215 30.8934 12.227L30.873 12.2499V12.2499Z" fill="black"/>
<path d="M34.1194 13.5025C33.753 13.4172 33.3922 13.2275 32.823 12.8672L32.8066 12.8932C33.3788 13.2554 33.7415 13.4461 34.1125 13.5324L34.1194 13.5025V13.5025Z" fill="black"/>
<path d="M32.8164 12.7395C32.8879 12.7677 32.9732 12.8031 33.0872 12.8519C33.1492 12.8784 33.374 12.9754 33.4027 12.9877C33.4335 13.0009 33.4335 13.0009 33.4644 13.0141C33.8177 13.1651 34.0394 13.2512 34.1916 13.2904L34.1992 13.2607C34.0491 13.222 33.8281 13.1362 33.4764 12.9858C33.4455 12.9727 33.4455 12.9727 33.4147 12.9594C33.3861 12.9471 33.1612 12.8501 33.0992 12.8236C32.9849 12.7748 32.8994 12.7392 32.8276 12.7109L32.8164 12.7395V12.7395Z" fill="black"/>
<path d="M33.4497 13.6383C33.1598 13.4998 32.664 13.1744 32.3972 12.9375L32.377 12.9605C32.6459 13.1994 33.1441 13.5263 33.4365 13.666L33.4497 13.6383V13.6383Z" fill="black"/>
<path d="M32.6396 12.9535C32.7221 13.0212 32.8779 13.1167 33.1028 13.2416C33.1315 13.2575 33.1612 13.2739 33.1923 13.2909C33.3008 13.3501 33.6276 13.5242 33.6567 13.54L33.6712 13.513C33.642 13.4971 33.3153 13.323 33.207 13.2639C33.1759 13.247 33.1462 13.2306 33.1176 13.2147C32.8943 13.0908 32.7395 12.9958 32.659 12.9297L32.6396 12.9535V12.9535Z" fill="black"/>
<path d="M31.248 12.2025C31.6005 12.4025 32.0742 12.6273 32.4031 12.7468L32.4135 12.7179C32.0864 12.599 31.6141 12.375 31.2631 12.1758L31.248 12.2025V12.2025Z" fill="black"/>
<path d="M31.834 12.1126C32.0553 12.1319 32.2749 12.1663 32.5292 12.2187C32.6314 12.2398 32.7369 12.2633 32.8722 12.2946C32.9187 12.3053 33.157 12.3611 33.2258 12.377L33.2327 12.3471C33.1639 12.3312 32.9256 12.2754 32.8791 12.2646C32.7436 12.2333 32.6378 12.2098 32.5354 12.1886C32.28 12.1359 32.0593 12.1014 31.8366 12.082L31.834 12.1126V12.1126Z" fill="black"/>
<path d="M30.4756 13.7332C30.5501 13.884 30.6618 14.0058 30.8084 14.0612C30.9705 14.1226 31.1037 13.9999 31.1119 13.8246C31.1181 13.6929 31.1075 13.6081 31.0816 13.5391L31.0529 13.5499C31.0772 13.6147 31.0874 13.6954 31.0814 13.8232C31.074 13.9797 30.9592 14.0855 30.8192 14.0325C30.6809 13.9802 30.5744 13.864 30.503 13.7195L30.4756 13.7332V13.7332Z" fill="black"/>
<path d="M30.1846 12.2965C30.2328 12.7124 30.5899 13.2983 30.9029 13.485C31.1701 13.6442 31.4436 13.6285 31.5307 13.5014C31.6286 13.3585 31.5344 13.0997 31.2354 12.936C30.9882 12.8004 30.666 12.5156 30.5161 12.3067L30.4913 12.3246C30.6438 12.5373 30.9695 12.8252 31.2208 12.963C31.5051 13.1187 31.5921 13.3576 31.5055 13.4839C31.4289 13.5957 31.1733 13.6103 30.9185 13.4586C30.614 13.2769 30.2622 12.6996 30.215 12.293L30.1846 12.2965V12.2965Z" fill="black"/>
<path d="M30.3369 12.3261C30.3991 12.5139 30.8396 13.0669 31.0474 13.1979L31.0637 13.1719C30.8619 13.0446 30.4259 12.4973 30.366 12.3164L30.3369 12.3261V12.3261Z" fill="black"/>
<path d="M30.001 12.5538C30.229 12.8536 30.655 13.4896 30.7236 13.6575L30.752 13.6459C30.6819 13.4746 30.2551 12.8371 30.0253 12.5352L30.001 12.5538V12.5538Z" fill="black"/>
<path d="M30.6162 12.282C30.7584 12.4438 31.2241 12.7994 31.4363 12.8851L31.4477 12.8566C31.2403 12.7728 30.7784 12.4201 30.6392 12.2617L30.6162 12.282V12.282Z" fill="black"/>
<path d="M31.4424 13.1213C31.5575 13.1763 31.6464 13.1972 31.7654 13.2064C31.8728 13.2149 31.9274 13.1485 31.8917 13.0334C31.859 12.928 31.7866 12.8134 31.7084 12.7344L31.6867 12.756C31.7616 12.8317 31.8313 12.9421 31.8624 13.0425C31.8916 13.1366 31.8539 13.1826 31.7678 13.1757C31.6522 13.1669 31.5669 13.1468 31.4555 13.0936L31.4424 13.1213V13.1213Z" fill="black"/>
<path d="M31.4941 13.5097C31.6559 13.7435 32.232 14.0865 32.5253 14.1428L32.5311 14.1126C32.2452 14.0578 31.6762 13.719 31.5193 13.4922L31.4941 13.5097V13.5097Z" fill="black"/>
<path d="M32.8655 13.9344C32.6468 13.8261 32.0833 13.3645 31.8807 13.1484L31.8584 13.1695C32.0633 13.388 32.6295 13.8518 32.8519 13.9619L32.8655 13.9344V13.9344Z" fill="black"/>
<path d="M32.3501 14.7445C32.133 14.6213 31.3722 13.9138 31.0949 13.5781L31.0713 13.5977C31.3508 13.936 32.1141 14.6458 32.335 14.7712L32.3501 14.7445V14.7445Z" fill="black"/>
<path d="M31.6929 14.8071C31.6213 14.7511 31.5284 14.6562 31.4192 14.5301C31.3896 14.496 31.3591 14.4598 31.3277 14.4219C31.2203 14.2919 31.1335 14.1798 31.0127 14.0195L30.9883 14.0381C31.1093 14.1987 31.1963 14.3111 31.3042 14.4415C31.3357 14.4796 31.3664 14.516 31.3961 14.5503C31.5065 14.6777 31.6005 14.7738 31.6741 14.8313L31.6929 14.8071V14.8071Z" fill="black"/>
<path d="M31.4385 13.1321C31.6178 13.2959 32.0151 13.5904 32.3787 13.8436L32.3962 13.8184C32.0338 13.566 31.637 13.2719 31.4591 13.1094L31.4385 13.1321V13.1321Z" fill="black"/>
<path d="M30.9102 14.0601C30.9975 14.244 31.0457 14.3793 31.0398 14.4276C31.0311 14.4985 31.0127 14.5201 30.948 14.505L30.9411 14.5349C31.0278 14.5551 31.0596 14.5179 31.0702 14.4314C31.0772 14.3745 31.0282 14.2373 30.9378 14.0469L30.9102 14.0601V14.0601Z" fill="black"/>
<path d="M36.4409 11.2344C36.3305 11.291 36.2349 11.3432 36.0578 11.4421C36.0374 11.4535 36.0374 11.4535 36.0171 11.4648C35.3961 11.8117 35.0752 11.955 34.5859 12.0596L34.5923 12.0896C35.0853 11.9843 35.4085 11.8399 36.032 11.4917C36.0523 11.4803 36.0523 11.4803 36.0726 11.469C36.2494 11.3702 36.3448 11.3182 36.4549 11.2617L36.4409 11.2344V11.2344Z" fill="black"/>
<path d="M34.7323 11.7838C35.4092 11.5333 35.784 11.3738 36.2353 11.1128C36.4669 10.9788 36.6821 10.8341 36.8806 10.6764L36.8616 10.6523C36.6643 10.8091 36.4504 10.9529 36.22 11.0862C35.7707 11.3461 35.3971 11.5051 34.7217 11.755L34.7323 11.7838V11.7838Z" fill="black"/>
<path d="M34.6939 12.3037C35.6324 12.0696 36.4456 11.7189 36.9912 11.2698L36.9718 11.2461C36.4303 11.6918 35.621 12.0408 34.6865 12.2738L34.6939 12.3037V12.3037Z" fill="black"/>
<path d="M36.6906 11.6523C36.645 11.6707 36.5987 11.6921 36.5494 11.7171C36.4817 11.7515 36.1031 11.9707 35.9699 12.0375C35.5976 12.2242 35.1892 12.3524 34.6328 12.4315L34.6371 12.4619C35.1968 12.3824 35.6083 12.2532 35.9836 12.065C36.1179 11.9977 36.4965 11.7784 36.5632 11.7445C36.6118 11.7198 36.6573 11.6989 36.702 11.6808L36.6906 11.6523V11.6523Z" fill="black"/>
<path d="M35.8315 12.5039C35.5581 12.6348 35.0105 12.6677 34.5624 12.6249L34.5596 12.6565C35.0127 12.6997 35.5646 12.6666 35.8443 12.5327L35.8315 12.5039V12.5039Z" fill="black"/>
<path d="M35.8418 12.7722C35.5139 12.8444 34.8281 12.8296 34.5374 12.7578L34.5303 12.7887C34.8254 12.8616 35.5157 12.8765 35.8482 12.8033L35.8418 12.7722V12.7722Z" fill="black"/>
<path d="M28.1295 11.0516C28.1757 11.027 28.1987 11.0201 28.2505 11.0102C28.2634 11.0078 28.2713 11.006 28.2797 11.0036C28.3124 10.9941 28.3407 10.9758 28.3782 10.9374C28.6293 10.6806 29.0376 10.3932 29.2634 10.3036C29.5676 10.1828 29.5087 10.2051 29.5765 10.1908C29.6186 10.1819 29.6597 10.1782 29.706 10.1794L29.7068 10.1487C29.6581 10.1474 29.6146 10.1514 29.5702 10.1607C29.5289 10.1694 29.4866 10.1828 29.4306 10.204C29.3968 10.2168 29.2506 10.2757 29.2521 10.2751C29.0221 10.3663 28.6103 10.6561 28.3564 10.9159C28.3223 10.9507 28.2984 10.9661 28.2712 10.9741C28.2639 10.9762 28.2568 10.9777 28.2448 10.98C28.1902 10.9905 28.1646 10.9982 28.1152 11.0244L28.1295 11.0516V11.0516Z" fill="black"/>
<path d="M29.242 10.3174C29.2505 10.3135 29.2563 10.3154 29.2665 10.3258C29.2719 10.3313 29.2935 10.3579 29.2946 10.3592C29.3402 10.4123 29.3901 10.4296 29.4712 10.3992C29.5222 10.38 29.5478 10.3429 29.5579 10.2894C29.5608 10.2742 29.5617 10.2644 29.5639 10.2362C29.5665 10.2011 29.5694 10.1923 29.5753 10.1917L29.5726 10.1602C29.5434 10.1628 29.5373 10.1815 29.5333 10.2338C29.5313 10.2606 29.5304 10.2697 29.5278 10.2833C29.5197 10.3267 29.5005 10.3544 29.4607 10.3694C29.3924 10.395 29.3552 10.3821 29.3175 10.3382C29.3172 10.3378 29.2946 10.3099 29.288 10.3032C29.2697 10.2846 29.2513 10.2784 29.2295 10.2885L29.242 10.3174V10.3174Z" fill="black"/>
<path d="M29.7516 10.5586C29.6659 10.6031 29.6033 10.6683 29.5518 10.759L29.5781 10.7751C29.6269 10.6894 29.6852 10.6286 29.7653 10.587L29.7516 10.5586V10.5586Z" fill="black"/>
<path d="M28.3627 11.1875C28.3313 11.2956 28.3194 11.4462 28.3278 11.5618L28.3584 11.5596C28.3502 11.4474 28.3618 11.3004 28.3921 11.1961L28.3627 11.1875V11.1875Z" fill="black"/>
<path d="M28.3485 11.7539C28.3234 11.8611 28.342 12.1106 28.3762 12.2485L28.4059 12.2411C28.3727 12.1074 28.3545 11.8625 28.3783 11.7609L28.3485 11.7539V11.7539Z" fill="black"/>
<path d="M28.4248 12.5146C28.4317 12.5346 28.4425 12.556 28.4567 12.5786C28.4739 12.606 28.4959 12.6348 28.5221 12.6654C28.5435 12.6904 28.5609 12.709 28.5939 12.7434L28.6156 12.7211C28.583 12.687 28.5659 12.6687 28.545 12.6443C28.5197 12.6148 28.4986 12.5872 28.4823 12.5613C28.4693 12.5406 28.4597 12.5214 28.4536 12.5039L28.4248 12.5146V12.5146Z" fill="black"/>
<path d="M28.5765 11.9375C28.5625 12.1157 28.6603 12.454 28.7598 12.5686C28.7816 12.7583 28.9131 13.0299 29.0987 13.217L29.1204 13.1953C28.9396 13.013 28.8111 12.7477 28.7865 12.5566C28.6891 12.4403 28.5936 12.1103 28.6071 11.9399L28.5765 11.9375V11.9375Z" fill="black"/>
<path d="M28.5282 11.4414C28.5154 11.5132 28.5192 11.6261 28.535 11.7387L28.5653 11.7344C28.5499 11.6248 28.5462 11.5147 28.5584 11.4468L28.5282 11.4414V11.4414Z" fill="black"/>
<path d="M28.7983 10.7422C28.7372 10.8961 28.7032 11.2219 28.7214 11.349C28.7248 11.3734 28.7244 11.3795 28.7136 11.4818C28.6941 11.6683 28.7018 11.8098 28.7635 11.9925L28.7924 11.9826C28.7324 11.8048 28.7249 11.6675 28.7441 11.485C28.7553 11.3781 28.7557 11.3729 28.7517 11.3447C28.7343 11.2227 28.7677 10.9024 28.8267 10.7535L28.7983 10.7422V10.7422Z" fill="black"/>
<path d="M29.0116 10.8984C28.9441 11.1771 28.9465 11.7039 29.0118 11.9232L29.0411 11.9144C28.9775 11.7005 28.9751 11.1793 29.0413 10.9057L29.0116 10.8984V10.8984Z" fill="black"/>
<path d="M28.9281 12.0039C28.8912 12.1675 28.8951 12.357 28.9425 12.4995L28.9715 12.4898C28.926 12.3529 28.9222 12.1691 28.958 12.0107L28.9281 12.0039V12.0039Z" fill="black"/>
<path d="M29.1976 11.0039C29.1901 11.2425 29.3011 11.548 29.4846 11.753L29.5074 11.7324C29.3292 11.5334 29.2209 11.2355 29.2282 11.0049L29.1976 11.0039V11.0039Z" fill="black"/>
<path d="M29.149 11.7695C29.1278 12.0342 29.143 12.2774 29.1912 12.4163C29.2036 12.4522 29.2123 12.4957 29.2246 12.5755C29.2303 12.6136 29.2337 12.6353 29.2365 12.6533C29.2413 12.6839 29.2457 12.7097 29.2505 12.7344C29.2736 12.8549 29.3039 12.9436 29.352 13.0122L29.3771 12.9945C29.332 12.9302 29.3029 12.8452 29.2805 12.7286C29.2759 12.7042 29.2715 12.6788 29.2667 12.6485C29.2639 12.6306 29.2606 12.609 29.2548 12.5708C29.2423 12.4892 29.2333 12.4444 29.2201 12.4062C29.1736 12.2721 29.1587 12.0328 29.1795 11.772L29.149 11.7695V11.7695Z" fill="black"/>
<path d="M29.3838 12.1563C29.3894 12.1775 29.3894 12.1775 29.3953 12.1999C29.4108 12.26 29.4199 12.305 29.4241 12.3494C29.4299 12.4115 29.4244 12.4643 29.4054 12.5083L29.4334 12.5205C29.4548 12.4712 29.4608 12.4134 29.4546 12.3465C29.4502 12.3001 29.4408 12.2537 29.4249 12.1921C29.419 12.1696 29.419 12.1696 29.4134 12.1484L29.3838 12.1563V12.1563Z" fill="black"/>
<path d="M29.5635 11.9582C29.6144 12.1255 29.6461 12.3302 29.6388 12.4192L29.6693 12.4217C29.677 12.3283 29.6447 12.1199 29.5928 11.9492L29.5635 11.9582V11.9582Z" fill="black"/>
<path d="M29.6455 12.8817C29.6585 13.0246 29.7157 13.2017 29.7787 13.3126L29.8053 13.2974C29.7444 13.1903 29.6886 13.0174 29.676 12.8789L29.6455 12.8817V12.8817Z" fill="black"/>
<path d="M29.4189 13.3027C29.4767 13.4769 29.576 13.6568 29.6657 13.7277L29.6847 13.7036C29.6007 13.6373 29.504 13.462 29.448 13.293L29.4189 13.3027V13.3027Z" fill="black"/>
<path d="M30.0693 13.3732C30.1662 13.5111 30.2063 13.6013 30.2676 13.787L30.2967 13.7773C30.2345 13.589 30.1933 13.4964 30.0944 13.3555L30.0693 13.3732V13.3732Z" fill="black"/>
<path d="M28.9492 13.4173C28.9683 13.4193 28.9802 13.4201 29.013 13.4217C29.0893 13.4255 29.1161 13.4333 29.1504 13.4697C29.1731 13.4937 29.1955 13.5299 29.2198 13.5827C29.3118 13.7826 29.5767 14.0973 29.7038 14.1543C29.9218 14.2523 30.0615 14.3622 30.0882 14.5189L30.1173 14.5226C30.1247 14.506 30.1247 14.506 30.1323 14.489C30.219 14.2935 30.2387 14.1743 30.1723 14.0294L30.1465 14.0455C30.1644 14.0679 30.1834 14.0911 30.2044 14.1164C30.5361 14.5159 30.5183 14.4928 30.537 14.5822C30.5625 14.7043 30.6607 14.8718 30.7592 14.9795L30.7817 14.9587C30.6866 14.8548 30.5912 14.6919 30.567 14.5759C30.5466 14.4784 30.5686 14.5071 30.2279 14.0968C30.207 14.0716 30.1882 14.0485 30.1704 14.0262L30.1445 14.0423C30.2062 14.1769 30.1878 14.2884 30.1043 14.4765C30.0968 14.4934 30.0968 14.4934 30.0894 14.5101L30.1184 14.5137C30.0893 14.3432 29.9433 14.2283 29.7163 14.1263C29.597 14.0728 29.3367 13.7636 29.2476 13.5698C29.222 13.5143 29.1979 13.4753 29.1726 13.4485C29.1314 13.4049 29.098 13.3952 29.0146 13.391C28.9823 13.3894 28.9708 13.3887 28.9525 13.3867L28.9492 13.4173V13.4173Z" fill="black"/>
<path d="M29.3658 14.9715C29.4295 14.9579 29.5463 14.8773 29.6085 14.8091C29.6467 14.8425 29.6672 14.8543 29.6991 14.8773C29.7791 14.935 29.8299 15.0042 29.8444 15.0936L29.8746 15.0887C29.8587 14.9902 29.803 14.9144 29.717 14.8524C29.6836 14.8283 29.6623 14.816 29.6044 14.7852C29.5277 14.8522 29.4158 14.9294 29.3594 14.9415L29.3658 14.9715V14.9715Z" fill="black"/>
<path d="M29.9015 15.1077C29.9635 14.8778 29.8826 14.447 29.6975 14.1211L29.6709 14.1363C29.8523 14.4556 29.9317 14.8784 29.872 15.0997L29.9015 15.1077V15.1077Z" fill="black"/>
<path d="M29.1631 13.8808C29.2168 14.0429 29.2594 14.2375 29.2637 14.3501L29.2943 14.349C29.2898 14.233 29.2466 14.0357 29.1921 13.8711L29.1631 13.8808V13.8808Z" fill="black"/>
<path d="M29.5088 14.194C29.5656 14.3526 29.6226 14.5907 29.6274 14.6816L29.658 14.68C29.653 14.5856 29.5953 14.3448 29.5376 14.1836L29.5088 14.194V14.194Z" fill="black"/>
<path d="M30.1621 14.6251C30.2065 14.7325 30.2346 14.9021 30.2257 15.0032L30.2561 15.0059C30.2656 14.8998 30.2367 14.7252 30.1904 14.6133L30.1621 14.6251V14.6251Z" fill="black"/>
<path d="M30.4947 15.061C30.4801 14.9928 30.4692 14.8862 30.4583 14.7264C30.4552 14.6808 30.4454 14.5243 30.4435 14.4956C30.4389 14.4269 30.435 14.3818 30.4307 14.3516L30.4004 14.3559C30.4045 14.3851 30.4084 14.4297 30.413 14.4976C30.4149 14.5263 30.4246 14.6828 30.4277 14.7284C30.4387 14.8898 30.4497 14.9974 30.4647 15.0675L30.4947 15.061V15.061Z" fill="black"/>
</g>
</svg>
