<svg width="40" height="40" viewBox="0 0 40 40" fill="none" xmlns="http://www.w3.org/2000/svg">
<rect y="5.71484" width="40" height="28.5714" rx="4" fill="white"/>
<mask id="mask0_101_2780" style="mask-type:luminance" maskUnits="userSpaceOnUse" x="0" y="5" width="40" height="30">
<rect y="5.71484" width="40" height="28.5714" rx="4" fill="white"/>
</mask>
<g mask="url(#mask0_101_2780)">
<rect x="19.0479" y="5.71484" width="20.9524" height="28.5714" fill="url(#paint0_linear_101_2780)"/>
<path fill-rule="evenodd" clip-rule="evenodd" d="M0 34.2863H13.3333V5.71484H0V34.2863Z" fill="#059170"/>
<path fill-rule="evenodd" clip-rule="evenodd" d="M13.333 34.2863H26.6663V5.71484H13.333V34.2863Z" fill="#E21A30"/>
<path fill-rule="evenodd" clip-rule="evenodd" d="M26.667 34.2863H40.0003V5.71484H26.667V34.2863Z" fill="#FFDC44"/>
<path fill-rule="evenodd" clip-rule="evenodd" d="M19.9995 21.8573L17.2006 23.8526L18.2333 20.5741L15.4707 18.5287L18.9079 18.4977L19.9995 15.2383L21.0911 18.4977L24.5284 18.5287L21.7658 20.5741L22.7985 23.8526L19.9995 21.8573Z" fill="#FFDC42"/>
</g>
<defs>
<linearGradient id="paint0_linear_101_2780" x1="19.0479" y1="5.71484" x2="19.0479" y2="34.2863" gradientUnits="userSpaceOnUse">
<stop stop-color="#FFDC44"/>
<stop offset="1" stop-color="#FDD216"/>
</linearGradient>
</defs>
</svg>
