<svg width="40" height="40" viewBox="0 0 40 40" fill="none" xmlns="http://www.w3.org/2000/svg">
<rect x="0.5" y="6.21484" width="39" height="27.5714" rx="3.5" fill="white" stroke="#F5F5F5"/>
<mask id="mask0_101_2991" style="mask-type:luminance" maskUnits="userSpaceOnUse" x="0" y="5" width="40" height="30">
<rect x="0.5" y="6.21484" width="39" height="27.5714" rx="3.5" fill="white" stroke="white"/>
</mask>
<g mask="url(#mask0_101_2991)">
<path fill-rule="evenodd" clip-rule="evenodd" d="M0 34.2855H40V24.7617H0V34.2855Z" fill="#EC3938"/>
<path fill-rule="evenodd" clip-rule="evenodd" d="M0 15.2387H40V5.71484H0V15.2387Z" fill="#51B422"/>
<path fill-rule="evenodd" clip-rule="evenodd" d="M19.438 22.4485C19.4807 22.4041 19.5047 22.345 19.505 22.2834L19.5211 19.4661C19.5224 19.2345 19.335 19.046 19.1034 19.046V19.046C18.7313 19.046 18.5449 18.5961 18.808 18.3329L19.5283 17.6126C19.7887 17.3523 20.2108 17.3523 20.4711 17.6126L21.1902 18.3317C21.4538 18.5953 21.2671 19.046 20.8943 19.046V19.046C20.6632 19.046 20.4759 19.2333 20.4759 19.4644V22.2807C20.4759 22.3439 20.501 22.4044 20.5456 22.4491V22.4491C20.6956 22.5991 20.5894 22.8555 20.3773 22.8555H19.6115C19.3996 22.8555 19.2913 22.6014 19.438 22.4485V22.4485Z" fill="#159940"/>
<path fill-rule="evenodd" clip-rule="evenodd" d="M0 5.71484L13.3333 20.0006L0 34.2863V5.71484Z" fill="#258DE7"/>
</g>
</svg>
