<svg width="40" height="40" viewBox="0 0 40 40" fill="none" xmlns="http://www.w3.org/2000/svg">
<rect y="5.71484" width="40" height="28.5714" rx="4" fill="white"/>
<mask id="mask0_101_3764" style="mask-type:luminance" maskUnits="userSpaceOnUse" x="0" y="5" width="40" height="30">
<rect y="5.71484" width="40" height="28.5714" rx="4" fill="white"/>
</mask>
<g mask="url(#mask0_101_3764)">
<path fill-rule="evenodd" clip-rule="evenodd" d="M0 11.4291H40V5.71484H0V11.4291Z" fill="#1461B6"/>
<path fill-rule="evenodd" clip-rule="evenodd" d="M0 34.2846H40V28.5703H0V34.2846Z" fill="#1461B6"/>
<path fill-rule="evenodd" clip-rule="evenodd" d="M0 28.5725H40V11.4297H0V28.5725Z" fill="white"/>
<path fill-rule="evenodd" clip-rule="evenodd" d="M0 26.6654H40V13.332H0V26.6654Z" fill="#F53846"/>
<ellipse cx="14.2853" cy="20.0002" rx="4.76191" ry="4.7619" fill="white"/>
<path fill-rule="evenodd" clip-rule="evenodd" d="M14.2853 21.911L11.4864 23.8526L12.468 20.5907L9.7565 18.5287L13.1622 18.4543L14.2853 15.2383L15.4085 18.4543L18.8142 18.5287L16.1026 20.5907L17.0843 23.8526L14.2853 21.911Z" fill="white"/>
</g>
</svg>
