<svg width="40" height="40" viewBox="0 0 40 40" fill="none" xmlns="http://www.w3.org/2000/svg">
<rect y="5.71484" width="40" height="28.5714" rx="4" fill="white"/>
<mask id="mask0_101_4303" style="mask-type:luminance" maskUnits="userSpaceOnUse" x="0" y="5" width="40" height="30">
<rect y="5.71484" width="40" height="28.5714" rx="4" fill="white"/>
</mask>
<g mask="url(#mask0_101_4303)">
<rect y="5.71484" width="40" height="28.5714" fill="#FFBF19"/>
<path fill-rule="evenodd" clip-rule="evenodd" d="M15.2383 7.61719H35.4288C36.9015 7.61719 38.0954 8.8111 38.0954 10.2839V29.7124C38.0954 31.1852 36.9015 32.3791 35.4288 32.3791H15.2383V7.61719Z" fill="#A52531"/>
<path d="M1.9043 10.2839C1.9043 8.81109 3.0982 7.61719 4.57096 7.61719H7.61858V32.3791H4.57097C3.09821 32.3791 1.9043 31.1852 1.9043 29.7124V10.2839Z" fill="#03664F"/>
<rect x="7.61914" y="7.61719" width="5.71429" height="24.7619" rx="1.33333" fill="#FF6816"/>
<ellipse cx="18.095" cy="10.4758" rx="0.952381" ry="0.952381" fill="#FFBF18"/>
<ellipse cx="0.952381" cy="0.952381" rx="0.952381" ry="0.952381" transform="matrix(-1 0 0 1 36.1904 9.52344)" fill="#FFBF18"/>
<ellipse cx="35.238" cy="29.5242" rx="0.952381" ry="0.952381" transform="rotate(180 35.238 29.5242)" fill="#FFBF18"/>
<ellipse cx="0.952381" cy="0.952381" rx="0.952381" ry="0.952381" transform="matrix(1 0 0 -1 17.1426 30.4766)" fill="#FFBF18"/>
<path fill-rule="evenodd" clip-rule="evenodd" d="M22.8567 23.677C22.8567 23.2244 22.4898 22.8576 22.0373 22.8576V22.8576C21.9492 22.8576 21.8619 22.8435 21.779 22.8139C21.2279 22.6169 19.0471 21.7849 19.0471 20.9528C19.0471 20.527 19.2376 20.1011 19.4481 19.7604C19.7347 19.2966 19.8581 18.7204 19.6713 18.2083C19.35 17.327 18.9252 15.97 19.0471 15.2385C19.0872 14.9981 19.1948 14.7745 19.3397 14.5713C19.9001 13.7856 20.9519 14.4211 20.9519 15.3861V18.224C20.9519 18.729 21.2372 19.1907 21.689 19.4166L22.4448 19.7945C22.6908 19.9175 22.9878 19.8693 23.1823 19.6748V19.6748C23.4906 19.3665 23.4063 18.8467 23.0162 18.6517L21.9043 18.0957V17.1433V17.1433C22.3788 17.1433 22.5298 16.5037 22.1054 16.2915L21.9043 16.1909V15.2385H23.2568C23.6104 15.2385 23.9495 15.0981 24.1996 14.848L24.3709 14.6767C24.621 14.4266 24.9601 14.2862 25.3137 14.2862H25.8421C26.3472 14.2862 26.8089 14.5715 27.0347 15.0232L27.3716 15.6969C27.5297 16.0132 27.5558 16.3794 27.4439 16.7149L27.2512 17.2931C26.9634 18.1565 27.606 19.0481 28.5161 19.0481H31.1184C31.3167 19.0481 31.5069 18.9693 31.6471 18.8291V18.8291C32.0079 18.4683 31.9092 17.86 31.4528 17.6318L30.7527 17.2818C30.5705 17.1907 30.3697 17.1433 30.1661 17.1433H29.9043C29.1679 17.1433 28.571 16.5463 28.571 15.81V15.7908C28.571 15.4372 28.7114 15.0981 28.9615 14.848L29.5233 14.2862V15.2385C29.5233 15.7645 29.9497 16.1909 30.4757 16.1909V16.1909H31.5564C32.0615 16.1909 32.5231 16.4763 32.749 16.928L33.2259 17.8818C33.2967 18.0233 33.3418 18.1761 33.3556 18.3337C33.4019 18.8654 33.4904 20.1649 33.3329 20.9528C33.2131 21.5515 32.9002 22.1102 32.6655 22.4657C32.493 22.7271 32.3805 23.0292 32.3805 23.3424V25.9396C32.3805 26.3414 32.0547 26.6671 31.6529 26.6671V26.6671C31.1121 26.6671 30.7603 26.0979 31.0022 25.6142L31.3276 24.9634C31.3909 24.8369 31.3909 24.6878 31.3276 24.5613L31.2826 24.4713C31.0816 24.0693 30.4757 24.2124 30.4757 24.6618V24.6618C30.4757 24.7279 30.4603 24.7931 30.4308 24.8523L29.7588 26.1962C29.6145 26.4848 29.3195 26.6671 28.9969 26.6671V26.6671C28.3636 26.6671 27.9518 26.0007 28.235 25.4343L28.4497 25.0049C28.5294 24.8454 28.571 24.6695 28.571 24.4912L28.571 24.1909C28.571 23.4545 27.974 22.8576 27.2376 22.8576H26.0948C25.3584 22.8576 24.7614 23.4545 24.7614 24.1909V24.4476C24.7614 24.6546 24.7132 24.8587 24.6207 25.0439L24.0445 26.1962C23.9002 26.4848 23.6052 26.6671 23.2826 26.6671V26.6671C22.6493 26.6671 22.2375 26.0007 22.5207 25.4343L22.7354 25.0049C22.8152 24.8454 22.8567 24.6695 22.8567 24.4912V23.677Z" fill="#FFBF18"/>
</g>
</svg>
