<svg width="40" height="40" viewBox="0 0 40 40" fill="none" xmlns="http://www.w3.org/2000/svg">
<rect y="5.71484" width="40" height="28.5714" rx="4" fill="#06A86E"/>
<mask id="mask0_101_4076" style="mask-type:luminance" maskUnits="userSpaceOnUse" x="0" y="5" width="40" height="30">
<rect y="5.71484" width="40" height="28.5714" rx="4" fill="white"/>
</mask>
<g mask="url(#mask0_101_4076)">
<rect x="-4.28613" y="5.71484" width="48.5714" height="28.5714" fill="#003893"/>
<rect x="-4.28613" y="20" width="48.5714" height="7.14286" fill="white"/>
<rect x="-4.28613" y="22.3828" width="48.5714" height="2.38095" fill="#CF2027"/>
<path d="M14.0337 14.9984L13.5311 16.4541L14.3045 16.6906" fill="#F7D116"/>
<path d="M14.2344 15.0009L14.853 16.4566L13.9011 16.6931" fill="#F7D116"/>
<path d="M15.4474 16.0263L13.9077 15.9982L13.9218 16.8068" fill="#F7D116"/>
<path d="M15.5089 16.2148L14.3156 17.2528L13.7966 16.4207" fill="#F7D116"/>
<path d="M14.908 17.688L14.4589 16.2149L13.6943 16.4781" fill="#F7D116"/>
<path d="M14.7461 17.8048L13.3901 16.9907L14.0211 16.2399" fill="#F7D116"/>
<path d="M13.1603 17.6899L14.4225 16.8076L13.9358 16.1617" fill="#F7D116"/>
<path d="M12.9983 17.5723L13.3536 16.031L14.2626 16.3992" fill="#F7D116"/>
<path d="M12.6205 16.0271L13.8496 16.9549L14.3135 16.2925" fill="#F7D116"/>
<path d="M12.6821 15.8369L14.2577 15.6985L14.1885 16.6768" fill="#F7D116"/>
<path d="M14.0337 29.2835L13.5311 30.7392L14.3045 30.9757" fill="#F7D116"/>
<path d="M14.2344 29.2861L14.853 30.7418L13.9011 30.9783" fill="#F7D116"/>
<path d="M15.4484 30.3115L13.9087 30.2834L13.9227 31.0919" fill="#F7D116"/>
<path d="M15.5099 30.4999L14.3166 31.538L13.7976 30.7059" fill="#F7D116"/>
<path d="M14.908 31.9731L14.4589 30.5001L13.6943 30.7633" fill="#F7D116"/>
<path d="M14.7461 32.09L13.3901 31.2759L14.0211 30.5251" fill="#F7D116"/>
<path d="M13.1612 31.975L14.4235 31.0927L13.9368 30.4469" fill="#F7D116"/>
<path d="M12.9983 31.8574L13.3536 30.3162L14.2626 30.6843" fill="#F7D116"/>
<path d="M12.6205 30.3123L13.8496 31.2401L14.3135 30.5776" fill="#F7D116"/>
<path d="M12.6821 30.126L14.2577 29.9876L14.1885 30.9659" fill="#F7D116"/>
<path d="M22.1135 21.0224L20.5737 20.9943L20.5878 21.8029" fill="#F7D116"/>
<path d="M22.175 21.2108L20.9816 22.2489L20.4626 21.4168" fill="#F7D116"/>
<path d="M21.5731 22.6841L21.124 21.211L20.3593 21.4742" fill="#F7D116"/>
<path d="M21.4112 22.8009L20.0551 21.9868L20.6862 21.236" fill="#F7D116"/>
<path d="M19.8253 22.686L21.0875 21.8036L20.6009 21.1578" fill="#F7D116"/>
<path d="M19.6634 22.5684L20.0186 21.0271L20.9276 21.3952" fill="#F7D116"/>
<path d="M19.2855 21.0232L20.5147 21.951L20.9786 21.2886" fill="#F7D116"/>
<path d="M19.3471 20.8369L20.9227 20.6985L20.8535 21.6768" fill="#F7D116"/>
<path d="M20.6997 19.9945L20.1972 21.4502L20.9705 21.6867" fill="#F7D116"/>
<path d="M20.8995 19.9931L21.518 21.4488L20.5662 21.6853" fill="#F7D116"/>
<path d="M8.52655 25.4365L6.9868 25.4084L7.00086 26.2169" fill="#F7D116"/>
<path d="M8.58804 25.6249L7.39472 26.663L6.87568 25.8309" fill="#F7D116"/>
<path d="M7.98712 27.0981L7.53805 25.6251L6.7734 25.8883" fill="#F7D116"/>
<path d="M7.82523 27.215L6.4692 26.4009L7.10022 25.6501" fill="#F7D116"/>
<path d="M6.23937 27.1L7.50158 26.2177L7.01494 25.5719" fill="#F7D116"/>
<path d="M6.07743 26.9824L6.43268 25.4412L7.34171 25.8093" fill="#F7D116"/>
<path d="M5.6996 25.4373L6.92875 26.365L7.39265 25.7026" fill="#F7D116"/>
<path d="M5.7612 25.251L7.33678 25.1126L7.26757 26.0909" fill="#F7D116"/>
<path d="M7.1128 24.4085L6.61025 25.8642L7.38359 26.1007" fill="#F7D116"/>
<path d="M7.31256 24.4072L7.93108 25.8629L6.97927 26.0994" fill="#F7D116"/>
<path d="M18.8816 30.5669L18.4326 29.0938L17.6679 29.3571" fill="#F7D116"/>
<path d="M18.7198 30.6837L17.3637 29.8696L17.9947 29.1188" fill="#F7D116"/>
<path d="M17.1339 30.5688L18.3961 29.6865L17.9095 29.0406" fill="#F7D116"/>
<path d="M16.972 30.4512L17.3272 28.9099L18.2362 29.2781" fill="#F7D116"/>
<path d="M16.5941 28.906L17.8233 29.8338L18.2872 29.1714" fill="#F7D116"/>
<path d="M16.6557 28.7197L18.2313 28.5813L18.1621 29.5596" fill="#F7D116"/>
<path d="M18.0073 27.8773L17.5048 29.333L18.2781 29.5695" fill="#F7D116"/>
<path d="M18.2071 27.8759L18.8256 29.3316L17.8738 29.5681" fill="#F7D116"/>
<path d="M19.4221 28.9052L17.8823 28.8771L17.8964 29.6857" fill="#F7D116"/>
<path d="M19.4835 29.0937L18.2902 30.1317L17.7712 29.2996" fill="#F7D116"/>
<path d="M10.4852 19.0083L10.0361 17.5352L9.27144 17.7985" fill="#F7D116"/>
<path d="M10.3233 19.1251L8.96725 18.311L9.59827 17.5602" fill="#F7D116"/>
<path d="M8.73742 19.0102L9.99962 18.1279L9.51299 17.482" fill="#F7D116"/>
<path d="M8.57548 18.8926L8.93072 17.3513L9.83976 17.7195" fill="#F7D116"/>
<path d="M8.19764 17.3474L9.4268 18.2752L9.89069 17.6128" fill="#F7D116"/>
<path d="M8.25924 17.1611L9.83483 17.0227L9.76562 18.001" fill="#F7D116"/>
<path d="M9.61084 16.3226L9.1083 17.7783L9.88164 18.0148" fill="#F7D116"/>
<path d="M9.8106 16.3212L10.4291 17.7769L9.47732 18.0134" fill="#F7D116"/>
<path d="M11.0246 17.3506L9.48485 17.3224L9.49891 18.131" fill="#F7D116"/>
<path d="M11.0861 17.539L9.89277 18.577L9.37373 17.7449" fill="#F7D116"/>
<path d="M8.8048 30.4438L10.067 29.5615L9.58037 28.9156" fill="#F7D116"/>
<path d="M8.64286 30.3262L8.99811 28.7849L9.90714 29.153" fill="#F7D116"/>
<path d="M8.26502 28.781L9.49418 29.7088L9.95807 29.0464" fill="#F7D116"/>
<path d="M8.32662 28.5947L9.90221 28.4563L9.833 29.4346" fill="#F7D116"/>
<path d="M9.6792 27.7523L9.17666 29.208L9.95 29.4445" fill="#F7D116"/>
<path d="M9.87896 27.7509L10.4975 29.2066L9.54568 29.4431" fill="#F7D116"/>
<path d="M11.093 28.7841L9.55321 28.756L9.56727 29.5646" fill="#F7D116"/>
<path d="M11.1544 28.9726L9.96113 30.0106L9.44208 29.1785" fill="#F7D116"/>
<path d="M10.5525 30.4419L10.1035 28.9688L9.33883 29.2321" fill="#F7D116"/>
<path d="M10.3907 30.5587L9.03463 29.7446L9.66565 28.9938" fill="#F7D116"/>
<path d="M17.2023 18.8852L18.4645 18.0029L17.9778 17.357" fill="#F7D116"/>
<path d="M17.0403 18.7676L17.3956 17.2263L18.3046 17.5945" fill="#F7D116"/>
<path d="M16.6625 17.2224L17.8916 18.1502L18.3555 17.4878" fill="#F7D116"/>
<path d="M16.7241 17.0361L18.2997 16.8977L18.2305 17.876" fill="#F7D116"/>
<path d="M18.0757 16.1976L17.5731 17.6533L18.3465 17.8898" fill="#F7D116"/>
<path d="M18.2754 16.1962L18.894 17.6519L17.9422 17.8884" fill="#F7D116"/>
<path d="M19.4894 17.2256L17.9497 17.1974L17.9637 18.006" fill="#F7D116"/>
<path d="M19.5509 17.414L18.3576 18.452L17.8386 17.6199" fill="#F7D116"/>
<path d="M18.95 18.8872L18.5009 17.4141L17.7363 17.6774" fill="#F7D116"/>
<path d="M18.7881 19.004L17.4321 18.1899L18.0631 17.4391" fill="#F7D116"/>
<path d="M5.80897 20.8201L7.03813 21.7479L7.50202 21.0855" fill="#F7D116"/>
<path d="M5.87057 20.6338L7.44616 20.4954L7.37695 21.4737" fill="#F7D116"/>
<path d="M7.22315 19.7953L6.7206 21.251L7.49394 21.4875" fill="#F7D116"/>
<path d="M7.42291 19.7939L8.04143 21.2496L7.08962 21.4861" fill="#F7D116"/>
<path d="M8.6369 20.8232L7.09715 20.7951L7.11121 21.6036" fill="#F7D116"/>
<path d="M8.69839 21.0116L7.50507 22.0497L6.98603 21.2176" fill="#F7D116"/>
<path d="M8.09649 22.4849L7.64742 21.0118L6.88277 21.275" fill="#F7D116"/>
<path d="M7.93461 22.6017L6.57858 21.7875L7.20959 21.0368" fill="#F7D116"/>
<path d="M6.34972 22.4828L7.61193 21.6006L7.12529 20.9547" fill="#F7D116"/>
<path d="M6.18778 22.3652L6.54303 20.824L7.45206 21.1921" fill="#F7D116"/>
<path d="M19.3959 25.2341L20.625 26.1619L21.0889 25.4995" fill="#F7D116"/>
<path d="M19.4575 25.0479L21.0331 24.9094L20.9639 25.8877" fill="#F7D116"/>
<path d="M20.8091 24.2093L20.3065 25.665L21.0799 25.9015" fill="#F7D116"/>
<path d="M21.0088 24.208L21.6274 25.6637L20.6756 25.9001" fill="#F7D116"/>
<path d="M22.2228 25.2373L20.6831 25.2091L20.6971 26.0177" fill="#F7D116"/>
<path d="M22.2843 25.4257L21.091 26.4638L20.572 25.6316" fill="#F7D116"/>
<path d="M21.6834 26.8989L21.2343 25.4259L20.4697 25.6891" fill="#F7D116"/>
<path d="M21.5215 27.0158L20.1655 26.2016L20.7965 25.4508" fill="#F7D116"/>
<path d="M19.9357 26.8969L21.1979 26.0146L20.7112 25.3687" fill="#F7D116"/>
<path d="M19.7737 26.7793L20.129 25.2381L21.038 25.6062" fill="#F7D116"/>
</g>
</svg>
