<svg width="40" height="40" viewBox="0 0 40 40" fill="none" xmlns="http://www.w3.org/2000/svg">
<rect y="5.71484" width="40" height="28.5714" rx="4" fill="white"/>
<mask id="mask0_101_3638" style="mask-type:luminance" maskUnits="userSpaceOnUse" x="0" y="5" width="40" height="30">
<rect y="5.71484" width="40" height="28.5714" rx="4" fill="white"/>
</mask>
<g mask="url(#mask0_101_3638)">
<path fill-rule="evenodd" clip-rule="evenodd" d="M13.333 34.2863H26.6663V5.71484H13.333V34.2863Z" fill="#146BBC"/>
<path fill-rule="evenodd" clip-rule="evenodd" d="M0 34.2863H13.3333V5.71484H0V34.2863Z" fill="#E43642"/>
<path fill-rule="evenodd" clip-rule="evenodd" d="M26.667 34.2863H40.0003V5.71484H26.667V34.2863Z" fill="#E43642"/>
<rect x="7.61914" y="22.8555" width="1.90476" height="5.71428" fill="url(#paint0_linear_101_3638)"/>
<rect x="3.80957" y="22.8555" width="1.90476" height="5.71428" fill="url(#paint1_linear_101_3638)"/>
<path fill-rule="evenodd" clip-rule="evenodd" d="M5.71387 26.668H7.61863L6.66625 28.5727L5.71387 26.668Z" fill="url(#paint2_linear_101_3638)"/>
<path fill-rule="evenodd" clip-rule="evenodd" d="M5.71387 22.8555H7.61863L6.66625 24.7602L5.71387 22.8555Z" fill="url(#paint3_linear_101_3638)"/>
<path fill-rule="evenodd" clip-rule="evenodd" d="M5.71387 20.9509H7.61863L6.66625 19.9985L5.71387 20.9509Z" fill="url(#paint4_linear_101_3638)"/>
<ellipse cx="6.66625" cy="21.9055" rx="0.952381" ry="0.952381" fill="url(#paint5_linear_101_3638)"/>
<ellipse cx="6.66625" cy="25.7141" rx="0.952381" ry="0.952381" fill="url(#paint6_linear_101_3638)"/>
</g>
<defs>
<linearGradient id="paint0_linear_101_3638" x1="7.61914" y1="22.8555" x2="7.61914" y2="28.5698" gradientUnits="userSpaceOnUse">
<stop stop-color="#F8D246"/>
<stop offset="1" stop-color="#F9CE2F"/>
</linearGradient>
<linearGradient id="paint1_linear_101_3638" x1="3.80957" y1="22.8555" x2="3.80957" y2="28.5698" gradientUnits="userSpaceOnUse">
<stop stop-color="#F8D246"/>
<stop offset="1" stop-color="#F9CE2F"/>
</linearGradient>
<linearGradient id="paint2_linear_101_3638" x1="5.71387" y1="26.668" x2="5.71387" y2="28.5727" gradientUnits="userSpaceOnUse">
<stop stop-color="#F8D246"/>
<stop offset="1" stop-color="#F9CE2F"/>
</linearGradient>
<linearGradient id="paint3_linear_101_3638" x1="5.71387" y1="22.8555" x2="5.71387" y2="24.7602" gradientUnits="userSpaceOnUse">
<stop stop-color="#F8D246"/>
<stop offset="1" stop-color="#F9CE2F"/>
</linearGradient>
<linearGradient id="paint4_linear_101_3638" x1="5.71387" y1="18.0938" x2="5.71387" y2="22.8557" gradientUnits="userSpaceOnUse">
<stop stop-color="#F8D246"/>
<stop offset="1" stop-color="#F9CE2F"/>
</linearGradient>
<linearGradient id="paint5_linear_101_3638" x1="5.71387" y1="20.9531" x2="5.71387" y2="22.8579" gradientUnits="userSpaceOnUse">
<stop stop-color="#F8D246"/>
<stop offset="1" stop-color="#F9CE2F"/>
</linearGradient>
<linearGradient id="paint6_linear_101_3638" x1="5.71387" y1="24.7617" x2="5.71387" y2="26.6665" gradientUnits="userSpaceOnUse">
<stop stop-color="#F8D246"/>
<stop offset="1" stop-color="#F9CE2F"/>
</linearGradient>
</defs>
</svg>
