<svg width="40" height="40" viewBox="0 0 40 40" fill="none" xmlns="http://www.w3.org/2000/svg">
<rect y="5.71484" width="40" height="28.5714" rx="4" fill="white"/>
<mask id="mask0_101_3653" style="mask-type:luminance" maskUnits="userSpaceOnUse" x="0" y="5" width="40" height="30">
<rect y="5.71484" width="40" height="28.5714" rx="4" fill="white"/>
</mask>
<g mask="url(#mask0_101_3653)">
<rect y="5.71484" width="40" height="28.5714" fill="#E6BE53"/>
<path fill-rule="evenodd" clip-rule="evenodd" d="M1.9043 30.3791C1.9043 31.4837 2.79973 32.3791 3.9043 32.3791H36.0948C37.1993 32.3791 38.0948 31.4837 38.0948 30.3791V9.61719C38.0948 8.51262 37.1993 7.61719 36.0948 7.61719H3.9043C2.79973 7.61719 1.9043 8.51262 1.9043 9.61719V30.3791Z" fill="#E01826"/>
<path fill-rule="evenodd" clip-rule="evenodd" d="M19.0576 15.2488C19.5783 15.7695 20.4225 15.7695 20.9432 15.2488L20.9528 15.2392L22.3427 13.8493C22.6501 13.5418 23.1198 13.4656 23.5087 13.6601L23.5576 13.6845C24.1503 13.9808 24.2784 14.7707 23.8099 15.2392V15.2392L22.5847 16.4644C22.1789 16.8702 22.0783 17.4902 22.3349 18.0035L22.8033 18.9403C22.839 19.0116 22.8575 19.0903 22.8575 19.17V19.17C22.8575 19.5518 23.2594 19.8002 23.6009 19.6294L24.0622 19.3988C24.4066 19.2266 24.4811 18.7676 24.2088 18.4953V18.4953C23.9885 18.275 23.9885 17.9178 24.2088 17.6974L24.6293 17.2769C24.7174 17.1889 24.7907 17.0872 24.8464 16.9758L25.6492 15.3701C25.6927 15.2831 25.7266 15.1916 25.7502 15.0972L25.9876 14.1473C26.2599 13.0582 27.6742 12.7726 28.3478 13.6707L29.2575 14.8837C29.4306 15.1145 29.5242 15.3952 29.5242 15.6837V18.734C29.5242 18.941 29.476 19.1451 29.3834 19.3303L28.6686 20.76C28.6045 20.8881 28.5201 21.0052 28.4188 21.1065L26.82 22.7053C26.7187 22.8066 26.6017 22.8909 26.4735 22.955L24.8522 23.7657C24.7931 23.7952 24.7279 23.8106 24.6617 23.8106V23.8106C24.2123 23.8106 24.0693 24.4165 24.4713 24.6175L24.692 24.7279C24.7385 24.7512 24.781 24.7818 24.8178 24.8186L25.2385 25.2392C25.5015 25.5022 25.9279 25.5022 26.1908 25.2392V25.2392C26.4538 24.9762 26.8802 24.9762 27.1432 25.2392L27.2205 25.3165C27.4587 25.5547 27.5178 25.9187 27.3671 26.22L27.0356 26.8831C26.8097 27.3348 26.348 27.6202 25.843 27.6202H25.077C24.87 27.6202 24.6659 27.572 24.4808 27.4794L23.2265 26.8523C22.987 26.7325 22.7928 26.5383 22.673 26.2988L22.2838 25.5203C22.0975 25.1477 21.601 25.0672 21.3065 25.3617V25.3617C21.1008 25.5674 21.0689 25.8896 21.2302 26.1316L22.1179 27.4631C22.5264 28.0759 22.3608 28.9037 21.7481 29.3121L20.74 29.9842C20.2921 30.2828 19.7086 30.2828 19.2608 29.9842L18.2526 29.3121C17.6399 28.9037 17.4744 28.0758 17.8828 27.4631L18.7705 26.1316C18.9319 25.8896 18.8999 25.5674 18.6943 25.3617V25.3617C18.3997 25.0672 17.9033 25.1477 17.717 25.5203L17.3277 26.2988C17.208 26.5383 17.0138 26.7325 16.7743 26.8523L15.52 27.4794C15.3349 27.572 15.1307 27.6202 14.9237 27.6202H14.1578C13.6527 27.6202 13.191 27.3348 12.9652 26.8831L12.6336 26.22C12.483 25.9187 12.542 25.5547 12.7802 25.3165L12.8575 25.2392C13.1205 24.9762 13.5469 24.9762 13.8099 25.2392V25.2392C14.0729 25.5022 14.4993 25.5022 14.7623 25.2392L15.1829 24.8186C15.2197 24.7818 15.2622 24.7512 15.3087 24.7279L15.5295 24.6175C15.9315 24.4165 15.7885 23.8106 15.339 23.8106V23.8106C15.2729 23.8106 15.2077 23.7952 15.1485 23.7657L13.5272 22.955C13.3991 22.8909 13.282 22.8066 13.1807 22.7053L11.5819 21.1065C11.4806 21.0052 11.3963 20.8881 11.3322 20.76L10.6173 19.3303C10.5248 19.1451 10.4766 18.941 10.4766 18.734V15.6837C10.4766 15.3952 10.5701 15.1145 10.7432 14.8837L11.6529 13.6707C12.3266 12.7726 13.7408 13.0582 14.0131 14.1473L14.2506 15.0972C14.2742 15.1916 14.308 15.2831 14.3515 15.3701L15.1544 16.9758C15.2101 17.0872 15.2834 17.1889 15.3714 17.2769L15.7919 17.6974C16.0122 17.9178 16.0122 18.275 15.7919 18.4953V18.4953C15.5197 18.7676 15.5941 19.2266 15.9386 19.3988L16.3999 19.6294C16.7414 19.8002 17.1432 19.5518 17.1432 19.17V19.17C17.1432 19.0903 17.1618 19.0116 17.1975 18.9403L17.6658 18.0035C17.9225 17.4902 17.8219 16.8702 17.4161 16.4644L16.1908 15.2392V15.2392C15.7223 14.7707 15.8505 13.9808 16.4431 13.6845L16.492 13.6601C16.8809 13.4656 17.3506 13.5418 17.6581 13.8493L19.048 15.2392L19.0576 15.2488Z" fill="#E6BE53"/>
<path fill-rule="evenodd" clip-rule="evenodd" d="M18.6591 12.9455C17.9624 12.2487 18.2424 11.0623 19.1772 10.7507L19.5781 10.6171C19.8518 10.5259 20.1477 10.5259 20.4214 10.6171L20.8222 10.7507C21.757 11.0623 22.0371 12.2487 21.3403 12.9455V12.9455C21.0918 13.1941 20.7546 13.3337 20.4031 13.3337H19.5964C19.2448 13.3337 18.9077 13.1941 18.6591 12.9455V12.9455Z" fill="#E6BE53"/>
<ellipse cx="20.0005" cy="21.1613" rx="1.90476" ry="2.11443" fill="#215F90"/>
</g>
</svg>
