<svg width="40" height="40" viewBox="0 0 40 40" fill="none" xmlns="http://www.w3.org/2000/svg">
<rect x="0.5" y="6.21484" width="39" height="27.5714" rx="3.5" fill="white" stroke="#F5F5F5"/>
<mask id="mask0_101_2902" style="mask-type:luminance" maskUnits="userSpaceOnUse" x="0" y="5" width="40" height="30">
<rect x="0.5" y="6.21484" width="39" height="27.5714" rx="3.5" fill="white" stroke="white"/>
</mask>
<g mask="url(#mask0_101_2902)">
<path fill-rule="evenodd" clip-rule="evenodd" d="M28.5718 10.4759C29.0905 10.2165 29.617 10.8129 29.2953 11.2954L28.6679 12.2365C28.6045 12.3317 28.5228 12.4133 28.4277 12.4767L25.8156 14.2181C25.7485 14.2629 25.6859 14.3142 25.6289 14.3712V14.3712C25.1503 14.8498 25.1503 15.6258 25.6289 16.1044L25.7242 16.1997C26.2449 16.7204 26.2449 17.5647 25.7242 18.0854L25.393 18.4166C25.0163 18.7932 24.4409 18.8866 23.9644 18.6484V18.6484C23.3531 18.3427 22.6097 18.5905 22.3041 19.2019L22.1521 19.5057C21.994 19.822 21.7167 20.0625 21.3812 20.1743L19.2533 20.8837C19.1173 20.929 18.9749 20.9521 18.8316 20.9521H17.9567C17.4581 20.9521 17.0024 21.2337 16.7795 21.6796V21.6796C16.4544 22.3298 15.6638 22.5933 15.0136 22.2682L12.5749 21.0488C12.4467 20.9847 12.3297 20.9004 12.2283 20.7991L10.8671 19.4378C10.617 19.1878 10.4766 18.8487 10.4766 18.495V17.816C10.4766 17.4441 10.7781 17.1426 11.15 17.1426V17.1426C11.3286 17.1426 11.4999 17.0716 11.6262 16.9453L12.9432 15.6283C13.1932 15.3783 13.5324 15.2378 13.886 15.2378H14.2775C14.8514 15.2378 15.3609 14.8705 15.5424 14.3261L15.8186 13.4973C16.0313 12.8594 16.6857 12.4796 17.345 12.6115L20.6588 13.2742C20.8523 13.3129 21.0521 13.3082 21.2436 13.2603L24.6203 12.4161C24.7147 12.3926 24.8062 12.3587 24.8932 12.3152L26.667 11.4283L28.5718 10.4759V10.4759Z" fill="#E7832C"/>
<ellipse cx="20.0002" cy="27.6203" rx="0.952381" ry="0.95238" fill="#445128"/>
<path opacity="0.75" d="M22.8574 26.6657C22.8574 26.6657 25.7146 25.7134 26.6669 23.8086" stroke="#445128" stroke-width="2.66667" stroke-linecap="round"/>
<path opacity="0.75" d="M17.1426 26.6657C17.1426 26.6657 14.2854 25.7134 13.3331 23.8086" stroke="#445128" stroke-width="2.66667" stroke-linecap="round"/>
</g>
</svg>
