<svg width="40" height="40" viewBox="0 0 40 40" fill="none" xmlns="http://www.w3.org/2000/svg">
<rect x="0.5" y="6.21484" width="39" height="27.5714" rx="3.5" fill="white" stroke="#F5F5F5"/>
<mask id="mask0_101_2950" style="mask-type:luminance" maskUnits="userSpaceOnUse" x="0" y="5" width="40" height="30">
<rect x="0.5" y="6.21484" width="39" height="27.5714" rx="3.5" fill="white" stroke="white"/>
</mask>
<g mask="url(#mask0_101_2950)">
<path fill-rule="evenodd" clip-rule="evenodd" d="M0 17.1434H17.1429V5.71484H0V17.1434Z" fill="#083D7A"/>
<path fill-rule="evenodd" clip-rule="evenodd" d="M22.8574 34.284H40.0003V22.8555H22.8574V34.284Z" fill="#083D7A"/>
<path fill-rule="evenodd" clip-rule="evenodd" d="M0 34.284H17.1429V22.8555H0V34.284Z" fill="#DF1E35"/>
<path fill-rule="evenodd" clip-rule="evenodd" d="M22.8574 17.1434H40.0003V5.71484H22.8574V17.1434Z" fill="#DF1E35"/>
<mask id="path-7-inside-1_101_2950" fill="white">
<path fill-rule="evenodd" clip-rule="evenodd" d="M17.9793 17.9797C16.8635 19.0955 16.8635 20.9045 17.9793 22.0203C19.0951 23.1361 20.9041 23.1361 22.0199 22.0203C23.1357 20.9045 23.1357 19.0955 22.0199 17.9797"/>
</mask>
<path d="M17.0365 17.0369C15.4 18.6734 15.4 21.3266 17.0365 22.9631L18.9221 21.0775C18.327 20.4824 18.327 19.5176 18.9221 18.9225L17.0365 17.0369ZM17.0365 22.9631C18.673 24.5996 21.3262 24.5996 22.9627 22.9631L21.0771 21.0775C20.482 21.6726 19.5172 21.6726 18.9221 21.0775L17.0365 22.9631ZM22.9627 22.9631C24.5992 21.3266 24.5992 18.6734 22.9627 17.0369L21.0771 18.9225C21.6722 19.5176 21.6722 20.4824 21.0771 21.0775L22.9627 22.9631Z" fill="#0F6D1A" mask="url(#path-7-inside-1_101_2950)"/>
<ellipse cx="20.0002" cy="19.9993" rx="0.952381" ry="0.952381" fill="#042F60"/>
</g>
</svg>
