<svg width="40" height="40" viewBox="0 0 40 40" fill="none" xmlns="http://www.w3.org/2000/svg">
<rect x="0.214286" y="5.92913" width="39.5714" height="28.1429" rx="1.5" fill="white" stroke="#F5F5F5" stroke-width="0.428571"/>
<mask id="mask0_101_4628" style="mask-type:luminance" maskUnits="userSpaceOnUse" x="0" y="5" width="40" height="30">
<rect x="0.214286" y="5.92913" width="39.5714" height="28.1429" rx="1.5" fill="white" stroke="white" stroke-width="0.428571"/>
</mask>
<g mask="url(#mask0_101_4628)">
<path d="M39.3103 5.73438H20V34.3058H39.3103C39.6912 34.3058 40 33.9691 40 33.5539V6.48621C40 6.07098 39.6912 5.73438 39.3103 5.73438Z" fill="#F5F5F5"/>
<path d="M0.689688 34.3058H20V5.73438H0.689688C0.308828 5.73438 0 6.07098 0 6.48621V33.5539C0 33.9692 0.308828 34.3058 0.689688 34.3058Z" fill="#FFE15A"/>
<path d="M31.8964 13.9186L31.8506 14.0102C31.9986 14.086 32.0832 14.1723 32.0832 14.2641L32.0602 13.8086C32.0294 13.8698 31.969 13.9137 31.8964 13.9186Z" fill="#EBEBEB"/>
<path d="M28.3157 14.0102L28.2699 13.9186C28.1974 13.9136 28.1371 13.8698 28.106 13.8086L28.083 14.2641C28.083 14.1724 28.1677 14.086 28.3157 14.0102Z" fill="#EBEBEB"/>
<path d="M28.2826 13.5219C28.393 13.5219 28.4826 13.6114 28.4826 13.7219C28.4826 13.7619 28.4678 13.797 28.4476 13.8283L28.5002 13.9335C28.6512 13.8805 28.8371 13.8354 29.0492 13.8005L29.0267 13.7105C28.9441 13.6859 28.8826 13.6123 28.8826 13.5218C28.8826 13.4113 28.9721 13.3218 29.0826 13.3218C29.193 13.3218 29.2826 13.4113 29.2826 13.5218C29.2826 13.5782 29.2589 13.6286 29.2214 13.665L29.2481 13.7718C29.3596 13.7578 29.4764 13.7468 29.5977 13.7385C29.5886 13.7009 29.5826 13.6621 29.5826 13.6218C29.5826 13.3457 29.8065 13.1218 30.0826 13.1218C30.3587 13.1218 30.5826 13.3457 30.5826 13.6218C30.5826 13.6623 30.5766 13.7009 30.5675 13.7385C30.6889 13.7467 30.8057 13.7578 30.917 13.7718L30.9438 13.665C30.9063 13.6286 30.8826 13.5782 30.8826 13.5218C30.8826 13.4113 30.9721 13.3218 31.0826 13.3218C31.193 13.3218 31.2826 13.4113 31.2826 13.5218C31.2826 13.6124 31.2211 13.6859 31.1384 13.7105L31.1159 13.8005C31.328 13.8353 31.514 13.8804 31.6649 13.9335L31.7176 13.8283C31.6973 13.797 31.6826 13.7619 31.6826 13.7219C31.6826 13.6114 31.7721 13.5219 31.8826 13.5219C31.9545 13.5219 32.0148 13.562 32.05 13.6191L32.0347 13.3141C31.8372 13.0898 31.0389 12.9219 30.0826 12.9219C29.1263 12.9219 28.328 13.0897 28.1305 13.3141L28.1152 13.6191C28.1504 13.562 28.2106 13.5219 28.2826 13.5219Z" fill="#EBEBEB"/>
<path d="M30.3949 11.1691C30.449 11.1009 30.4826 11.0157 30.4826 10.9219C30.4826 10.7357 30.3549 10.5807 30.1826 10.536V10.2912C30.2413 10.2563 30.2826 10.1951 30.2826 10.1219C30.2826 10.0114 30.1931 9.92188 30.0826 9.92188C29.9721 9.92188 29.8826 10.0114 29.8826 10.1219C29.8826 10.1951 29.9239 10.2563 29.9826 10.2912V10.536C29.8104 10.5805 29.6826 10.7357 29.6826 10.9219C29.6826 11.0158 29.7163 11.1009 29.7704 11.1691C29.8721 11.1413 29.9757 11.1219 30.0826 11.1219C30.1896 11.1219 30.2931 11.1412 30.3949 11.1691Z" fill="#E6B432"/>
<path d="M29.245 12.1847L29.2273 12.1137C29.1446 12.0891 29.0831 12.0155 29.0831 11.925C29.0831 11.8145 29.1727 11.725 29.2831 11.725C29.3936 11.725 29.4831 11.8145 29.4831 11.925C29.4831 11.9814 29.4595 12.0318 29.422 12.0682L29.4445 12.1584C29.6402 12.137 29.856 12.125 30.0831 12.125C29.9174 12.125 29.7831 11.9907 29.7831 11.825C29.7831 11.6593 29.9174 11.525 30.0831 11.525C30.2488 11.525 30.3831 11.6593 30.3831 11.825C30.3831 11.9907 30.2488 12.125 30.0831 12.125C30.3103 12.125 30.5261 12.137 30.7217 12.1584L30.7443 12.0682C30.7068 12.0318 30.6831 11.9814 30.6831 11.925C30.6831 11.8145 30.7727 11.725 30.8831 11.725C30.9936 11.725 31.0831 11.8145 31.0831 11.925C31.0831 12.0156 31.0216 12.0891 30.939 12.1137L30.9212 12.1847C31.0229 12.2004 31.1174 12.2186 31.2023 12.2394L31.3497 11.9445C31.0946 11.5493 30.765 11.2735 30.3953 11.1723C30.2936 11.1445 30.19 11.125 30.083 11.125C29.9762 11.125 29.8726 11.1444 29.7708 11.1723C29.401 11.2734 29.0715 11.5492 28.8164 11.9445L28.9638 12.2394C29.0487 12.2186 29.1434 12.2004 29.245 12.1847Z" fill="#EBEBEB"/>
<path d="M29.8832 28.5586V28.1219C29.8832 28.0751 29.8898 28.0301 29.8999 27.9864C29.8946 27.983 29.8888 27.9805 29.8832 27.9773C29.8241 27.943 29.7564 27.9219 29.6832 27.9219C29.61 27.9219 29.5423 27.943 29.4832 27.9773C29.3641 28.0466 29.2832 28.1741 29.2832 28.3219C29.2832 28.4295 29.3263 28.5267 29.3952 28.5985C29.481 28.5512 29.5783 28.5219 29.6831 28.5219C29.7538 28.5219 29.8204 28.5362 29.8832 28.5586Z" fill="#E6B432"/>
<path d="M30.283 26.9773C30.1639 27.0466 30.083 27.1741 30.083 27.3219C30.083 27.4295 30.1261 27.5267 30.195 27.5985C30.2808 27.5512 30.3781 27.5219 30.483 27.5219C30.5879 27.5219 30.685 27.5512 30.771 27.5985C30.84 27.5266 30.883 27.4295 30.883 27.3219C30.883 27.1742 30.8021 27.0466 30.683 26.9773C30.6239 26.943 30.5562 26.9219 30.483 26.9219C30.4098 26.9219 30.3421 26.943 30.283 26.9773Z" fill="#E6B432"/>
<path d="M30.195 27.6C30.0482 27.681 29.9386 27.8201 29.8997 27.988C29.8896 28.0316 29.883 28.0766 29.883 28.1234V28.5602C29.8202 28.5378 29.7536 28.5234 29.683 28.5234C29.5781 28.5234 29.4808 28.5527 29.395 28.6001C29.2099 28.7023 29.083 28.897 29.083 29.1234V29.9234H30.283V29.1234C30.283 29.0529 30.2686 28.9862 30.2463 28.9234H31.083V28.1234C31.083 27.897 30.9561 27.7023 30.771 27.6001C30.6852 27.5527 30.5879 27.5234 30.483 27.5234C30.3781 27.5234 30.2808 27.5527 30.195 27.6Z" fill="#FF4B57"/>
<path d="M30.2825 19.5577L30.6242 19.8995L30.7411 19.7827C30.7688 19.7549 30.8033 19.7406 30.839 19.7326L32.5305 18.0407L33.6139 19.1241L34.321 18.4171L34.0382 18.1343L33.8967 18.2757L33.6139 17.9929L33.7553 17.8515L33.6139 17.71L33.8967 17.4272L34.0382 17.5686L34.1796 17.4272L34.4624 17.71L34.321 17.8515L34.6038 18.1343L35.3108 17.4273L34.2271 16.3436L34.9687 15.6018C34.9329 15.5871 34.8993 15.5655 34.8703 15.5365L34.4703 15.1365C34.4404 15.1066 34.4186 15.072 34.4039 15.0352L30.2373 19.2029C30.2639 19.2369 30.2824 19.2777 30.2824 19.3243L30.2825 19.5577V19.5577Z" fill="#E6B432"/>
<path d="M29.8239 20.7493L29.2582 20.1836L27.4999 21.9425C27.3438 22.0988 27.3438 22.352 27.5 22.5081C27.5781 22.5863 27.6804 22.6253 27.7828 22.6253C27.8851 22.6253 27.9876 22.5863 28.0657 22.5081L29.4401 21.1334L29.8239 20.7493Z" fill="#E6B432"/>
<path d="M24.3648 22.8218C24.3759 22.7904 24.3832 22.7571 24.3832 22.7219C24.3832 22.5562 24.2489 22.4219 24.0832 22.4219C23.9175 22.4219 23.7832 22.5562 23.7832 22.7219C23.7832 22.8876 23.9175 23.0219 24.0832 23.0219C24.1184 23.0219 24.1517 23.0147 24.1831 23.0035C24.2398 22.9391 24.3005 22.8785 24.3648 22.8218Z" fill="#D2D2D2"/>
<path d="M24.1831 25.6434C24.1517 25.6323 24.1184 25.625 24.0832 25.625C23.9175 25.625 23.7832 25.7593 23.7832 25.925C23.7832 26.0907 23.9175 26.225 24.0832 26.225C24.2489 26.225 24.3832 26.0907 24.3832 25.925C24.3832 25.8898 24.376 25.8565 24.3648 25.8251C24.3005 25.7684 24.2398 25.7077 24.1831 25.6434Z" fill="#D2D2D2"/>
<path d="M27.1825 23.0035C27.2139 23.0146 27.2472 23.0219 27.2824 23.0219C27.4481 23.0219 27.5824 22.8876 27.5824 22.7219C27.5824 22.5562 27.4481 22.4219 27.2824 22.4219C27.1167 22.4219 26.9824 22.5562 26.9824 22.7219C26.9824 22.7571 26.9896 22.7904 27.0008 22.8218C27.0652 22.8785 27.1258 22.9391 27.1825 23.0035Z" fill="#D2D2D2"/>
<path d="M26.9824 25.9219C26.9824 26.0876 27.1167 26.2219 27.2824 26.2219C27.3748 26.2219 27.4564 26.1792 27.5115 26.1135C27.3234 26.0455 27.1478 25.9697 26.9859 25.8867C26.9846 25.8984 26.9824 25.9098 26.9824 25.9219Z" fill="#D2D2D2"/>
<path d="M25.3832 24.3234C25.3832 24.1577 25.2489 24.0234 25.0832 24.0234C25.001 24.0234 24.9266 24.0566 24.8725 24.1102C24.8174 24.1645 24.7832 24.24 24.7832 24.3234C24.7832 24.407 24.8174 24.4824 24.8725 24.5367C24.9267 24.5902 25.001 24.6234 25.0832 24.6234C25.2489 24.6234 25.3832 24.4891 25.3832 24.3234Z" fill="#F0C814"/>
<path d="M25.9834 24.3234C25.9834 24.4891 26.1177 24.6234 26.2834 24.6234C26.3656 24.6234 26.44 24.5902 26.4941 24.5367C26.5492 24.4823 26.5834 24.4069 26.5834 24.3234C26.5834 24.2399 26.5492 24.1645 26.4941 24.1102C26.4399 24.0566 26.3656 24.0234 26.2834 24.0234C26.1177 24.0234 25.9834 24.1577 25.9834 24.3234Z" fill="#F0C814"/>
<path d="M25.6828 24.0219C25.8485 24.0219 25.9828 23.8876 25.9828 23.7219C25.9828 23.6397 25.9496 23.5653 25.8961 23.5112C25.8417 23.4561 25.7663 23.4219 25.6828 23.4219C25.5993 23.4219 25.5238 23.4561 25.4695 23.5112C25.416 23.5654 25.3828 23.6397 25.3828 23.7219C25.3828 23.8876 25.5171 24.0219 25.6828 24.0219Z" fill="#F0C814"/>
<path d="M25.6828 24.6211C25.5171 24.6211 25.3828 24.7554 25.3828 24.9211C25.3828 25.0033 25.416 25.0777 25.4695 25.1318C25.5239 25.1869 25.5994 25.2211 25.6828 25.2211C25.7663 25.2211 25.8418 25.1869 25.8961 25.1318C25.9496 25.0777 25.9828 25.0033 25.9828 24.9211C25.9828 24.7554 25.8485 24.6211 25.6828 24.6211Z" fill="#F0C814"/>
<path d="M34.8705 15.5366C34.8996 15.5656 34.9332 15.5873 34.9689 15.6019C35.0053 15.6168 35.0439 15.6244 35.0826 15.6244C35.1593 15.6244 35.2361 15.5951 35.2946 15.5364C35.3986 15.4324 35.4049 15.2738 35.3244 15.157L35.435 14.7147C35.4507 14.7187 35.4657 14.7242 35.4826 14.7242C35.5931 14.7242 35.6826 14.6347 35.6826 14.5242C35.6826 14.4138 35.5931 14.3242 35.4826 14.3242C35.3721 14.3242 35.2826 14.4138 35.2826 14.5242C35.2826 14.5411 35.2883 14.5561 35.2921 14.5718L34.8499 14.6824C34.733 14.6019 34.5743 14.6082 34.4704 14.7122C34.3831 14.7995 34.3612 14.9272 34.4041 15.0352C34.4188 15.072 34.4406 15.1066 34.4704 15.1365L34.8705 15.5366Z" fill="#D2D2D2"/>
<path d="M29.8829 20.2415V20.1243V19.3243C29.8829 19.2777 29.9014 19.2369 29.928 19.2029L25.7614 15.0352C25.7467 15.072 25.7249 15.1066 25.695 15.1365L25.295 15.5365C25.266 15.5655 25.2324 15.5873 25.1966 15.6018L25.9382 16.3436L24.8545 17.4273L25.5615 18.1343L25.8443 17.8515L25.7029 17.71L25.9857 17.4272L26.1271 17.5686L26.2686 17.4272L26.5514 17.71L26.41 17.8515L26.5514 17.9929L26.2686 18.2757L26.1271 18.1343L25.8443 18.4171L26.5514 19.1241L27.6348 18.0407L29.3263 19.7326C29.362 19.7406 29.3964 19.7549 29.4243 19.7827L29.8829 20.2415Z" fill="#D2D2D2"/>
<path d="M30.3418 20.7494L30.7257 21.1334L32.1001 22.5081C32.1782 22.5862 32.2805 22.6253 32.383 22.6253C32.4854 22.6253 32.5877 22.5862 32.6659 22.5081C32.8222 22.3521 32.8222 22.0987 32.6659 21.9425L30.9076 20.1836L30.3418 20.7494Z" fill="#D2D2D2"/>
<path d="M30.2832 20.1249V20.2421L30.6249 19.9004L30.2832 19.5586V20.1249Z" fill="#D2D2D2"/>
<path d="M35.9833 23.0074C36.0147 23.0185 36.048 23.0258 36.0832 23.0258C36.2489 23.0258 36.3832 22.8915 36.3832 22.7258C36.3832 22.5601 36.2489 22.4258 36.0832 22.4258C35.9175 22.4258 35.7832 22.5601 35.7832 22.7258C35.7832 22.761 35.7904 22.7943 35.8016 22.8257C35.866 22.8824 35.9266 22.943 35.9833 23.0074Z" fill="#D2D2D2"/>
<path d="M36.0832 25.625C36.048 25.625 36.0147 25.6322 35.9833 25.6434C35.9266 25.7077 35.8659 25.7684 35.8016 25.8251C35.7905 25.8565 35.7832 25.8898 35.7832 25.925C35.7832 26.0907 35.9175 26.225 36.0832 26.225C36.2489 26.225 36.3832 26.0907 36.3832 25.925C36.3832 25.7593 36.2489 25.625 36.0832 25.625Z" fill="#D2D2D2"/>
<path d="M33.1646 22.8257C33.1757 22.7943 33.183 22.761 33.183 22.7258C33.183 22.5601 33.0487 22.4258 32.883 22.4258C32.7173 22.4258 32.583 22.5601 32.583 22.7258C32.583 22.8915 32.7173 23.0258 32.883 23.0258C32.9182 23.0258 32.9515 23.0186 32.9829 23.0074C33.0396 22.943 33.1003 22.8824 33.1646 22.8257Z" fill="#D2D2D2"/>
<path d="M32.8833 26.2258C33.049 26.2258 33.1833 26.0915 33.1833 25.9258C33.1833 25.9138 33.1811 25.9023 33.1798 25.8906C33.018 25.9737 32.8423 26.0495 32.6543 26.1175C32.7094 26.1832 32.7909 26.2258 32.8833 26.2258Z" fill="#D2D2D2"/>
<path fill-rule="evenodd" clip-rule="evenodd" d="M35.9825 25.6426C36.2926 25.2902 36.4824 24.8295 36.4824 24.3242C36.4824 23.819 36.2926 23.3583 35.9825 23.0059C35.9258 22.9415 35.8652 22.8808 35.8008 22.8241C35.4484 22.5141 34.9877 22.3242 34.4824 22.3242C33.9772 22.3242 33.5165 22.5141 33.1641 22.8241C33.0997 22.8809 33.039 22.9415 32.9823 23.0059C32.6723 23.3583 32.4824 23.819 32.4824 24.3242C32.4824 24.4429 32.4948 24.5586 32.5147 24.6717C32.5595 24.9261 32.6525 25.1634 32.784 25.3752C32.8263 25.4432 32.8715 25.5088 32.9213 25.5712C33.0868 25.4916 33.2358 25.4046 33.3652 25.311C33.3662 25.3102 33.3673 25.3099 33.3684 25.3095C33.3695 25.3091 33.3706 25.3087 33.3716 25.308C33.3156 25.2273 33.2824 25.1297 33.2824 25.0242C33.2824 24.7866 33.4493 24.5882 33.6717 24.5375C33.6166 24.4831 33.5824 24.4077 33.5824 24.3242C33.5824 24.2407 33.6166 24.1652 33.6717 24.1109C33.4493 24.0603 33.2824 23.8619 33.2824 23.6242C33.2824 23.3484 33.5067 23.1242 33.7824 23.1242C34.0199 23.1242 34.2184 23.291 34.2691 23.5135C34.3235 23.4584 34.399 23.4242 34.4824 23.4242C34.5659 23.4242 34.6414 23.4584 34.6957 23.5135C34.7464 23.291 34.9448 23.1242 35.1824 23.1242C35.4581 23.1242 35.6824 23.3484 35.6824 23.6242C35.6824 23.8618 35.5155 24.0602 35.2931 24.1109C35.3482 24.1653 35.3824 24.2408 35.3824 24.3242C35.3824 24.4077 35.3482 24.4832 35.2931 24.5375C35.5155 24.5881 35.6824 24.7866 35.6824 25.0242C35.6824 25.3 35.4581 25.5242 35.1824 25.5242C34.9449 25.5242 34.7464 25.3574 34.6957 25.1349C34.6413 25.19 34.5659 25.2242 34.4824 25.2242C34.399 25.2242 34.3234 25.19 34.2691 25.1349C34.2184 25.3574 34.02 25.5242 33.7824 25.5242C33.7463 25.5242 33.711 25.5199 33.6769 25.5126C33.6672 25.5599 33.6419 25.6043 33.5996 25.6348C33.4838 25.7188 33.3543 25.7968 33.2152 25.8702C33.5604 26.1537 34.0018 26.3243 34.4823 26.3243C34.9876 26.3243 35.4483 26.1345 35.8007 25.8244C35.8652 25.7677 35.9258 25.707 35.9825 25.6426ZM32.9363 24.7291C32.9024 24.5997 32.8824 24.4646 32.8824 24.3246C32.8824 24.1846 32.9024 24.0495 32.9363 23.9201C32.9928 24.0812 33.093 24.2201 33.2238 24.3246C33.093 24.4292 32.9928 24.568 32.9363 24.7291ZM34.0779 22.7782C34.239 22.8347 34.3777 22.9349 34.4824 23.0657C34.5871 22.9349 34.7259 22.8347 34.887 22.7782C34.7575 22.7443 34.6224 22.7243 34.4824 22.7243C34.3424 22.7243 34.2074 22.7443 34.0779 22.7782ZM36.0286 23.9199C36.0626 24.0493 36.0825 24.1845 36.0825 24.3244C36.0825 24.4643 36.0626 24.5995 36.0286 24.7289C35.9721 24.5678 35.872 24.429 35.7412 24.3244C35.872 24.2198 35.9721 24.0809 36.0286 23.9199ZM34.4824 25.5831C34.3778 25.7139 34.239 25.814 34.0779 25.8705C34.2074 25.9044 34.3424 25.9244 34.4824 25.9244C34.6224 25.9244 34.7575 25.9045 34.887 25.8705C34.7259 25.8141 34.5871 25.7139 34.4824 25.5831Z" fill="#E6B432"/>
<path d="M34.7832 24.3234C34.7832 24.4891 34.9175 24.6234 35.0832 24.6234C35.1654 24.6234 35.2398 24.5902 35.2939 24.5367C35.349 24.4823 35.3832 24.4069 35.3832 24.3234C35.3832 24.2399 35.349 24.1645 35.2939 24.1102C35.2397 24.0566 35.1654 24.0234 35.0832 24.0234C34.9175 24.0234 34.7832 24.1577 34.7832 24.3234Z" fill="#F0C814"/>
<path d="M34.183 24.3234C34.183 24.1577 34.0487 24.0234 33.883 24.0234C33.8008 24.0234 33.7264 24.0566 33.6723 24.1102C33.6172 24.1645 33.583 24.24 33.583 24.3234C33.583 24.407 33.6172 24.4824 33.6723 24.5367C33.7265 24.5902 33.8008 24.6234 33.883 24.6234C34.0487 24.6234 34.183 24.4891 34.183 24.3234Z" fill="#F0C814"/>
<path d="M34.4826 24.0219C34.6483 24.0219 34.7826 23.8876 34.7826 23.7219C34.7826 23.6397 34.7494 23.5653 34.6959 23.5112C34.6415 23.4561 34.5661 23.4219 34.4826 23.4219C34.3992 23.4219 34.3236 23.4561 34.2693 23.5112C34.2158 23.5654 34.1826 23.6397 34.1826 23.7219C34.1826 23.8876 34.3169 24.0219 34.4826 24.0219Z" fill="#F0C814"/>
<path d="M34.4826 24.6211C34.3169 24.6211 34.1826 24.7554 34.1826 24.9211C34.1826 25.0033 34.2158 25.0777 34.2693 25.1318C34.3237 25.1869 34.3992 25.2211 34.4826 25.2211C34.5661 25.2211 34.6416 25.1869 34.6959 25.1318C34.7494 25.0777 34.7826 25.0033 34.7826 24.9211C34.7826 24.7554 34.6483 24.6211 34.4826 24.6211Z" fill="#F0C814"/>
<path d="M25.6946 15.1365C25.7245 15.1066 25.7463 15.072 25.7609 15.0352C25.8038 14.9272 25.782 14.7996 25.6946 14.7122C25.5906 14.6082 25.432 14.602 25.3152 14.6824L24.8729 14.5718C24.8769 14.5561 24.8824 14.5411 24.8824 14.5242C24.8824 14.4137 24.7929 14.3242 24.6824 14.3242C24.572 14.3242 24.4824 14.4137 24.4824 14.5242C24.4824 14.6347 24.572 14.7242 24.6824 14.7242C24.6993 14.7242 24.7143 14.7185 24.73 14.7147L24.8406 15.157C24.7601 15.2738 24.7664 15.4325 24.8704 15.5364C24.929 15.595 25.0057 15.6244 25.0824 15.6244C25.1211 15.6244 25.1598 15.6167 25.1961 15.6019C25.2319 15.5872 25.2655 15.5655 25.2945 15.5366L25.6946 15.1365Z" fill="#F7B518"/>
<path fill-rule="evenodd" clip-rule="evenodd" d="M33.6774 25.5132C33.6676 25.5605 33.6424 25.6049 33.6001 25.6355C33.4843 25.7193 33.3548 25.7975 33.2155 25.8706L33.1791 25.8896C33.0173 25.9727 32.8417 26.0484 32.6536 26.1165C32.0857 26.322 31.4089 26.4564 30.6826 26.5045V26.9803C30.6235 26.9459 30.5558 26.9248 30.4826 26.9248C30.4094 26.9248 30.3417 26.946 30.2826 26.9803V26.522C30.2763 26.5221 30.27 26.5222 30.2638 26.5223C30.2035 26.5235 30.1433 26.5248 30.0826 26.5248C30.0156 26.5248 29.9491 26.5234 29.8826 26.522V27.9803C29.8235 27.9459 29.7558 27.9248 29.6826 27.9248C29.6094 27.9248 29.5417 27.946 29.4826 27.9803V26.5045C28.7563 26.4564 28.0796 26.322 27.5117 26.1165C27.3236 26.0485 27.1478 25.9727 26.9861 25.8897L26.9497 25.8707C26.8105 25.7973 26.6808 25.7191 26.5649 25.6352C26.5228 25.6047 26.4976 25.5604 26.4878 25.5132C26.4768 25.4601 26.4859 25.4032 26.5202 25.3559C26.5838 25.2687 26.7045 25.2484 26.7935 25.3086C26.7943 25.3092 26.7953 25.3095 26.7963 25.3098C26.7974 25.3102 26.7985 25.3106 26.7995 25.3113C26.9288 25.405 27.078 25.492 27.2436 25.5717C27.8301 25.8537 28.6239 26.042 29.4826 26.1027V23.2935C28.6097 24.4855 27.7596 25.1262 27.381 25.3757C27.5129 25.1636 27.6059 24.9255 27.6506 24.6705C28.1349 24.2691 28.8195 23.5956 29.4826 22.5834V21.2261C29.4765 21.2127 29.4704 21.1995 29.4643 21.1862C29.4561 21.1686 29.448 21.151 29.4399 21.133L29.8238 20.749L29.2581 20.1833L29.1413 20.0664C29.0631 19.9883 29.0631 19.8617 29.1413 19.7836C29.1917 19.7333 29.2615 19.719 29.3262 19.7335C29.3619 19.7416 29.3964 19.7559 29.4242 19.7836L29.8828 20.2422V20.125V19.325C29.8828 19.2784 29.9012 19.2376 29.9278 19.2036C29.9645 19.1569 30.0188 19.125 30.0828 19.125C30.1467 19.125 30.201 19.1569 30.2377 19.2036C30.2643 19.2376 30.2828 19.2784 30.2828 19.325V19.5586V20.125V20.2422L30.6245 19.9005L30.7413 19.7836C30.7692 19.7559 30.8036 19.7416 30.8393 19.7335C30.904 19.7189 30.9739 19.7333 31.0242 19.7836C31.1024 19.8617 31.1024 19.9883 31.0242 20.0664L30.9074 20.1833L30.3417 20.749L30.7256 21.133C30.7174 21.1513 30.7091 21.1692 30.7008 21.1871C30.6948 21.2001 30.6888 21.213 30.6829 21.2261V22.5851C31.3467 23.5993 32.0311 24.272 32.5152 24.6724C32.56 24.9268 32.653 25.1641 32.7845 25.3759C32.4059 25.1263 31.5557 24.4856 30.6829 23.2937V26.1029C31.5416 26.042 32.3354 25.8539 32.9218 25.5718C33.0873 25.4923 33.2363 25.4052 33.3656 25.3116C33.3667 25.3109 33.3678 25.3105 33.3689 25.3101C33.37 25.3097 33.3711 25.3094 33.3721 25.3087C33.461 25.2488 33.5815 25.2689 33.6449 25.3562C33.6791 25.4034 33.6882 25.4602 33.6774 25.5132ZM29.8828 26.1219C29.9493 26.1235 30.016 26.1249 30.0828 26.1249C30.1498 26.1249 30.2164 26.1236 30.2828 26.1219V22.7086C30.2158 22.6033 30.1492 22.4939 30.0828 22.3816C30.0165 22.4938 29.9499 22.6033 29.8828 22.7086V26.1219Z" fill="#FF4B55"/>
<path d="M30.0829 14.6806C31.1874 14.6806 32.0828 14.8697 32.0828 15.1029C32.0828 14.7105 32.0828 14.3277 32.0828 14.268C32.0828 14.1762 31.9982 14.0898 31.8502 14.0141L31.8961 13.9224C31.9686 13.9174 32.0289 13.8736 32.06 13.8124C32.0734 13.7859 32.083 13.7571 32.083 13.7251C32.083 13.6866 32.0693 13.6527 32.0504 13.6223C32.0152 13.5652 31.955 13.5251 31.883 13.5251C31.7725 13.5251 31.683 13.6146 31.683 13.7251C31.683 13.7651 31.6978 13.8002 31.718 13.8315L31.6653 13.9367C31.5144 13.8837 31.3285 13.8386 31.1164 13.8037L31.1389 13.7137C31.2215 13.6891 31.283 13.6155 31.283 13.525C31.283 13.4145 31.1935 13.325 31.083 13.325C30.9725 13.325 30.883 13.4145 30.883 13.525C30.883 13.5814 30.9067 13.6318 30.9442 13.6682L30.9175 13.775C30.806 13.761 30.6892 13.75 30.5679 13.7417C30.577 13.7041 30.583 13.6653 30.583 13.625C30.583 13.3489 30.3591 13.125 30.083 13.125C29.8069 13.125 29.583 13.3489 29.583 13.625C29.583 13.6655 29.589 13.7041 29.5981 13.7417C29.4767 13.7499 29.3599 13.761 29.2486 13.775L29.2218 13.6682C29.2593 13.6318 29.283 13.5814 29.283 13.525C29.283 13.4145 29.1935 13.325 29.083 13.325C28.9725 13.325 28.883 13.4145 28.883 13.525C28.883 13.6156 28.9445 13.6891 29.0271 13.7137L29.0496 13.8037C28.8376 13.8385 28.6516 13.8836 28.5007 13.9367L28.448 13.8315C28.4682 13.8002 28.483 13.7651 28.483 13.7251C28.483 13.6146 28.3935 13.5251 28.283 13.5251C28.2111 13.5251 28.1507 13.5652 28.1156 13.6223C28.0968 13.6528 28.083 13.6866 28.083 13.7251C28.083 13.757 28.0925 13.7859 28.106 13.8124C28.137 13.8736 28.1974 13.9174 28.2699 13.9224L28.3157 14.0141C28.1677 14.0898 28.0831 14.1761 28.0831 14.268C28.0831 14.3278 28.0831 14.7105 28.0831 15.1029C28.0829 14.8697 28.9783 14.6806 30.0829 14.6806Z" fill="#E6B432"/>
<path d="M28.0827 15.1244L28.0852 15.1234C28.0846 15.1166 28.0827 15.1076 28.0827 15.1022C28.0827 15.1097 28.0827 15.117 28.0827 15.1244Z" fill="#E6B432"/>
<path d="M32.0823 15.1244C32.0823 15.117 32.0823 15.1096 32.0823 15.1021C32.0823 15.1076 32.0804 15.1167 32.0798 15.1233L32.0823 15.1244Z" fill="#E6B432"/>
<path d="M28.483 15.5241C28.483 15.5641 28.4682 15.5992 28.448 15.6305L28.5238 15.7821C28.6561 15.7165 28.8369 15.6602 29.0531 15.617L29.0271 15.5128C28.9444 15.4883 28.8829 15.4147 28.8829 15.3241C28.8829 15.2137 28.9725 15.1241 29.0829 15.1241C29.1934 15.1241 29.2829 15.2137 29.2829 15.3241C29.2829 15.3805 29.2593 15.4309 29.2218 15.4673L29.2507 15.5827C29.4436 15.5538 29.6568 15.5346 29.883 15.5275V15.3463C29.8221 15.2914 29.783 15.2127 29.783 15.1241C29.783 14.9584 29.9173 14.8241 30.083 14.8241C30.2487 14.8241 30.383 14.9584 30.383 15.1241C30.383 15.2127 30.3439 15.2914 30.283 15.3463V15.5275C30.5092 15.5347 30.7224 15.5539 30.9154 15.5827L30.9443 15.4673C30.9068 15.4309 30.8831 15.3805 30.8831 15.3241C30.8831 15.2137 30.9726 15.1241 31.0831 15.1241C31.1936 15.1241 31.2831 15.2137 31.2831 15.3241C31.2831 15.4148 31.2216 15.4883 31.1389 15.5128L31.1129 15.617C31.3291 15.6602 31.51 15.7166 31.6422 15.7821L31.718 15.6305C31.6978 15.5991 31.683 15.5641 31.683 15.5241C31.683 15.4136 31.7725 15.3241 31.883 15.3241C31.9308 15.3241 31.973 15.3432 32.0074 15.3713C32.0519 15.262 32.0756 15.1752 32.0805 15.1231C32.0811 15.1164 32.083 15.1073 32.083 15.102C32.083 14.8688 31.1875 14.6797 30.083 14.6797C28.9785 14.6797 28.083 14.8688 28.083 15.102C28.083 15.1074 28.0849 15.1165 28.0855 15.1231C28.0904 15.1752 28.114 15.262 28.1586 15.3713C28.1929 15.3432 28.2351 15.3241 28.2829 15.3241C28.3935 15.3241 28.483 15.4137 28.483 15.5241Z" fill="#EBEBEB"/>
<path d="M28.083 15.5241C28.083 15.6299 28.1658 15.7144 28.2698 15.7215L28.3561 15.8941C28.3093 15.9399 28.2829 15.9882 28.2829 16.0384C28.2829 16.096 28.3177 16.1514 28.379 16.2032L28.6829 16.7241C28.6829 16.5032 29.3097 16.3241 30.0829 16.3241C30.8561 16.3241 31.4829 16.5032 31.4829 16.7241L31.7868 16.2032C31.8482 16.1514 31.8829 16.0962 31.8829 16.0384C31.8829 15.9882 31.8566 15.9399 31.8097 15.8941L31.8961 15.7215C32 15.7143 32.0829 15.6299 32.0829 15.5241C32.0829 15.4616 32.0524 15.408 32.0073 15.3713C31.9729 15.3433 31.9307 15.3241 31.8829 15.3241C31.7725 15.3241 31.6829 15.4137 31.6829 15.5241C31.6829 15.5641 31.6977 15.5993 31.7179 15.6305L31.6421 15.7822C31.5098 15.7166 31.329 15.6602 31.1128 15.617L31.1389 15.5129C31.2215 15.4884 31.283 15.4148 31.283 15.3242C31.283 15.2138 31.1935 15.1242 31.083 15.1242C30.9725 15.1242 30.883 15.2138 30.883 15.3242C30.883 15.3806 30.9067 15.431 30.9442 15.4674L30.9153 15.5827C30.7223 15.5539 30.5092 15.5347 30.2829 15.5276V15.3464C30.3439 15.2915 30.3829 15.2128 30.3829 15.1242C30.3829 14.9585 30.2486 14.8242 30.0829 14.8242C29.9172 14.8242 29.7829 14.9585 29.7829 15.1242C29.7829 15.2127 29.822 15.2915 29.8829 15.3464V15.5276C29.6568 15.5348 29.4436 15.554 29.2506 15.5827L29.2217 15.4674C29.2592 15.431 29.2829 15.3806 29.2829 15.3242C29.2829 15.2138 29.1933 15.1242 29.0829 15.1242C28.9724 15.1242 28.8829 15.2138 28.8829 15.3242C28.8829 15.4148 28.9443 15.4884 29.027 15.5129L29.053 15.617C28.8368 15.6602 28.656 15.7167 28.5237 15.7822L28.4479 15.6305C28.4682 15.5992 28.4829 15.5641 28.4829 15.5241C28.4829 15.4137 28.3934 15.3241 28.2829 15.3241C28.2351 15.3241 28.1929 15.3433 28.1586 15.3713C28.1136 15.408 28.083 15.4616 28.083 15.5241Z" fill="#E6B432"/>
<ellipse cx="30.0826" cy="16.7242" rx="1.4" ry="0.4" fill="#EBEBEB"/>
<path d="M32.0352 13.3154L31.683 12.5232C31.683 12.4732 31.6447 12.4256 31.5776 12.3814L31.8619 11.8128C31.9112 11.7139 31.8712 11.5938 31.7724 11.5444C31.6734 11.4953 31.5534 11.5353 31.5041 11.6339L31.3496 11.9428L31.2022 12.2377C31.1173 12.2169 31.0227 12.1987 30.9212 12.183L30.9389 12.112C31.0216 12.0875 31.083 12.0139 31.083 11.9233C31.083 11.8128 30.9935 11.7233 30.883 11.7233C30.7726 11.7233 30.683 11.8128 30.683 11.9233C30.683 11.9797 30.7067 12.0301 30.7442 12.0665L30.7216 12.1567C30.5259 12.1353 30.3102 12.1233 30.083 12.1233C29.8559 12.1233 29.6401 12.1353 29.4445 12.1567L29.4219 12.0665C29.4594 12.0301 29.483 11.9797 29.483 11.9233C29.483 11.8128 29.3935 11.7233 29.283 11.7233C29.1726 11.7233 29.083 11.8128 29.083 11.9233C29.083 12.0139 29.1445 12.0875 29.2272 12.112L29.2449 12.183C29.1433 12.1987 29.0487 12.2169 28.9638 12.2377L28.8164 11.9428L28.662 11.6339C28.6125 11.5353 28.4927 11.4954 28.3936 11.5444C28.2948 11.5938 28.2547 11.7139 28.3041 11.8128L28.5884 12.3814C28.5214 12.4256 28.483 12.4732 28.483 12.5232L28.1309 13.3154C28.3284 13.0912 29.1266 12.9232 30.083 12.9232C31.0394 12.9232 31.8377 13.0911 32.0352 13.3154Z" fill="#E6B432"/>
<ellipse cx="30.0832" cy="11.8234" rx="0.3" ry="0.3" fill="#E6B432"/>
</g>
</svg>
