<svg width="40" height="40" viewBox="0 0 40 40" fill="none" xmlns="http://www.w3.org/2000/svg">
<rect x="0.214286" y="5.92913" width="39.5714" height="28.1429" rx="1.5" fill="white" stroke="#F5F5F5" stroke-width="0.428571"/>
<mask id="mask0_101_3708" style="mask-type:luminance" maskUnits="userSpaceOnUse" x="0" y="5" width="40" height="30">
<rect x="0.214286" y="5.92913" width="39.5714" height="28.1429" rx="1.5" fill="white" stroke="white" stroke-width="0.428571"/>
</mask>
<g mask="url(#mask0_101_3708)">
<path fill-rule="evenodd" clip-rule="evenodd" d="M0 7.42913C0 6.48236 0.767512 5.71484 1.71429 5.71484L3.63651 5.71484C3.74932 5.71484 3.85961 5.74824 3.95348 5.81082L23.526 18.8592C24.4669 19.4864 24.0228 20.9529 22.8921 20.9529H11.4286L24.3776 32.2833C25.1718 32.9782 24.6803 34.2863 23.625 34.2863H1.71428C0.76751 34.2863 0 33.5188 0 32.572V7.42913Z" fill="white"/>
</g>
<mask id="mask1_101_3708" style="mask-type:luminance" maskUnits="userSpaceOnUse" x="0" y="5" width="25" height="30">
<path fill-rule="evenodd" clip-rule="evenodd" d="M0 7.42913C0 6.48236 0.767512 5.71484 1.71429 5.71484L3.63651 5.71484C3.74932 5.71484 3.85961 5.74824 3.95348 5.81082L23.526 18.8592C24.4669 19.4864 24.0228 20.9529 22.8921 20.9529H11.4286L24.3776 32.2833C25.1718 32.9782 24.6803 34.2863 23.625 34.2863H1.71428C0.76751 34.2863 0 33.5188 0 32.572V7.42913Z" fill="white"/>
</mask>
<g mask="url(#mask1_101_3708)">
<path d="M23.625 33.7148H0.571429V6.28627H3.63651L23.209 19.3346C23.6795 19.6482 23.4574 20.3815 22.8921 20.3815H11.4286C11.1905 20.3815 10.9774 20.5291 10.8937 20.752C10.8099 20.9748 10.8731 21.2262 11.0523 21.383L24.0013 32.7134C24.3984 33.0608 24.1527 33.7148 23.625 33.7148Z" fill="#EE1B44" stroke="#0543A8" stroke-width="1.14286" stroke-linejoin="round"/>
<path fill-rule="evenodd" clip-rule="evenodd" d="M7.61909 28.5737L6.16125 30.1884L6.27222 28.0158L4.09955 28.1267L5.71433 26.6689L4.09955 25.2111L6.27222 25.322L6.16125 23.1494L7.61909 24.7641L9.07694 23.1494L8.96596 25.322L11.1386 25.2111L9.52386 26.6689L11.1386 28.1267L8.96596 28.0158L9.07694 30.1884L7.61909 28.5737Z" fill="white"/>
<ellipse cx="7.61617" cy="15.2392" rx="3.80952" ry="3.80952" fill="white"/>
<ellipse cx="7.61565" cy="13.333" rx="5.71429" ry="3.80952" fill="white"/>
<path fill-rule="evenodd" clip-rule="evenodd" d="M7.61886 17.6177L6.52548 18.8288L6.60871 17.1993L4.97921 17.2826L6.19029 16.1892L4.97921 15.0958L6.60871 15.179L6.52548 13.5495L7.61886 14.7606L8.71224 13.5495L8.62901 15.179L10.2585 15.0958L9.04743 16.1892L10.2585 17.2826L8.62901 17.1993L8.71224 18.8288L7.61886 17.6177Z" fill="white"/>
</g>
</svg>
