<svg width="40" height="40" viewBox="0 0 40 40" fill="none" xmlns="http://www.w3.org/2000/svg">
<rect y="5.71484" width="40" height="28.5714" rx="4" fill="white"/>
<mask id="mask0_101_3362" style="mask-type:luminance" maskUnits="userSpaceOnUse" x="0" y="5" width="40" height="30">
<rect y="5.71484" width="40" height="28.5714" rx="4" fill="white"/>
</mask>
<g mask="url(#mask0_101_3362)">
<rect x="-8.57129" y="5.71484" width="57.1429" height="28.5714" fill="#CE1126"/>
<path d="M25.498 19.209C25.647 19.2309 25.718 19.2415 25.7978 19.2539C26.6504 19.3867 27.1259 19.554 27.4484 19.9306L27.6735 20.1935L27.3392 20.1038C27.0524 20.0267 26.7555 20.1357 26.1837 20.4717L26.1086 20.5159C25.4561 20.9011 25.1338 21.0392 24.8035 20.9701C24.7912 20.9828 24.7762 20.9944 24.7584 21.0046C24.7025 21.0363 24.6128 21.0589 24.4824 21.078C24.2543 21.1114 23.894 21.1336 23.4114 21.1458C22.5671 21.1672 21.3659 21.1574 19.9324 21.1226C18.7848 21.0948 17.5369 21.0517 16.4893 21.0065C16.0559 20.9878 15.6942 20.9702 15.4703 20.9571C15.3605 20.9507 15.2872 20.9455 15.2529 20.9417C15.2397 20.9403 15.2397 20.9403 15.2234 20.9371C15.2159 20.9407 15.2138 20.9417 15.1879 20.9127C15.0196 20.8719 14.8333 20.8402 14.5026 20.7915C14.3537 20.7697 14.2826 20.7591 14.2028 20.7467C13.3502 20.6139 12.8747 20.4466 12.5523 20.07L12.3271 19.807L12.6614 19.8968C12.9482 19.9738 13.2451 19.8648 13.8169 19.5289L13.892 19.4846C14.3323 19.2247 14.6223 19.0773 14.8658 19.0302C14.83 19.0099 14.7923 18.989 14.7525 18.9671C14.6718 18.9228 14.3876 18.77 14.3602 18.7551C13.539 18.3095 13.1441 17.9938 12.9764 17.5158L12.8661 17.2016L13.1389 17.3925C13.389 17.5675 13.7019 17.5626 14.4065 17.4316L14.4441 17.4246C14.9407 17.332 15.2618 17.2927 15.5047 17.3302C15.4261 17.2405 15.3184 17.1202 15.159 16.9424C14.501 16.2086 14.2356 15.7821 14.2494 15.2622L14.258 14.9374L14.4443 15.2036C14.6204 15.4552 14.9122 15.5543 15.6368 15.6733L15.6636 15.6777C16.1592 15.759 16.4744 15.8321 16.6901 15.952C16.65 15.8449 16.5972 15.7091 16.5236 15.5212C16.4477 15.3278 16.4002 15.2022 16.3546 15.0721C16.1351 14.4453 16.0748 13.9882 16.2153 13.585L16.3298 13.2565L16.42 13.5925C16.5002 13.8916 16.737 14.0809 17.3871 14.4465L17.4051 14.4566C17.8394 14.7009 18.1095 14.8776 18.2719 15.0658C18.27 14.9587 18.2658 14.8302 18.2595 14.6655C18.2541 14.5224 18.2516 14.4512 18.2494 14.3673C18.228 13.5372 18.3152 13.044 18.6409 12.6743L18.8564 12.4297L18.828 12.7545C18.8011 13.0622 18.9587 13.3195 19.4467 13.886C19.4903 13.9367 19.4903 13.9367 19.534 13.9876C19.8096 14.31 19.9837 14.5535 20.0658 14.7775C20.0902 14.7108 20.1161 14.6373 20.1447 14.5549C20.1517 14.5347 20.2408 14.2754 20.2678 14.1984C20.5659 13.3472 20.8104 12.9041 21.2238 12.6535L21.5255 12.4707L21.3765 12.7904C21.2477 13.0667 21.3086 13.3584 21.5749 14.0471L21.5772 14.0531C21.7611 14.5287 21.8587 14.8428 21.8617 15.0947C21.8853 15.066 21.9098 15.0359 21.9356 15.0038C21.9904 14.9357 22.1834 14.6919 22.189 14.6849C22.783 13.939 23.1604 13.6038 23.6655 13.5148L24.0001 13.4558L23.7599 13.696C23.5412 13.9148 23.4938 14.2177 23.5003 14.9549L23.5004 14.9738C23.5049 15.4815 23.4868 15.8053 23.4048 16.0403C23.5054 15.98 23.6366 15.8992 23.826 15.782C24.2898 15.495 24.5619 15.3484 24.8621 15.2457C25.1477 15.1479 25.4113 15.116 25.6624 15.1595L25.9992 15.2178L25.6894 15.3622C25.4082 15.4932 25.2603 15.7616 25.0122 16.4615L25.0043 16.4837C24.837 16.9556 24.7095 17.2517 24.5528 17.4436C24.6627 17.4229 24.7981 17.3954 24.9792 17.3578C25.1424 17.3239 25.2414 17.304 25.3469 17.2845C26.08 17.1491 26.5674 17.1583 26.9755 17.3868L27.279 17.5567L26.9325 17.587C26.6253 17.6139 26.4021 17.8114 25.933 18.3869L25.929 18.3919C25.6051 18.7893 25.3809 19.029 25.1619 19.157C25.2562 19.1727 25.3655 19.1895 25.498 19.209Z" fill="#BD9C08"/>
<path d="M25.7645 19.4657C25.6856 19.4534 25.6154 19.443 25.4665 19.4211C25.0741 19.3633 24.8793 19.3288 24.6761 19.2743L23.8909 19.0637H24.7038C25.0336 19.0637 25.2678 18.8637 25.7626 18.2566L25.7666 18.2516C26.1223 17.8152 26.3503 17.5768 26.5884 17.461C26.2821 17.3809 25.9021 17.3999 25.3856 17.4954C25.282 17.5145 25.1842 17.5341 25.0225 17.5677C24.5336 17.6691 24.3711 17.6988 24.1455 17.7185L23.3465 17.7884L24.0992 17.5113C24.3943 17.4026 24.5451 17.137 24.802 16.4122L24.8099 16.39C24.9988 15.8573 25.1357 15.5521 25.3235 15.3602C25.1993 15.3716 25.069 15.4013 24.9312 15.4485C24.6509 15.5444 24.389 15.6855 23.9385 15.9643C23.4196 16.2854 23.3294 16.3387 23.1158 16.4384L22.3953 16.7745L23.0011 16.2597C23.2428 16.0543 23.2927 15.7545 23.2859 14.9757L23.2857 14.9569C23.2807 14.3932 23.3053 14.0601 23.4173 13.8156C23.0988 13.9633 22.7907 14.273 22.3563 14.8185C22.3512 14.8248 22.1577 15.0694 22.1022 15.1383C22.0057 15.2582 21.9259 15.3534 21.849 15.4392C21.8008 15.493 21.7544 15.5422 21.7091 15.5876L21.032 16.2645L21.5427 15.4546C21.7194 15.1745 21.6637 14.8718 21.377 14.1305L21.3747 14.1244C21.1746 13.6069 21.0805 13.2925 21.0958 13.0312C20.8655 13.2755 20.6831 13.66 20.4698 14.2693C20.443 14.3456 20.3541 14.6044 20.3469 14.6252C20.2461 14.9159 20.1759 15.1001 20.0971 15.2692L19.734 16.0482L19.8948 15.2039C19.9512 14.9073 19.7986 14.6274 19.3708 14.1269C19.3276 14.0765 19.3276 14.0765 19.284 14.0259C18.9067 13.588 18.7098 13.3176 18.64 13.057C18.4917 13.3561 18.4479 13.7617 18.4633 14.3619C18.4655 14.4446 18.4679 14.5152 18.4734 14.6574C18.4908 15.1147 18.4927 15.3005 18.4734 15.5211L18.4018 16.3402L18.2611 15.5301C18.2067 15.2165 17.9698 15.0203 17.2998 14.6435L17.2818 14.6334C16.7904 14.357 16.5142 14.1715 16.3574 13.9562C16.3381 14.2405 16.4077 14.5762 16.5566 15.0013C16.6011 15.1284 16.6479 15.2519 16.7228 15.4431C16.926 15.9618 16.9734 16.0904 17.0331 16.3137L17.2613 17.1683L16.8356 16.3929C16.6844 16.1174 16.3975 16.0154 15.6286 15.8892L15.6018 15.8848C15.0404 15.7926 14.7151 15.7104 14.4935 15.5547C14.5765 15.8982 14.8327 16.258 15.3183 16.7994C15.7716 17.305 15.8137 17.3537 15.9516 17.5503L16.4494 18.2607L15.7937 17.6928C15.5576 17.4883 15.256 17.4913 14.483 17.6353L14.4454 17.6423C13.904 17.743 13.5718 17.7752 13.3115 17.7068C13.5076 17.9926 13.8622 18.2413 14.4621 18.5669C14.4887 18.5813 14.7736 18.7345 14.8553 18.7793C15.0681 18.8962 15.2229 18.9887 15.3576 19.0831L16.0357 19.5576L15.2591 19.2714C14.9623 19.162 14.6799 19.2683 14.0006 19.6692L13.9251 19.7137C13.4914 19.9685 13.1985 20.1051 12.9375 20.1315C13.2167 20.3257 13.6187 20.439 14.2355 20.535C14.3145 20.5473 14.3847 20.5578 14.5335 20.5796C14.9259 20.6374 15.1207 20.6719 15.324 20.7264L15.3575 20.7354C15.3911 20.7377 15.433 20.7403 15.4825 20.7432C15.7052 20.7563 16.0659 20.7738 16.4982 20.7925C17.5445 20.8377 18.7911 20.8807 19.9373 20.9085C21.3676 20.9432 22.5657 20.953 23.4057 20.9317C23.8803 20.9197 24.2336 20.8979 24.4511 20.8661C24.4867 20.8609 24.5183 20.8554 24.5455 20.8498L23.9643 20.4431L24.7409 20.7294C25.0377 20.8388 25.3201 20.7325 25.9994 20.3315L26.0749 20.287C26.5086 20.0322 26.8016 19.8956 27.0625 19.8693C26.7833 19.675 26.3814 19.5618 25.7645 19.4657Z" fill="#FCD116"/>
<path d="M15.7506 20.0009L12.9847 18.8705C12.8781 18.827 12.9059 18.6688 13.0211 18.6643L16.0068 18.5478L13.7942 16.5393C13.7089 16.4618 13.7892 16.3227 13.8989 16.3579L16.7445 17.2702L15.3523 14.6262C15.2987 14.5243 15.4217 14.4211 15.5128 14.4916L17.8751 16.3214L17.4715 13.3612C17.4559 13.247 17.6068 13.1921 17.6683 13.2896L19.2618 15.8172L19.8948 12.8969C19.9192 12.7844 20.0798 12.7844 20.1042 12.8969L20.7373 15.8172L22.3308 13.2896C22.3922 13.1921 22.5432 13.247 22.5276 13.3612L22.124 16.3214L24.4853 14.4916C24.5764 14.4211 24.6994 14.5243 24.6458 14.6262L23.2545 17.2702L26.0992 16.3579C26.2089 16.3227 26.2892 16.4618 26.2039 16.5392L23.9922 18.5478L26.977 18.6643C27.0922 18.6688 27.12 18.8269 27.0134 18.8705L24.2484 20.0009L27.0134 21.1312C27.1222 21.1757 27.0904 21.3375 26.9729 21.3375H13.0252C12.9077 21.3375 12.8759 21.1757 12.9847 21.1312L15.7506 20.0009Z" fill="#BD9C08"/>
<path d="M16.0745 19.9021C16.1633 19.9384 16.1633 20.0642 16.0745 20.1005L13.5708 21.1237H26.4278L23.9248 20.1005C23.836 20.0641 23.836 19.9384 23.9248 19.9021L26.4751 18.8596L23.7222 18.7521C23.6263 18.7484 23.5833 18.6303 23.6543 18.5658L25.6941 16.7133L23.0705 17.5547C22.9791 17.584 22.8983 17.4877 22.9429 17.4028L24.2263 14.964L22.0481 16.6517C21.9723 16.7104 21.8634 16.6476 21.8764 16.5525L22.2486 13.8223L20.7789 16.1537C20.7277 16.2348 20.6039 16.213 20.5835 16.1192L19.9997 13.4258L19.4158 16.1192C19.3955 16.213 19.2716 16.2348 19.2205 16.1537L17.7507 13.8223L18.123 16.5525C18.1359 16.6476 18.027 16.7104 17.9512 16.6517L15.7723 14.964L17.0564 17.4028C17.1011 17.4877 17.0202 17.584 16.9289 17.5547L14.3044 16.7133L16.345 18.5658C16.416 18.6302 16.373 18.7484 16.2772 18.7521L13.5234 18.8596L16.0745 19.9021Z" fill="#FCD116"/>
<path d="M20.0001 24.0451C22.2346 24.0451 24.0461 22.2337 24.0461 19.9991C24.0461 17.7646 22.2346 15.9531 20.0001 15.9531C17.7656 15.9531 15.9541 17.7646 15.9541 19.9991C15.9541 22.2337 17.7656 24.0451 20.0001 24.0451Z" fill="#BD9C08"/>
<path d="M19.9997 23.8314C17.8835 23.8314 16.168 22.1159 16.168 19.9997C16.168 17.8835 17.8835 16.168 19.9997 16.168C22.1159 16.168 23.8314 17.8835 23.8314 19.9997C23.8314 22.1159 22.1159 23.8314 19.9997 23.8314Z" fill="#BD9C08"/>
<path d="M21.2949 10.4622L23.4073 10.4762C23.4206 10.3869 23.2264 10.2091 23.0597 10.1831C22.5254 10.0991 22.1244 10.2722 21.4749 10.2789L21.2949 10.4622H21.2949Z" fill="#FCD116" stroke="#BD9C08" stroke-width="0.2"/>
<path d="M17.0883 9.96754C17.5845 10.5942 18.5464 11.0297 19.4645 11.0354C20.7026 11.0431 22.076 10.0411 23.736 9.7343L18.316 9.62268C17.6141 9.1422 17.0817 9.20316 16.7188 9.50106L15.6826 9.53239C15.536 9.6123 15.8036 9.94601 16.0207 9.9582L17.0883 9.96754V9.96754Z" fill="#FCD116" stroke="#BD9C08" stroke-width="0.2"/>
<path d="M19.5394 9.60828C19.3423 8.7018 18.6146 8.31114 17.7404 8.19523C16.7299 8.06133 14.4051 7.92409 12.8604 7.48047C13.5289 8.13771 14.928 8.4658 15.9004 8.61418C16.9299 8.77133 17.9318 9.00028 18.7261 9.59999L19.5394 9.60828V9.60828Z" fill="#FCD116" stroke="#BD9C08" stroke-width="0.2"/>
<path d="M18.8828 10.2096C19.2057 10.6243 19.7066 10.6009 20.2457 10.2391C20.7828 9.87848 21.3666 8.86315 21.6485 8.84648C23.619 8.732 26.0028 7.90019 27.14 7.25781C25.6981 7.46191 24.2695 7.69334 22.8152 7.69905C20.3342 7.70896 20.0409 8.83886 19.0295 9.63105" fill="#FCD116"/>
<path d="M18.8828 10.2096C19.2057 10.6243 19.7066 10.6009 20.2457 10.2391C20.7828 9.87848 21.3666 8.86315 21.6485 8.84648C23.619 8.732 26.0028 7.90019 27.14 7.25781C25.6981 7.46191 24.2695 7.69334 22.8152 7.69905C20.3342 7.70896 20.0409 8.83886 19.0295 9.63105" stroke="#BD9C08" stroke-width="0.2" stroke-linecap="round"/>
<path d="M19.3061 9.78294C19.5688 9.61554 19.7655 9.46051 20.1753 9.11369L20.1955 9.09651C20.4679 8.86595 20.5997 8.75812 20.7636 8.63665C21.436 8.13821 22.0485 8.03051 23.5058 8.0125C23.9073 8.00758 24.4598 7.9323 25.1458 7.79944C25.3659 7.7568 25.5968 7.7088 25.8423 7.65507C26.1487 7.58801 26.3006 7.55293 26.8583 7.42224C26.8967 7.41324 26.9206 7.37481 26.9116 7.3364C26.9026 7.29799 26.8641 7.27415 26.8257 7.28315C26.2688 7.41366 26.1172 7.44867 25.8118 7.51551C25.5673 7.56902 25.3375 7.61678 25.1186 7.65919C24.4404 7.79055 23.895 7.86486 23.504 7.86965C22.0176 7.88802 21.3831 7.9996 20.6785 8.52188C20.5114 8.64577 20.3779 8.75496 20.1033 8.98748L20.083 9.00466C19.6781 9.34738 19.4849 9.49963 19.2293 9.66245C19.1961 9.68365 19.1863 9.72781 19.2075 9.76108C19.2287 9.79435 19.2728 9.80413 19.3061 9.78294Z" fill="#BD9C08"/>
<path d="M18.7869 9.55089C18.6426 8.79746 18.0584 8.47717 16.8551 8.29428C16.6271 8.25965 16.4372 8.23342 16.0353 8.17984C15.6978 8.13485 15.5616 8.11633 15.3809 8.0903C14.7123 7.99394 14.2052 7.89706 13.7167 7.76205C13.5796 7.72419 13.4688 7.68051 13.2346 7.5781L13.2261 7.57438C13.1029 7.52051 13.0468 7.49658 12.9763 7.46875L12.9238 7.60162C12.9922 7.62861 13.0472 7.65208 13.1688 7.70527L13.1773 7.70899C13.4177 7.81409 13.5329 7.8595 13.6787 7.89975C14.174 8.03663 14.6865 8.13455 15.3606 8.23169C15.5419 8.25782 15.6784 8.27638 16.0164 8.32144C16.4174 8.37492 16.6067 8.40106 16.8336 8.43552C17.9829 8.61019 18.5174 8.90324 18.6466 9.57776L18.7869 9.55089Z" fill="#BD9C08"/>
<path d="M19.0447 10.8321C19.9182 10.8962 20.5731 10.7092 21.6228 10.1862C21.6581 10.1686 21.6724 10.1257 21.6548 10.0904C21.6372 10.0551 21.5944 10.0407 21.559 10.0583C20.5302 10.5709 19.8979 10.7515 19.0552 10.6897C19.0158 10.6868 18.9816 10.7163 18.9787 10.7557C18.9758 10.795 19.0054 10.8292 19.0447 10.8321Z" fill="#BD9C08"/>
<path d="M15.6789 9.77232H16.9131C16.9526 9.77232 16.9846 9.74034 16.9846 9.70089C16.9846 9.66144 16.9526 9.62946 16.9131 9.62946H15.6789C15.6394 9.62946 15.6074 9.66144 15.6074 9.70089C15.6074 9.74034 15.6394 9.77232 15.6789 9.77232Z" fill="#BD9C08"/>
<ellipse cx="17.3096" cy="9.56444" rx="0.154285" ry="0.154285" fill="#BD9C08"/>
<rect x="-8.57129" y="21.4297" width="57.1429" height="12.8571" fill="#003F87"/>
<path d="M-8.57129 30.205C-6.66653 30.205 -4.76176 31.4298 -2.857 31.4298C-0.952241 31.4298 0.952521 30.205 2.85728 30.205C4.76205 30.205 6.66681 31.4298 8.57157 31.4298C10.4763 31.4298 12.3811 30.205 14.2859 30.205C16.1906 30.205 18.0954 31.4298 20.0001 31.4298C21.9049 31.4298 23.8097 30.205 25.7144 30.205C27.6192 30.205 29.524 31.4298 31.4287 31.4298C33.3335 31.4298 35.2382 30.205 37.143 30.205C39.0478 30.205 40.9525 31.4298 42.8573 31.4298C44.7621 31.4298 46.6668 30.205 48.5716 30.205V28.1641C46.6668 28.1641 44.7621 29.3888 42.8573 29.3888C40.9525 29.3888 39.0478 28.1641 37.143 28.1641C35.2382 28.1641 33.3335 29.3888 31.4287 29.3888C29.524 29.3888 27.6192 28.1641 25.7144 28.1641C23.8097 28.1641 21.9049 29.3888 20.0001 29.3888C18.0954 29.3888 16.1906 28.1641 14.2859 28.1641C12.3811 28.1641 10.4763 29.3888 8.57157 29.3888C6.66681 29.3888 4.76205 28.1641 2.85728 28.1641C0.952521 28.1641 -0.952241 29.3888 -2.857 29.3888C-4.76176 29.3888 -6.66653 28.1641 -8.57129 28.1641V30.205Z" fill="white"/>
<path d="M-8.57129 26.123C-6.66653 26.123 -4.76176 27.3477 -2.857 27.3477C-0.952241 27.3477 0.952521 26.123 2.85728 26.123C4.76205 26.123 6.66681 27.3477 8.57157 27.3477C10.4763 27.3477 12.3811 26.123 14.2859 26.123C16.1906 26.123 18.0954 27.3477 20.0001 27.3477C21.9049 27.3477 23.8097 26.123 25.7144 26.123C27.6192 26.123 29.524 27.3477 31.4287 27.3477C33.3335 27.3477 35.2382 26.123 37.143 26.123C39.0478 26.123 40.9525 27.3477 42.8573 27.3477C44.7621 27.3477 46.6668 26.123 48.5716 26.123V24.082C46.6668 24.082 44.7621 25.3068 42.8573 25.3068C40.9525 25.3068 39.0478 24.082 37.143 24.082C35.2382 24.082 33.3335 25.3068 31.4287 25.3068C29.524 25.3068 27.6192 24.082 25.7144 24.082C23.8097 24.082 21.9049 25.3068 20.0001 25.3068C18.0954 25.3068 16.1906 24.082 14.2859 24.082C12.3811 24.082 10.4763 25.3068 8.57157 25.3068C6.66681 25.3068 4.76205 24.082 2.85728 24.082C0.952521 24.082 -0.952241 25.3068 -2.857 25.3068C-4.76176 25.3068 -6.66653 24.082 -8.57129 24.082V26.123Z" fill="white"/>
<path d="M-8.57129 22.041C-6.66653 22.041 -4.76176 23.2657 -2.857 23.2657C-0.952241 23.2657 0.952521 22.041 2.85728 22.041C4.76205 22.041 6.66681 23.2657 8.57157 23.2657C10.4763 23.2657 12.3811 22.041 14.2859 22.041C16.1906 22.041 18.0954 23.2657 20.0001 23.2657C21.9049 23.2657 23.8097 22.041 25.7144 22.041C27.6192 22.041 29.524 23.2657 31.4287 23.2657C33.3335 23.2657 35.2382 22.041 37.143 22.041C39.0478 22.041 40.9525 23.2657 42.8573 23.2657C44.7621 23.2657 46.6668 22.041 48.5716 22.041V20C46.6668 20 44.7621 21.2248 42.8573 21.2248C40.9525 21.2248 39.0478 20 37.143 20C35.2382 20 33.3335 21.2248 31.4287 21.2248C29.524 21.2248 27.6192 20 25.7144 20C23.8097 20 21.9049 21.2248 20.0001 21.2248C18.0954 21.2248 16.1906 20 14.2859 20C12.3811 20 10.4763 21.2248 8.57157 21.2248C6.66681 21.2248 4.76205 20 2.85728 20C0.952521 20 -0.952241 21.2248 -2.857 21.2248C-4.76176 21.2248 -6.66653 20 -8.57129 20V22.041Z" fill="white"/>
</g>
</svg>
