<svg width="40" height="40" viewBox="0 0 40 40" fill="none" xmlns="http://www.w3.org/2000/svg">
<rect y="5.71484" width="40" height="28.5714" rx="4" fill="white"/>
<mask id="mask0_101_4355" style="mask-type:luminance" maskUnits="userSpaceOnUse" x="0" y="5" width="40" height="30">
<rect y="5.71484" width="40" height="28.5714" rx="4" fill="white"/>
</mask>
<g mask="url(#mask0_101_4355)">
<rect y="5.71484" width="40" height="28.5714" fill="#FF0000"/>
<path fill-rule="evenodd" clip-rule="evenodd" d="M17.143 22.8583H12.0954C11.7272 22.8583 11.4287 22.5598 11.4287 22.1916V17.8106C11.4287 17.4425 11.7272 17.144 12.0954 17.144H17.143V12.0964C17.143 11.7282 17.4415 11.4297 17.8097 11.4297H22.1906C22.5588 11.4297 22.8573 11.7282 22.8573 12.0964V17.144H27.9049C28.2731 17.144 28.5716 17.4424 28.5716 17.8106V22.1916C28.5716 22.5598 28.2731 22.8583 27.9049 22.8583H22.8573V27.9059C22.8573 28.2741 22.5588 28.5725 22.1906 28.5725H17.8097C17.4415 28.5725 17.143 28.2741 17.143 27.9059V22.8583Z" fill="white"/>
</g>
</svg>
