<svg width="30" height="30" viewBox="0 0 30 30" fill="none" xmlns="http://www.w3.org/2000/svg">
<rect y="4.28516" width="30" height="21.4286" rx="3" fill="white"/>
<mask id="mask0_101_2635" style="mask-type:luminance" maskUnits="userSpaceOnUse" x="0" y="4" width="30" height="22">
<rect y="4.28516" width="30" height="21.4286" rx="3" fill="white"/>
</mask>
<g mask="url(#mask0_101_2635)">
<rect y="4.28516" width="30" height="21.4286" fill="url(#paint0_linear_101_2635)"/>
<rect x="14.2861" y="4.28516" width="15.7143" height="21.4286" fill="#08379D"/>
<path fill-rule="evenodd" clip-rule="evenodd" d="M0 25.7137H10V4.28516H0V25.7137Z" fill="#08379D"/>
<path fill-rule="evenodd" clip-rule="evenodd" d="M10 25.7137H20V4.28516H10V25.7137Z" fill="#FFCC50"/>
<path fill-rule="evenodd" clip-rule="evenodd" d="M14.6068 11.3337C14.8074 11.0386 15.2437 11.0427 15.4388 11.3414L16.0618 12.2949C16.2194 12.5363 16.0463 12.8563 15.758 12.8563V12.8563C15.5433 12.8563 15.3756 13.0416 15.3969 13.2552L15.6691 15.9774C15.6947 16.233 15.9098 16.4277 16.1667 16.4277H16.2229C16.3546 16.4277 16.4809 16.3757 16.5746 16.2831L16.9944 15.8678C17.0893 15.7739 17.1427 15.6459 17.1427 15.5124V14.4907C17.1427 14.3589 17.0904 14.2325 16.9971 14.1392V14.1392C16.7359 13.878 16.8409 13.4331 17.1914 13.3162L17.7683 13.1239C18.1293 13.0036 18.487 13.3145 18.4182 13.6887L17.9436 16.2693C17.9247 16.3723 17.8739 16.4667 17.7984 16.5393L16.5736 17.7167C16.4805 17.8062 16.3563 17.8563 16.2271 17.8563H16.2142C15.938 17.8563 15.7142 18.0801 15.7142 18.3563V18.7848C15.7142 19.061 15.4903 19.2848 15.2142 19.2848H14.7856C14.5094 19.2848 14.2856 19.061 14.2856 18.7848V18.3563C14.2856 18.0801 14.0617 17.8563 13.7856 17.8563H13.7784C13.6458 17.8563 13.5186 17.8036 13.4249 17.7098L12.2498 16.5347C12.18 16.4649 12.1324 16.376 12.113 16.2792L11.5974 13.7011C11.5221 13.3247 11.8816 13.0073 12.2458 13.1287L12.8083 13.3162C13.1589 13.4331 13.2639 13.878 13.0026 14.1392V14.1392C12.9094 14.2325 12.857 14.3589 12.857 14.4907V15.5124C12.857 15.6459 12.9104 15.7739 13.0054 15.8678L13.4252 16.2831C13.5188 16.3757 13.6452 16.4277 13.7768 16.4277H13.8331C14.09 16.4277 14.3051 16.233 14.3306 15.9774L14.6034 13.2497C14.6245 13.039 14.459 12.8563 14.2474 12.8563V12.8563C13.9601 12.8563 13.7899 12.5348 13.9515 12.2972L14.6068 11.3337Z" fill="#262626"/>
</g>
<defs>
<linearGradient id="paint0_linear_101_2635" x1="0" y1="4.28516" x2="0" y2="25.7137" gradientUnits="userSpaceOnUse">
<stop stop-color="#1132C7"/>
<stop offset="1" stop-color="#0522A5"/>
</linearGradient>
</defs>
</svg>
