<svg width="40" height="40" viewBox="0 0 40 40" fill="none" xmlns="http://www.w3.org/2000/svg">
<rect x="0.5" y="6.21484" width="39" height="27.5714" rx="3.5" fill="white" stroke="#F5F5F5"/>
<mask id="mask0_101_4420" style="mask-type:luminance" maskUnits="userSpaceOnUse" x="0" y="5" width="40" height="30">
<rect x="0.5" y="6.21484" width="39" height="27.5714" rx="3.5" fill="white" stroke="white"/>
</mask>
<g mask="url(#mask0_101_4420)">
<rect y="5.71484" width="40" height="28.5714" fill="#E20F1B"/>
<path fill-rule="evenodd" clip-rule="evenodd" d="M0 20.9529H22.8571V5.71484H0V20.9529Z" fill="#E20F1B"/>
<rect x="9.52344" y="7.61719" width="3.80952" height="11.4286" rx="0.666667" fill="url(#paint0_linear_101_4420)"/>
<path fill-rule="evenodd" clip-rule="evenodd" d="M5.71387 12.0964C5.71387 11.7282 6.01234 11.4297 6.38053 11.4297H16.4758C16.844 11.4297 17.1424 11.7282 17.1424 12.0964V14.5725C17.1424 14.9407 16.844 15.2392 16.4758 15.2392H6.38054C6.01235 15.2392 5.71387 14.9407 5.71387 14.5725V12.0964Z" fill="url(#paint1_linear_101_4420)"/>
</g>
<defs>
<linearGradient id="paint0_linear_101_4420" x1="9.52344" y1="7.61719" x2="9.52344" y2="19.0458" gradientUnits="userSpaceOnUse">
<stop stop-color="#DF101B"/>
<stop offset="1" stop-color="#C00711"/>
</linearGradient>
<linearGradient id="paint1_linear_101_4420" x1="5.71387" y1="11.4297" x2="5.71387" y2="15.2392" gradientUnits="userSpaceOnUse">
<stop stop-color="#DF101B"/>
<stop offset="1" stop-color="#C00711"/>
</linearGradient>
</defs>
</svg>
