<svg width="40" height="40" viewBox="0 0 40 40" fill="none" xmlns="http://www.w3.org/2000/svg">
<rect y="5.71484" width="40" height="28.5714" rx="4" fill="white"/>
<mask id="mask0_101_4515" style="mask-type:luminance" maskUnits="userSpaceOnUse" x="0" y="5" width="40" height="30">
<rect y="5.71484" width="40" height="28.5714" rx="4" fill="white"/>
</mask>
<g mask="url(#mask0_101_4515)">
<path fill-rule="evenodd" clip-rule="evenodd" d="M0 9.52437H40V5.71484H0V9.52437Z" fill="#262626"/>
<path fill-rule="evenodd" clip-rule="evenodd" d="M0 24.7626H40V20.9531H0V24.7626Z" fill="#262626"/>
<path fill-rule="evenodd" clip-rule="evenodd" d="M0 20.9526H40V15.2383H0V20.9526Z" fill="#ED1623"/>
<path fill-rule="evenodd" clip-rule="evenodd" d="M0 15.2377H40V9.52344H0V15.2377Z" fill="#FEE044"/>
<path fill-rule="evenodd" clip-rule="evenodd" d="M0 34.2861H40V30.4766H0V34.2861Z" fill="#ED1623"/>
<path fill-rule="evenodd" clip-rule="evenodd" d="M0 30.476H40V24.7617H0V30.476Z" fill="#FEE044"/>
<ellipse cx="19.9997" cy="19.9987" rx="6.66667" ry="6.66667" fill="white"/>
<path fill-rule="evenodd" clip-rule="evenodd" d="M18.5664 16.6622C18.306 16.4019 18.306 15.9798 18.5664 15.7194L19.0091 15.2767C19.0346 15.2512 19.0577 15.224 19.0796 15.1954C19.1155 15.1487 19.179 15.0693 19.2574 14.9844C19.5522 14.6654 20.5794 14.7315 20.8409 15.0782V15.0782C20.9671 15.2455 20.8952 15.3523 20.8015 15.5397L20.0701 17.0024C20.0238 17.095 19.9997 17.1971 19.9997 17.3006V17.6836C19.9997 17.9361 20.1424 18.1669 20.3682 18.2798L21.8077 18.9996C21.8718 19.0316 21.9303 19.0738 21.981 19.1245L23.4695 20.6129C23.6724 20.8159 23.7227 21.1258 23.5944 21.3825L23.2069 22.1574C23.0347 22.5018 22.5757 22.5763 22.3034 22.304V22.304C22.0831 22.0837 21.7259 22.0837 21.5056 22.304L21.1474 22.6622C21.0223 22.7872 20.9521 22.9568 20.9521 23.1336V23.6126C20.9521 23.7389 21.0023 23.86 21.0916 23.9493V23.9493C21.3916 24.2493 21.1791 24.7622 20.7549 24.7622H20.197C19.7727 24.7622 19.5603 24.2493 19.8602 23.9493V23.9493C19.9496 23.86 19.9997 23.7389 19.9997 23.6126V23.5241C19.9997 23.156 19.7012 22.8575 19.3331 22.8575H19.3235C19.1467 22.8575 18.9771 22.9277 18.8521 23.0527L18.5664 23.3385C18.306 23.5988 17.8839 23.5988 17.6236 23.3385L17.614 23.3289C17.3536 23.0685 17.3536 22.6464 17.614 22.3861L17.8997 22.1004C18.0247 21.9753 18.1943 21.9051 18.3711 21.9051H18.3902C18.9842 21.9051 19.2816 21.187 18.8617 20.767L17.614 19.5194C17.3536 19.259 17.3536 18.8369 17.614 18.5765L18.5759 17.6146C18.8363 17.3542 18.8363 16.9321 18.5759 16.6718L18.5664 16.6622Z" fill="#262626"/>
</g>
</svg>
