<svg width="40" height="40" viewBox="0 0 40 40" fill="none" xmlns="http://www.w3.org/2000/svg">
<rect x="0.5" y="6.21484" width="39" height="27.5714" rx="3.5" fill="white" stroke="#F5F5F5"/>
<mask id="mask0_101_2865" style="mask-type:luminance" maskUnits="userSpaceOnUse" x="0" y="5" width="40" height="30">
<rect x="0.5" y="6.21484" width="39" height="27.5714" rx="3.5" fill="white" stroke="white"/>
</mask>
<g mask="url(#mask0_101_2865)">
<path fill-rule="evenodd" clip-rule="evenodd" d="M0 15.2387H40V5.71484H0V15.2387Z" fill="#FF202D"/>
<path opacity="0.5" fill-rule="evenodd" clip-rule="evenodd" d="M15.2383 13.3352L16.1907 12.3828L17.143 13.3352V15.24H15.2383V13.3352Z" fill="#1895DB"/>
<path opacity="0.5" fill-rule="evenodd" clip-rule="evenodd" d="M19.0479 13.3352L20.0002 12.3828L20.9526 13.3352V15.24H19.0479V13.3352Z" fill="#1895DB"/>
<path opacity="0.5" fill-rule="evenodd" clip-rule="evenodd" d="M22.8574 13.3352L23.8098 12.3828L24.7622 13.3352V15.24H22.8574V13.3352Z" fill="#1895DB"/>
<path opacity="0.5" fill-rule="evenodd" clip-rule="evenodd" d="M17.1426 13.3352L18.095 12.3828L19.0473 13.3352V15.24H17.1426V13.3352Z" fill="#191F94"/>
<path opacity="0.5" fill-rule="evenodd" clip-rule="evenodd" d="M20.9521 13.3352L21.9045 12.3828L22.8569 13.3352V15.24H20.9521V13.3352Z" fill="#191F94"/>
<path fill-rule="evenodd" clip-rule="evenodd" d="M0 34.2855H40V24.7617H0V34.2855Z" fill="#2027AC"/>
<rect x="19.0479" y="15.2383" width="1.90476" height="1.90476" fill="url(#paint0_linear_101_2865)"/>
<path fill-rule="evenodd" clip-rule="evenodd" d="M22.8574 15.2383H23.8098L24.7622 17.143H22.8574V15.2383Z" fill="url(#paint1_linear_101_2865)"/>
<path fill-rule="evenodd" clip-rule="evenodd" d="M16.1907 15.2383H17.143V17.143H15.2383L16.1907 15.2383Z" fill="url(#paint2_linear_101_2865)"/>
<rect x="17.1426" y="17.1445" width="1.90476" height="1.90476" fill="url(#paint3_linear_101_2865)"/>
<rect x="20.9521" y="17.1445" width="1.90476" height="1.90476" fill="url(#paint4_linear_101_2865)"/>
<rect x="19.0479" y="19.0469" width="1.90476" height="1.90476" fill="url(#paint5_linear_101_2865)"/>
<rect x="22.8574" y="19.0469" width="1.90476" height="1.90476" fill="url(#paint6_linear_101_2865)"/>
<rect x="20.9521" y="20.9531" width="1.90476" height="1.90476" fill="url(#paint7_linear_101_2865)"/>
<rect x="15.2383" y="19.0469" width="1.90476" height="1.90476" fill="url(#paint8_linear_101_2865)"/>
<rect x="17.1426" y="20.9531" width="1.90476" height="1.90476" fill="url(#paint9_linear_101_2865)"/>
<rect x="15.2383" y="22.8555" width="1.90476" height="1.90476" fill="url(#paint10_linear_101_2865)"/>
<rect x="19.0479" y="22.8555" width="1.90476" height="1.90476" fill="url(#paint11_linear_101_2865)"/>
<rect x="22.8574" y="22.8555" width="1.90476" height="1.90476" fill="url(#paint12_linear_101_2865)"/>
<rect x="20.9521" y="24.7617" width="1.90476" height="1.90476" fill="url(#paint13_linear_101_2865)"/>
<rect x="17.1426" y="24.7617" width="1.90476" height="1.90476" fill="url(#paint14_linear_101_2865)"/>
</g>
<defs>
<linearGradient id="paint0_linear_101_2865" x1="19.0479" y1="15.2383" x2="19.0479" y2="17.143" gradientUnits="userSpaceOnUse">
<stop stop-color="#FF212E"/>
<stop offset="1" stop-color="#FD0D1B"/>
</linearGradient>
<linearGradient id="paint1_linear_101_2865" x1="22.8574" y1="15.2383" x2="22.8574" y2="17.143" gradientUnits="userSpaceOnUse">
<stop stop-color="#FF212E"/>
<stop offset="1" stop-color="#FD0D1B"/>
</linearGradient>
<linearGradient id="paint2_linear_101_2865" x1="15.2383" y1="15.2383" x2="15.2383" y2="17.143" gradientUnits="userSpaceOnUse">
<stop stop-color="#FF212E"/>
<stop offset="1" stop-color="#FD0D1B"/>
</linearGradient>
<linearGradient id="paint3_linear_101_2865" x1="17.1426" y1="17.1445" x2="17.1426" y2="19.0493" gradientUnits="userSpaceOnUse">
<stop stop-color="#FF212E"/>
<stop offset="1" stop-color="#FD0D1B"/>
</linearGradient>
<linearGradient id="paint4_linear_101_2865" x1="20.9521" y1="17.1445" x2="20.9521" y2="19.0493" gradientUnits="userSpaceOnUse">
<stop stop-color="#FF212E"/>
<stop offset="1" stop-color="#FD0D1B"/>
</linearGradient>
<linearGradient id="paint5_linear_101_2865" x1="19.0479" y1="19.0469" x2="19.0479" y2="20.9516" gradientUnits="userSpaceOnUse">
<stop stop-color="#FF212E"/>
<stop offset="1" stop-color="#FD0D1B"/>
</linearGradient>
<linearGradient id="paint6_linear_101_2865" x1="22.8574" y1="19.0469" x2="22.8574" y2="20.9516" gradientUnits="userSpaceOnUse">
<stop stop-color="#FF212E"/>
<stop offset="1" stop-color="#FD0D1B"/>
</linearGradient>
<linearGradient id="paint7_linear_101_2865" x1="20.9521" y1="20.9531" x2="20.9521" y2="22.8579" gradientUnits="userSpaceOnUse">
<stop stop-color="#FF212E"/>
<stop offset="1" stop-color="#FD0D1B"/>
</linearGradient>
<linearGradient id="paint8_linear_101_2865" x1="15.2383" y1="19.0469" x2="15.2383" y2="20.9516" gradientUnits="userSpaceOnUse">
<stop stop-color="#FF212E"/>
<stop offset="1" stop-color="#FD0D1B"/>
</linearGradient>
<linearGradient id="paint9_linear_101_2865" x1="17.1426" y1="20.9531" x2="17.1426" y2="22.8579" gradientUnits="userSpaceOnUse">
<stop stop-color="#FF212E"/>
<stop offset="1" stop-color="#FD0D1B"/>
</linearGradient>
<linearGradient id="paint10_linear_101_2865" x1="15.2383" y1="22.8555" x2="15.2383" y2="24.7602" gradientUnits="userSpaceOnUse">
<stop stop-color="#FF212E"/>
<stop offset="1" stop-color="#FD0D1B"/>
</linearGradient>
<linearGradient id="paint11_linear_101_2865" x1="19.0479" y1="22.8555" x2="19.0479" y2="24.7602" gradientUnits="userSpaceOnUse">
<stop stop-color="#FF212E"/>
<stop offset="1" stop-color="#FD0D1B"/>
</linearGradient>
<linearGradient id="paint12_linear_101_2865" x1="22.8574" y1="22.8555" x2="22.8574" y2="24.7602" gradientUnits="userSpaceOnUse">
<stop stop-color="#FF212E"/>
<stop offset="1" stop-color="#FD0D1B"/>
</linearGradient>
<linearGradient id="paint13_linear_101_2865" x1="20.9521" y1="24.7617" x2="20.9521" y2="26.6665" gradientUnits="userSpaceOnUse">
<stop stop-color="#FF212E"/>
<stop offset="1" stop-color="#FD0D1B"/>
</linearGradient>
<linearGradient id="paint14_linear_101_2865" x1="17.1426" y1="24.7617" x2="17.1426" y2="26.6665" gradientUnits="userSpaceOnUse">
<stop stop-color="#FF212E"/>
<stop offset="1" stop-color="#FD0D1B"/>
</linearGradient>
</defs>
</svg>
