<svg width="40" height="40" viewBox="0 0 40 40" fill="none" xmlns="http://www.w3.org/2000/svg">
<rect y="5.71484" width="40" height="28.5714" rx="4" fill="white"/>
<mask id="mask0_101_4334" style="mask-type:luminance" maskUnits="userSpaceOnUse" x="0" y="5" width="40" height="30">
<rect y="5.71484" width="40" height="28.5714" rx="4" fill="white"/>
</mask>
<g mask="url(#mask0_101_4334)">
<path fill-rule="evenodd" clip-rule="evenodd" d="M0 11.4291H40V5.71484H0V11.4291Z" fill="#486BCA"/>
<path fill-rule="evenodd" clip-rule="evenodd" d="M0 34.2846H40V28.5703H0V34.2846Z" fill="#486BCA"/>
<path fill-rule="evenodd" clip-rule="evenodd" d="M0 28.5725H40V11.4297H0V28.5725Z" fill="#FFDF20"/>
<path fill-rule="evenodd" clip-rule="evenodd" d="M0 26.6654H40V13.332H0V26.6654Z" fill="#CF1615"/>
<ellipse cx="20.0001" cy="20.0002" rx="8.57143" ry="4.7619" fill="white"/>
</g>
<mask id="mask1_101_4334" style="mask-type:luminance" maskUnits="userSpaceOnUse" x="11" y="15" width="18" height="10">
<ellipse cx="20.0001" cy="20.0002" rx="8.57143" ry="4.7619" fill="white"/>
</mask>
<g mask="url(#mask1_101_4334)">
<path fill-rule="evenodd" clip-rule="evenodd" d="M20.9521 15.2383H11.4283V24.7621H19.0474L20.9521 15.2383Z" fill="#262626"/>
<ellipse cx="21.9045" cy="19.9993" rx="0.952381" ry="0.952381" fill="#1A1A1A"/>
<ellipse cx="18.095" cy="19.9993" rx="0.952381" ry="0.952381" fill="#F6F6F6"/>
</g>
</svg>
