<svg width="30" height="30" viewBox="0 0 30 30" fill="none" xmlns="http://www.w3.org/2000/svg">
<mask id="mask0_101_2525" style="mask-type:luminance" maskUnits="userSpaceOnUse" x="0" y="4" width="30" height="22">
<rect y="4.28516" width="30" height="21.4286" rx="3" fill="white"/>
</mask>
<g mask="url(#mask0_101_2525)">
<rect y="4.28516" width="30" height="21.4286" fill="#EE343C"/>
<path fill-rule="evenodd" clip-rule="evenodd" d="M13.4367 9.15001C13.0996 8.81295 12.5715 8.76065 12.1749 9.02507L12.1479 9.04304C11.5091 9.46896 11.5687 10.4261 12.2554 10.7695L13.0833 11.1834C13.3824 11.333 13.5713 11.6387 13.5713 11.9731V11.9731C13.5713 12.4607 13.176 12.856 12.6884 12.856H12.3788C12.2236 12.856 12.0704 12.8199 11.9316 12.7505L9.90339 11.7364C9.53445 11.5519 9.08886 11.6242 8.79719 11.9159V11.9159C8.33466 12.3784 8.4612 13.1581 9.04625 13.4506L9.75478 13.8049C10.1823 14.0187 10.2194 14.6145 9.82169 14.8796V14.8796C9.36027 15.1872 9.50111 15.8991 10.0449 16.0079L10.647 16.1283C11.2251 16.2439 11.3941 16.989 10.9224 17.3427L10.3834 17.747C10.0317 18.0107 10.2183 18.5703 10.6579 18.5703V18.5703C10.6953 18.5703 10.7325 18.5657 10.7688 18.5567L12.1207 18.2187C12.6333 18.0905 13.035 18.6605 12.7419 19.1002V19.1002C12.4858 19.4843 12.7612 19.9989 13.2229 19.9989H13.848C14.1093 19.9989 14.3413 20.1661 14.424 20.414V20.414C14.6085 20.9675 15.3913 20.9675 15.5758 20.414V20.414C15.6584 20.1661 15.8904 19.9989 16.1517 19.9989H16.7769C17.2386 19.9989 17.514 19.4843 17.2579 19.1002V19.1002C16.9648 18.6605 17.3665 18.0905 17.8791 18.2187L19.231 18.5567C19.2672 18.5657 19.3045 18.5703 19.3419 18.5703V18.5703C19.7815 18.5703 19.968 18.0107 19.6164 17.747L19.0773 17.3427C18.6057 16.989 18.7747 16.2439 19.3528 16.1283L19.9549 16.0079C20.4987 15.8991 20.6395 15.1872 20.1781 14.8796V14.8796C19.7804 14.6145 19.8175 14.0187 20.245 13.8049L20.9535 13.4506C21.5386 13.1581 21.6651 12.3784 21.2026 11.9159V11.9159C20.9109 11.6242 20.4653 11.5519 20.0964 11.7364L18.0682 12.7505C17.9293 12.8199 17.7762 12.856 17.621 12.856H17.3114C16.8237 12.856 16.4285 12.4607 16.4285 11.9731V11.9731C16.4285 11.6387 16.6172 11.3331 16.9163 11.1835C17.1771 11.0531 17.4635 10.9099 17.7443 10.7695C18.4311 10.4261 18.4907 9.46896 17.8518 9.04304L17.8249 9.02507C17.4282 8.76065 16.9001 8.81295 16.563 9.15001L15.707 10.0061C15.3165 10.3966 14.6833 10.3966 14.2928 10.0061L13.4367 9.15001Z" fill="#262626"/>
</g>
</svg>
