<svg width="40" height="40" viewBox="0 0 40 40" fill="none" xmlns="http://www.w3.org/2000/svg">
<rect x="0.5" y="6.21484" width="39" height="27.5714" rx="3.5" fill="white" stroke="#F5F5F5"/>
<mask id="mask0_101_3257" style="mask-type:luminance" maskUnits="userSpaceOnUse" x="0" y="5" width="40" height="30">
<rect x="0.5" y="6.21484" width="39" height="27.5714" rx="3.5" fill="white" stroke="white"/>
</mask>
<g mask="url(#mask0_101_3257)">
<path fill-rule="evenodd" clip-rule="evenodd" d="M0 15.2387H40V5.71484H0V15.2387Z" fill="#DF1E35"/>
<path fill-rule="evenodd" clip-rule="evenodd" d="M0 34.2855H40V24.7617H0V34.2855Z" fill="#262626"/>
<path fill-rule="evenodd" clip-rule="evenodd" d="M26.667 18.2232C26.667 17.7276 27.1885 17.4053 27.6318 17.6269L28.2032 17.9127C28.4291 18.0256 28.5718 18.2564 28.5718 18.5089V22.1922C28.5718 22.5603 28.2733 22.8588 27.9051 22.8588H27.3337C26.9655 22.8588 26.667 22.5603 26.667 22.1922V18.2232Z" fill="#0F7A40"/>
<path fill-rule="evenodd" clip-rule="evenodd" d="M15.2383 18.2232C15.2383 17.7276 15.7598 17.4053 16.2031 17.6269L16.7745 17.9127C17.0004 18.0256 17.143 18.2564 17.143 18.5089V22.1922C17.143 22.5603 16.8446 22.8588 16.4764 22.8588H15.9049C15.5368 22.8588 15.2383 22.5603 15.2383 22.1922V18.2232Z" fill="#0F7A40"/>
<path fill-rule="evenodd" clip-rule="evenodd" d="M22.8574 18.5089C22.8574 18.2564 23.0001 18.0256 23.2259 17.9127L23.7974 17.6269C24.2406 17.4053 24.7622 17.7276 24.7622 18.2232V22.1922C24.7622 22.5603 24.4637 22.8588 24.0955 22.8588H23.5241C23.1559 22.8588 22.8574 22.5603 22.8574 22.1922V18.5089Z" fill="#0F7A40"/>
<path fill-rule="evenodd" clip-rule="evenodd" d="M19.0479 20.4115C19.0479 20.1589 19.1905 19.9281 19.4164 19.8152L19.9878 19.5295C20.4311 19.3078 20.9526 19.6302 20.9526 20.1257V21.0371H23.8098V22.8566H20.9526H19.7145C19.3463 22.8566 19.0479 22.5581 19.0479 22.1899V20.4115Z" fill="#0F7A40"/>
<path fill-rule="evenodd" clip-rule="evenodd" d="M11.4287 20.4115C11.4287 20.1589 11.5714 19.9281 11.7972 19.8152L12.3687 19.5295C12.8119 19.3078 13.3335 19.6302 13.3335 20.1257V21.0371H16.1906V22.8566H13.3335H12.0954C11.7272 22.8566 11.4287 22.5581 11.4287 22.1899V20.4115Z" fill="#0F7A40"/>
</g>
</svg>
