<svg width="40" height="40" viewBox="0 0 40 40" fill="none" xmlns="http://www.w3.org/2000/svg">
<rect y="5.71484" width="40" height="28.5714" rx="4" fill="white"/>
<mask id="mask0_101_3700" style="mask-type:luminance" maskUnits="userSpaceOnUse" x="0" y="5" width="40" height="30">
<rect y="5.71484" width="40" height="28.5714" rx="4" fill="white"/>
</mask>
<g mask="url(#mask0_101_3700)">
<rect x="-5.71387" y="5.71484" width="57.1429" height="28.5714" fill="#002B7F"/>
<rect x="-5.71387" y="18.8086" width="57.1429" height="2.38095" fill="#FFC61E"/>
<path d="M8.57148 30.7152L7.95524 28.2531L6.19052 30.0772L6.88788 27.6369L4.44754 28.3343L6.27166 26.5695L3.80957 25.9533L6.27166 25.3371L4.44754 23.5724L6.88788 24.2697L6.19052 21.8294L7.95524 23.6535L8.57148 21.1914L9.18771 23.6535L10.9524 21.8294L10.2551 24.2697L12.6954 23.5724L10.8713 25.3371L13.3334 25.9533L10.8713 26.5695L12.6954 28.3343L10.2551 27.6369L10.9524 30.0772L9.18771 28.2531L8.57148 30.7152Z" fill="white"/>
</g>
</svg>
