<svg width="40" height="40" viewBox="0 0 40 40" fill="none" xmlns="http://www.w3.org/2000/svg">
<rect x="0.5" y="6.21484" width="39" height="27.5714" rx="3.5" fill="white" stroke="#F5F5F5"/>
<mask id="mask0_101_3420" style="mask-type:luminance" maskUnits="userSpaceOnUse" x="0" y="5" width="40" height="30">
<rect x="0.5" y="6.21484" width="39" height="27.5714" rx="3.5" fill="white" stroke="white"/>
</mask>
<g mask="url(#mask0_101_3420)">
<path fill-rule="evenodd" clip-rule="evenodd" d="M0 13.3339H40V5.71484H0V13.3339Z" fill="#F03340"/>
<path fill-rule="evenodd" clip-rule="evenodd" d="M0 34.287H40V26.668H0V34.287Z" fill="#F03340"/>
<path fill-rule="evenodd" clip-rule="evenodd" d="M18.4901 23.4152C18.7983 23.1071 18.7983 22.6076 18.4901 22.2994L18.3806 22.1898C18.2038 22.0131 17.9473 21.942 17.7048 22.0027L17.163 22.1381C16.5292 22.2966 16.1358 21.4701 16.6585 21.0781L17.148 20.7109C17.4516 20.4832 17.2906 20.0002 16.9111 20.0002V20.0002C16.4945 20.0002 16.3619 19.4385 16.7345 19.2522L17.552 18.8434C17.9247 18.6571 17.7921 18.0954 17.3754 18.0954V18.0954C16.996 18.0954 16.835 17.6124 17.1385 17.3847L19.2385 15.8097C19.69 15.4711 20.3108 15.4711 20.7623 15.8097L22.8623 17.3847C23.1659 17.6124 23.0049 18.0954 22.6254 18.0954V18.0954C22.2087 18.0954 22.0762 18.6571 22.4488 18.8434L23.2663 19.2522C23.639 19.4385 23.5064 20.0002 23.0897 20.0002V20.0002C22.7103 20.0002 22.5493 20.4832 22.8528 20.7109L23.3424 21.0781C23.865 21.4701 23.4717 22.2966 22.8378 22.1381L22.2961 22.0027C22.0536 21.942 21.797 22.0131 21.6203 22.1898L21.5107 22.2994C21.2026 22.6076 21.2026 23.1071 21.5107 23.4152V23.4152C22.0077 23.9122 21.6557 24.7621 20.9528 24.7621H19.048C18.3451 24.7621 17.9931 23.9122 18.4901 23.4152V23.4152Z" fill="#1FC065"/>
</g>
</svg>
