<svg width="40" height="40" viewBox="0 0 40 40" fill="none" xmlns="http://www.w3.org/2000/svg">
<rect y="5.71484" width="40" height="28.5714" rx="4" fill="white"/>
<mask id="mask0_101_3612" style="mask-type:luminance" maskUnits="userSpaceOnUse" x="0" y="5" width="40" height="30">
<rect y="5.71484" width="40" height="28.5714" rx="4" fill="white"/>
</mask>
<g mask="url(#mask0_101_3612)">
<rect y="5.71484" width="40" height="28.5714" fill="#95CEF5"/>
<path fill-rule="evenodd" clip-rule="evenodd" d="M20 13.9417L17.7608 15.4618L18.5145 12.8625L16.3769 11.2026L19.0819 11.1162L20 8.57031L20.918 11.1162L23.623 11.2026L21.4854 12.8625L22.2391 15.4618L20 13.9417Z" fill="white"/>
<path fill-rule="evenodd" clip-rule="evenodd" d="M20 29.18L17.7608 30.7001L18.5145 28.1008L16.3769 26.4409L19.0819 26.3545L20 23.8086L20.918 26.3545L23.623 26.4409L21.4854 28.1008L22.2391 30.7001L20 29.18Z" fill="white"/>
<path fill-rule="evenodd" clip-rule="evenodd" d="M27.6191 21.5628L25.3799 23.0829L26.1336 20.4836L23.996 18.8237L26.701 18.7373L27.6191 16.1914L28.5372 18.7373L31.2422 18.8237L29.1046 20.4836L29.8583 23.0829L27.6191 21.5628Z" fill="white"/>
<path fill-rule="evenodd" clip-rule="evenodd" d="M12.3808 21.5628L10.1416 23.0829L10.8954 20.4836L8.75774 18.8237L11.4627 18.7373L12.3808 16.1914L13.2989 18.7373L16.0039 18.8237L13.8663 20.4836L14.62 23.0829L12.3808 21.5628Z" fill="white"/>
</g>
</svg>
