<svg width="40" height="40" viewBox="0 0 40 40" fill="none" xmlns="http://www.w3.org/2000/svg">
<rect y="5.71484" width="40" height="28.5714" rx="4" fill="white"/>
<mask id="mask0_101_3727" style="mask-type:luminance" maskUnits="userSpaceOnUse" x="0" y="5" width="40" height="30">
<rect y="5.71484" width="40" height="28.5714" rx="4" fill="white"/>
</mask>
<g mask="url(#mask0_101_3727)">
<rect y="5.71484" width="40" height="28.5714" fill="#0A17A7"/>
<path d="M0 5.04818H-1.80217L-0.433861 6.22101L6 11.7358V12.9908L-0.387492 17.5533L-0.666667 17.7527V18.0958V19.0482V20.251L0.353333 19.6135L7.81025 14.9529H9.31017L15.7208 19.532C15.8873 19.6509 16.0868 19.7148 16.2914 19.7148C17.2028 19.7148 17.6222 18.581 16.9303 17.9879L11.1429 13.0273V11.7722L17.2512 7.40912C17.6016 7.15884 17.8095 6.75475 17.8095 6.32415V5.71484V4.51201L16.7895 5.14951L9.33261 9.81008H7.83269L1.33987 5.17235L1.16602 5.04818H0.952381H0Z" fill="#FF2E3B" stroke="white" stroke-width="1.33333"/>
<path fill-rule="evenodd" clip-rule="evenodd" d="M0 10.4767V14.2863H6.66667V18.6672C6.66667 19.4036 7.26362 20.0006 8 20.0006H9.14286C9.87924 20.0006 10.4762 19.4036 10.4762 18.6672V14.2863H16.7619C17.4983 14.2863 18.0952 13.6893 18.0952 12.9529V11.8101C18.0952 11.0737 17.4983 10.4767 16.7619 10.4767H10.4762V5.71484H6.66667V10.4767H0Z" fill="white"/>
<path fill-rule="evenodd" clip-rule="evenodd" d="M0 11.4291H7.61905V10.4767V5.71484H9.52381V10.4767V11.4291H17.1429V13.3339H9.52381V14.2863V19.0482H7.61905V14.2863V13.3339H0V11.4291Z" fill="#FF2E3B"/>
<path fill-rule="evenodd" clip-rule="evenodd" d="M28.5718 30.4743L27.2249 30.8688L27.6194 29.5219L27.2249 28.1751L28.5718 28.5696L29.9186 28.1751L29.5241 29.5219L29.9186 30.8688L28.5718 30.4743Z" fill="#CA1931"/>
<path fill-rule="evenodd" clip-rule="evenodd" d="M28.5718 12.3806L27.2249 12.7751L27.6194 11.4282L27.2249 10.0813L28.5718 10.4758L29.9186 10.0813L29.5241 11.4282L29.9186 12.7751L28.5718 12.3806Z" fill="#CA1931"/>
<path fill-rule="evenodd" clip-rule="evenodd" d="M34.2856 18.0954L32.9388 18.4899L33.3332 17.143L32.9388 15.7962L34.2856 16.1907L35.6325 15.7962L35.238 17.143L35.6325 18.4899L34.2856 18.0954Z" fill="#CA1931"/>
<path fill-rule="evenodd" clip-rule="evenodd" d="M22.8569 20.0017L21.51 20.3962L21.9045 19.0493L21.51 17.7024L22.8569 18.0969L24.2038 17.7024L23.8093 19.0493L24.2038 20.3962L22.8569 20.0017Z" fill="#CA1931"/>
</g>
</svg>
