<svg width="40" height="40" viewBox="0 0 40 40" fill="none" xmlns="http://www.w3.org/2000/svg">
<rect x="0.5" y="6.21484" width="39" height="27.5714" rx="3.5" fill="white" stroke="#F5F5F5"/>
<mask id="mask0_101_4016" style="mask-type:luminance" maskUnits="userSpaceOnUse" x="0" y="5" width="40" height="30">
<rect x="0.5" y="6.21484" width="39" height="27.5714" rx="3.5" fill="white" stroke="white"/>
</mask>
<g mask="url(#mask0_101_4016)">
<path fill-rule="evenodd" clip-rule="evenodd" d="M0 24.7621H40V15.2383H0V24.7621Z" fill="#0C47B7"/>
<path fill-rule="evenodd" clip-rule="evenodd" d="M0 34.2855H40V24.7617H0V34.2855Z" fill="#E53B35"/>
<path d="M17.91 10.0964H10.6612C8.51191 10.0964 6.7468 11.7949 6.66419 13.9426L6.33617 22.4712C6.28922 23.6918 6.80259 24.867 7.73005 25.662L10.8148 28.306C12.812 30.0179 15.7592 30.0179 17.7565 28.306L20.8412 25.662C21.7687 24.867 22.2821 23.6918 22.2351 22.4712L21.9071 13.9426C21.8245 11.7949 20.0594 10.0964 17.91 10.0964Z" fill="#F73744" stroke="white" stroke-width="2.66667"/>
</g>
<mask id="mask1_101_4016" style="mask-type:luminance" maskUnits="userSpaceOnUse" x="5" y="8" width="19" height="23">
<path d="M17.91 10.0964H10.6612C8.51191 10.0964 6.7468 11.7949 6.66419 13.9426L6.33617 22.4712C6.28922 23.6918 6.80259 24.867 7.73005 25.662L10.8148 28.306C12.812 30.0179 15.7592 30.0179 17.7565 28.306L20.8412 25.662C21.7687 24.867 22.2821 23.6918 22.2351 22.4712L21.9071 13.9426C21.8245 11.7949 20.0594 10.0964 17.91 10.0964Z" fill="white" stroke="white" stroke-width="2.66667"/>
</mask>
<g mask="url(#mask1_101_4016)">
<path fill-rule="evenodd" clip-rule="evenodd" d="M13.3337 21.6177C13.3337 21.2496 13.0352 20.9511 12.667 20.9511H11.1432C10.775 20.9511 10.4766 20.6526 10.4766 20.2844V19.713C10.4766 19.3448 10.775 19.0463 11.1432 19.0463H12.667C13.0352 19.0463 13.3337 18.7478 13.3337 18.3797V17.8082C13.3337 17.44 13.0352 17.1416 12.667 17.1416H12.0956C11.7274 17.1416 11.4289 16.8431 11.4289 16.4749V15.9035C11.4289 15.5353 11.7274 15.2368 12.0956 15.2368H12.667C13.0352 15.2368 13.3337 14.9383 13.3337 14.5701V13.9987C13.3337 13.6305 13.6322 13.332 14.0004 13.332H14.5718C14.94 13.332 15.2385 13.6305 15.2385 13.9987V14.5701C15.2385 14.9383 15.5369 15.2368 15.9051 15.2368H16.4766C16.8448 15.2368 17.1432 15.5353 17.1432 15.9035V16.4749C17.1432 16.8431 16.8448 17.1416 16.4766 17.1416H15.9051C15.5369 17.1416 15.2385 17.44 15.2385 17.8082V18.3797C15.2385 18.7478 15.5369 19.0463 15.9051 19.0463H17.4289C17.7971 19.0463 18.0956 19.3448 18.0956 19.713V20.2844C18.0956 20.6526 17.7971 20.9511 17.4289 20.9511H15.9051C15.5369 20.9511 15.2385 21.2496 15.2385 21.6177V24.0939C15.2385 24.4621 14.94 24.7606 14.5718 24.7606H14.0004C13.6322 24.7606 13.3337 24.4621 13.3337 24.0939V21.6177Z" fill="white"/>
<ellipse cx="14.2856" cy="27.6189" rx="5.71429" ry="2.85714" fill="#1251A1"/>
<ellipse cx="14.2856" cy="25.7134" rx="1.90476" ry="1.90476" fill="#1251A1"/>
</g>
</svg>
