<svg width="40" height="28" viewBox="0 0 40 28" fill="none" xmlns="http://www.w3.org/2000/svg">
<path d="M39.6038 1.84913C39.415 2.39391 39.2334 2.94234 39.0301 3.48346C38.7905 4.12695 38.6198 4.79604 38.3766 5.43953C38.1515 6.03184 38.0171 6.65705 37.8211 7.26032C37.6613 7.75026 37.4616 8.22556 37.2982 8.7155C37.0041 9.59665 36.7318 10.4888 36.4377 11.3699C36.18 12.1487 35.904 12.9201 35.6426 13.6953C35.4502 14.2656 35.2723 14.8433 35.0835 15.4137C34.8075 16.2436 34.488 17.0626 34.2557 17.9072C34.085 18.5288 33.8309 19.1211 33.6711 19.7463C33.4642 20.5433 33.1955 21.3477 32.6763 21.9839C32.0772 22.7151 31.3293 22.7188 30.5959 21.9839C29.9351 21.3258 29.5103 20.4812 29.1399 19.6147C28.8168 18.8578 28.5808 18.0681 28.3049 17.2966C27.9527 16.3204 27.6695 15.315 27.3028 14.3461C27.0087 13.5709 26.8235 12.7556 26.4786 11.9988C26.1482 11.2822 26.1954 10.5838 26.4931 9.84892C26.8199 9.04821 27.0486 8.20728 27.3282 7.38829C27.5388 6.76674 27.8075 6.1598 27.9708 5.52362C28.1705 4.75582 28.4791 4.02458 28.7043 3.26408C29.0201 2.19281 29.3687 1.13617 30.349 0.4488C30.7665 0.156303 31.224 0.00274216 31.7287 0.00274216C33.9434 -0.000914053 36.1582 -0.000914053 38.3729 0.00274216C38.874 0.00274216 39.2843 0.31352 39.4694 0.79614C39.5057 0.887546 39.5602 0.967982 39.6074 1.05573V1.84913H39.6038Z" fill="url(#paint0_radial_1_7017)"/>
<path d="M14.6097 0.0648694C15.4375 -0.044817 16.3524 0.0502445 17.2202 0.295211C18.0008 0.514584 18.7161 0.935048 19.3696 1.45423C20.5786 2.41581 21.3919 3.65161 21.9874 5.05926C22.5392 6.36818 22.9314 7.72829 23.3888 9.07012C23.643 9.81599 23.9044 10.5619 24.1513 11.3077C24.4163 12.1048 24.6995 12.8982 24.9428 13.7025C25.1316 14.3204 25.393 14.9164 25.5564 15.5416C25.7161 16.1449 25.9776 16.7116 26.13 17.3185C26.2644 17.845 26.4822 18.3496 26.6565 18.8688C26.8526 19.4501 27.0305 20.0388 27.2374 20.6201C27.7966 22.1776 28.4319 23.6913 29.6991 24.8284C30.1747 25.2525 30.7012 25.3878 31.293 25.0697C31.3874 25.0185 31.489 25.0039 31.5616 25.0953C31.6415 25.194 31.5725 25.2781 31.5072 25.3586C30.8428 26.2141 30.0331 26.8686 29.031 27.3037C27.6876 27.8887 26.2898 28.0532 24.8448 27.9545C24.5507 27.9325 24.253 27.9435 23.9552 27.9435C23.3453 27.9435 22.7861 27.7461 22.2125 27.5559C21.6679 27.3768 21.1523 27.1501 20.6912 26.8137C19.9324 26.2616 19.2825 25.6035 18.7415 24.8284C18.2223 24.0862 17.8229 23.2855 17.4816 22.4555C17.2674 21.929 17.1076 21.3806 16.9225 20.8431C16.7192 20.2545 16.5122 19.6695 16.3161 19.0808C16.131 18.5214 15.9603 17.9547 15.7715 17.3953C15.5573 16.7628 15.383 16.1193 15.1398 15.4977C14.9401 14.9822 14.7985 14.4411 14.6206 13.9146C14.41 13.2821 14.1558 12.6642 13.9852 12.0207C13.8327 11.4503 13.6076 10.9055 13.4442 10.3388C13.2736 9.74287 13.0448 9.16153 12.8488 8.57288C12.6636 8.02445 12.5002 7.4687 12.3005 6.92393C11.8576 5.73566 11.3456 4.5876 10.4815 3.63333C10.231 3.35546 9.96596 3.10684 9.63919 2.9094C9.26159 2.67541 8.89852 2.68637 8.51366 2.84725C8.43378 2.88015 8.3648 2.96425 8.27766 2.89478C8.19052 2.82531 8.20141 2.71928 8.20868 2.61691C8.21594 2.49991 8.28129 2.41216 8.35754 2.33172C9.17446 1.45789 10.1402 0.839987 11.2803 0.456084C12.3514 0.0941191 13.4261 0.00637 14.6097 0.0648694Z" fill="url(#paint1_radial_1_7017)"/>
<path d="M4.52714 27.9984C3.60493 27.9618 2.4322 28.035 1.25947 27.9582C0.812884 27.9289 0.486116 27.7498 0.268272 27.4134C0.0395345 27.0551 -0.0657572 26.6529 0.0431652 26.1886C0.304579 25.0807 0.754792 24.0351 1.06704 22.9419C1.27762 22.207 1.56445 21.494 1.80771 20.7664C2.02555 20.1119 2.22161 19.4502 2.43946 18.7957C2.621 18.2473 2.8461 17.7135 2.99859 17.1541C3.23459 16.2875 3.61945 15.4722 3.83004 14.5911C3.95711 14.0499 4.204 13.5381 4.38554 13.0116C4.57071 12.4741 4.74498 11.933 4.92289 11.3955C5.12258 10.7923 5.32953 10.189 5.52559 9.58571C5.72892 8.9605 5.91408 8.32797 6.12467 7.70641C6.35704 7.0227 6.61482 6.3463 7.14491 5.81981C7.49709 5.47247 8.12158 5.28966 8.66619 5.69184C9.20354 6.08671 9.56299 6.62052 9.90065 7.17626C10.4743 8.11591 10.8011 9.16159 11.146 10.2C11.4038 10.9678 11.7088 11.7209 11.9702 12.4887C12.1444 13.0043 12.3006 13.5271 12.4894 14.039C12.7762 14.8068 13.0195 15.5929 13.3027 16.3643C13.4624 16.7994 13.4697 17.2016 13.2881 17.6403C13.063 18.1961 12.8996 18.7774 12.7108 19.3478C12.522 19.9291 12.3332 20.5105 12.1481 21.0882C11.9556 21.6841 11.7995 22.291 11.5635 22.8687C11.3275 23.4464 11.1968 24.0607 10.9572 24.6347C10.7466 25.1392 10.6813 25.695 10.4162 26.1813C9.82803 27.2598 9.00385 27.9911 7.70404 27.9984C6.72737 28.0021 5.7507 27.9984 4.52714 27.9984Z" fill="url(#paint2_radial_1_7017)"/>
<defs>
<radialGradient id="paint0_radial_1_7017" cx="0" cy="0" r="1" gradientUnits="userSpaceOnUse" gradientTransform="translate(32.9268 11.2639) scale(9.21484 9.27947)">
<stop stop-color="#1A4583"/>
<stop offset="1" stop-color="#1F3669"/>
</radialGradient>
<radialGradient id="paint1_radial_1_7017" cx="0" cy="0" r="1" gradientUnits="userSpaceOnUse" gradientTransform="translate(19.9069 13.9987) scale(12.8347 12.9247)">
<stop stop-color="#1A4583"/>
<stop offset="1" stop-color="#1F3669"/>
</radialGradient>
<radialGradient id="paint2_radial_1_7017" cx="0" cy="0" r="1" gradientUnits="userSpaceOnUse" gradientTransform="translate(6.70922 16.7336) scale(9.22573 9.29044)">
<stop stop-color="#1A4583"/>
<stop offset="1" stop-color="#1F3669"/>
</radialGradient>
</defs>
</svg>
