<svg width="246" height="49" viewBox="0 0 246 49" fill="none" xmlns="http://www.w3.org/2000/svg">
<g clip-path="url(#clip0_1_4330)">
<path d="M69.3001 3.23722C68.9697 4.19048 68.652 5.15014 68.2963 6.097C67.877 7.22299 67.5784 8.39377 67.1527 9.51977C66.7588 10.5562 66.5237 11.6502 66.1807 12.7058C65.9011 13.5631 65.5517 14.3948 65.2658 15.2521C64.7512 16.794 64.2747 18.355 63.7601 19.8968C63.3091 21.2596 62.8262 22.6095 62.3688 23.9658C62.0321 24.9638 61.7208 25.9747 61.3904 26.9727C60.9076 28.425 60.3485 29.8581 59.9419 31.3359C59.6433 32.4235 59.1986 33.46 58.919 34.554C58.5569 35.9487 58.0868 37.3562 57.1783 38.4694C56.13 39.7489 54.8213 39.7553 53.5379 38.4694C52.3816 37.3178 51.6383 35.8399 50.9903 34.3237C50.4249 32.9993 50.0119 31.6174 49.5291 30.2675C48.9128 28.5593 48.4173 26.8 47.7756 25.1046C47.261 23.7483 46.937 22.3216 46.3335 20.9972C45.7553 19.7433 45.8379 18.5213 46.3589 17.2354C46.9307 15.8343 47.3309 14.3628 47.8201 12.9297C48.1886 11.8421 48.6587 10.7801 48.9446 9.66691C49.294 8.3234 49.834 7.04386 50.2279 5.71314C50.7807 3.83861 51.3906 1.98967 53.1059 0.786905C53.8365 0.275089 54.637 0.00638519 55.5201 0.00638519C59.3955 -1.25114e-05 63.2709 -1.25114e-05 67.1464 0.00638519C68.0231 0.00638519 68.741 0.55019 69.065 1.39469C69.1285 1.55463 69.2238 1.69538 69.3064 1.84892V3.23722H69.3001Z" fill="url(#paint0_radial_1_4330)"/>
<path d="M25.565 0.115138C27.0136 -0.0767928 28.6145 0.0895474 30.1329 0.518193C31.4989 0.902056 32.7504 1.63779 33.894 2.54626C36.0096 4.22886 37.4327 6.39128 38.4746 8.8544C39.4403 11.1448 40.1264 13.5247 40.9269 15.8727C41.3717 17.1778 41.8291 18.4829 42.2611 19.7881C42.7249 21.1828 43.2204 22.5711 43.6461 23.9786C43.9764 25.0598 44.4339 26.1026 44.7198 27.1966C44.9993 28.2522 45.4567 29.2439 45.7236 30.3059C45.9586 31.2272 46.3398 32.11 46.6448 33.0185C46.9878 34.0358 47.2991 35.0658 47.6613 36.083C48.6396 38.8084 49.7514 41.4571 51.9687 43.4468C52.801 44.1889 53.7222 44.4256 54.7577 43.869C54.9229 43.7795 55.1008 43.7539 55.2279 43.9138C55.3676 44.0865 55.2469 44.2337 55.1326 44.3744C53.9699 45.8715 52.5532 47.0167 50.7997 47.778C48.4491 48.8017 46.0031 49.0896 43.4745 48.9168C42.9599 48.8784 42.439 48.8976 41.918 48.8976C40.8507 48.8976 39.8723 48.5521 38.8685 48.2195C37.9155 47.906 37.0134 47.5093 36.2065 46.9207C34.8787 45.9547 33.7415 44.8031 32.7949 43.4468C31.8864 42.148 31.1876 40.7469 30.5904 39.2947C30.2155 38.3734 29.936 37.4137 29.612 36.4733C29.2562 35.4432 28.8941 34.4196 28.551 33.3896C28.227 32.4107 27.9284 31.4191 27.598 30.4402C27.2232 29.3334 26.9183 28.2074 26.4926 27.1198C26.1432 26.2178 25.8954 25.2709 25.5841 24.3496C25.2156 23.2428 24.7709 22.1616 24.4723 21.0356C24.2055 20.0376 23.8116 19.0843 23.5257 18.0927C23.2271 17.0499 22.8268 16.0326 22.4838 15.0026C22.1598 14.0429 21.8739 13.0705 21.5244 12.1172C20.7494 10.038 19.8536 8.0291 18.3415 6.35929C17.9031 5.87307 17.4394 5.43803 16.8676 5.09255C16.2069 4.6831 15.5715 4.70229 14.8981 4.98379C14.7583 5.04137 14.6376 5.18852 14.4852 5.06696C14.3327 4.9454 14.3517 4.75987 14.3644 4.58073C14.3772 4.37601 14.4915 4.22246 14.6249 4.08171C16.0544 2.55266 17.7443 1.47145 19.7392 0.799692C21.6134 0.16632 23.4939 0.012775 25.565 0.115138Z" fill="url(#paint1_radial_1_4330)"/>
<path d="M7.92236 48.9936C6.30867 48.9296 4.2566 49.0576 2.20454 48.9232C1.4231 48.8721 0.851316 48.5586 0.470128 47.97C0.06988 47.343 -0.114361 46.6392 0.0762331 45.8267C0.533659 43.8882 1.32145 42.0585 1.86782 40.1456C2.2363 38.8596 2.7382 37.6121 3.16386 36.3389C3.54505 35.1938 3.88812 34.0358 4.26931 32.8906C4.58696 31.9309 4.98086 30.9969 5.24769 30.018C5.66065 28.5018 6.33408 27.0751 6.70256 25.5332C6.92492 24.5864 7.35693 23.6907 7.67459 22.7694C7.9986 21.829 8.30355 20.8821 8.61486 19.9416C8.96428 18.886 9.32641 17.8304 9.66948 16.7748C10.0253 15.6808 10.3493 14.574 10.7177 13.4864C11.1243 12.29 11.5754 11.1064 12.503 10.1851C13.1192 9.57736 14.212 9.25747 15.1649 9.96122C16.1052 10.6522 16.7342 11.5862 17.325 12.5587C18.3288 14.2029 18.9006 16.0326 19.5041 17.8496C19.9552 19.1931 20.4889 20.511 20.9463 21.8546C21.2513 22.7566 21.5244 23.6715 21.8548 24.5672C22.3567 25.9107 22.7824 27.2862 23.2779 28.6361C23.5574 29.3974 23.5701 30.1012 23.2525 30.8689C22.8586 31.8414 22.5727 32.8586 22.2423 33.8566C21.912 34.8739 21.5816 35.8911 21.2576 36.9019C20.9209 37.9448 20.6477 39.0068 20.2348 40.0176C19.8218 41.0285 19.5931 42.1033 19.1738 43.1077C18.8053 43.9906 18.6909 44.9631 18.2272 45.8139C17.198 47.7013 15.7558 48.9808 13.4814 48.9936C11.7724 49 10.0634 48.9936 7.92236 48.9936Z" fill="url(#paint2_radial_1_4330)"/>
<path d="M98.3466 44.1697L80.7866 19.98V44.1697H72.9468V7.07581H81.0089L98.0735 30.3762V7.07581H105.913V44.1633H98.3466V44.1697Z" fill="#1F3669"/>
<path d="M112.317 10.1915C112.317 7.85634 114.249 6.0202 116.517 6.0202C118.785 6.0202 120.716 7.85634 120.716 10.1915C120.716 12.5267 118.836 14.4204 116.517 14.4204C114.198 14.4204 112.317 12.5267 112.317 10.1915ZM113.035 44.1697V17.3121H120.049V44.1697H113.035Z" fill="#1F3669"/>
<path d="M144.286 44.1697L137.222 33.8246L134.02 37.273V44.1697H127.006V7.07581H134.02V29.263L144.127 17.3057H152.742L142.196 29.4806L153.073 44.1633H144.293L144.286 44.1697Z" fill="#1F3669"/>
<path d="M156.548 44.1697V7.07581H163.562V44.1633H156.548V44.1697Z" fill="#1F3669"/>
<path d="M186.528 44.1697V41.3867C184.705 43.5555 181.56 44.835 178.079 44.835C173.828 44.835 168.803 41.9433 168.803 35.9358C168.803 29.9284 173.828 27.2606 178.079 27.2606C181.611 27.2606 184.762 28.4313 186.528 30.5426V26.9279C186.528 24.2025 184.209 22.4239 180.677 22.4239C177.805 22.4239 175.156 23.4795 172.894 25.5908L170.245 20.8629C173.504 17.9711 177.697 16.634 181.897 16.634C187.97 16.634 193.548 19.0779 193.548 26.8127V44.1633H186.535L186.528 44.1697ZM186.528 37.7144V34.3812C185.366 32.8266 183.161 32.046 180.893 32.046C178.129 32.046 175.868 33.4919 175.868 36.1022C175.868 38.7124 178.129 40.0496 180.893 40.0496C183.155 40.0496 185.366 39.269 186.528 37.7144Z" fill="#1F3669"/>
<path d="M216.515 44.1697V41.3867C214.692 43.5555 211.547 44.835 208.065 44.835C203.815 44.835 198.79 41.9433 198.79 35.9358C198.79 29.9284 203.815 27.2606 208.065 27.2606C211.598 27.2606 214.749 28.4313 216.515 30.5426V26.9279C216.515 24.2025 214.196 22.4239 210.664 22.4239C207.792 22.4239 205.143 23.4795 202.881 25.5908L200.232 20.8629C203.491 17.9711 207.684 16.634 211.884 16.634C217.957 16.634 223.535 19.0779 223.535 26.8127V44.1633H216.521L216.515 44.1697ZM216.515 37.7144V34.3812C215.352 32.8266 213.148 32.046 210.88 32.046C208.116 32.046 205.854 33.4919 205.854 36.1022C205.854 38.7124 208.116 40.0496 210.88 40.0496C213.142 40.0496 215.352 39.269 216.515 37.7144Z" fill="#1F3669"/>
<path d="M230.486 44.1697V17.3121H237.499V20.9844C239.38 18.5917 242.69 16.6468 246 16.6468V23.5435C245.504 23.4348 244.837 23.3772 244.069 23.3772C241.75 23.3772 238.656 24.7143 237.499 26.4353V44.1761H230.486V44.1697Z" fill="#1F3669"/>
</g>
<defs>
<radialGradient id="paint0_radial_1_4330" cx="0" cy="0" r="1" gradientUnits="userSpaceOnUse" gradientTransform="translate(57.6166 19.7113) scale(16.1243 16.2374)">
<stop stop-color="#1A4583"/>
<stop offset="1" stop-color="#1F3669"/>
</radialGradient>
<radialGradient id="paint1_radial_1_4330" cx="0" cy="0" r="1" gradientUnits="userSpaceOnUse" gradientTransform="translate(34.8343 24.4968) scale(22.4584 22.6159)">
<stop stop-color="#1A4583"/>
<stop offset="1" stop-color="#1F3669"/>
</radialGradient>
<radialGradient id="paint2_radial_1_4330" cx="0" cy="0" r="1" gradientUnits="userSpaceOnUse" gradientTransform="translate(11.7406 29.2823) scale(16.1433 16.2566)">
<stop stop-color="#1A4583"/>
<stop offset="1" stop-color="#1F3669"/>
</radialGradient>
<clipPath id="clip0_1_4330">
<rect width="246" height="49" fill="white"/>
</clipPath>
</defs>
</svg>
