<svg width="193" height="39" viewBox="0 0 193 39" fill="none" xmlns="http://www.w3.org/2000/svg">
<g clip-path="url(#clip0_1_4401)">
<path d="M54.3696 2.57659C54.1104 3.3353 53.8611 4.09911 53.582 4.85273C53.2531 5.74893 53.0188 6.68078 52.6848 7.57698C52.3758 8.40189 52.1914 9.27263 51.9222 10.1128C51.7029 10.7952 51.4288 11.4571 51.2045 12.1395C50.8007 13.3666 50.4269 14.6091 50.0232 15.8363C49.6693 16.9209 49.2905 17.9953 48.9316 19.0748C48.6674 19.8692 48.4232 20.6737 48.164 21.4681C47.7852 22.624 47.3466 23.7646 47.0276 24.9409C46.7933 25.8065 46.4444 26.6314 46.2251 27.5022C45.941 28.6122 45.5721 29.7325 44.8594 30.6185C44.0369 31.6369 43.0102 31.642 42.0033 30.6185C41.0962 29.7019 40.513 28.5257 40.0046 27.3189C39.561 26.2648 39.237 25.1649 38.8582 24.0905C38.3747 22.7309 37.9859 21.3306 37.4825 19.9812C37.0788 18.9017 36.8246 17.7662 36.351 16.7121C35.8975 15.7141 35.9623 14.7415 36.371 13.718C36.8196 12.6028 37.1336 11.4317 37.5174 10.291C37.8065 9.42539 38.1753 8.58011 38.3996 7.69409C38.6738 6.62476 39.0974 5.60635 39.4065 4.54721C39.8401 3.05524 40.3186 1.58364 41.6644 0.626331C42.2376 0.218967 42.8656 0.00510077 43.5584 0.00510077C46.5989 8.72614e-06 49.6394 8.72614e-06 52.6798 0.00510077C53.3677 0.00510077 53.9309 0.437925 54.1851 1.11008C54.235 1.23738 54.3097 1.3494 54.3745 1.47161V2.57659H54.3696Z" fill="url(#paint0_radial_1_4401)"/>
<path d="M20.0572 0.091678C21.1936 -0.0610835 22.4497 0.0713098 23.641 0.412477C24.7126 0.718 25.6945 1.30359 26.5917 2.02666C28.2515 3.36587 29.368 5.08698 30.1854 7.04742C30.9431 8.87037 31.4814 10.7646 32.1094 12.6334C32.4583 13.6722 32.8172 14.7109 33.1561 15.7497C33.52 16.8598 33.9088 17.9648 34.2427 19.085C34.5019 19.9456 34.8608 20.7756 35.0851 21.6463C35.3044 22.4865 35.6633 23.2758 35.8726 24.1211C36.057 24.8543 36.3561 25.557 36.5953 26.2801C36.8645 27.0897 37.1087 27.9095 37.3928 28.7192C38.1604 30.8884 39.0327 32.9965 40.7723 34.5801C41.4252 35.1708 42.1479 35.3592 42.9604 34.9162C43.09 34.8449 43.2296 34.8245 43.3292 34.9518C43.4389 35.0893 43.3442 35.2064 43.2545 35.3185C42.3423 36.51 41.2308 37.4215 39.8551 38.0274C38.0109 38.8422 36.0919 39.0713 34.1081 38.9338C33.7044 38.9033 33.2957 38.9185 32.887 38.9185C32.0496 38.9185 31.282 38.6436 30.4945 38.3788C29.7468 38.1293 29.039 37.8136 28.406 37.3451C27.3643 36.5762 26.4721 35.6596 25.7294 34.5801C25.0166 33.5464 24.4684 32.4313 23.9998 31.2754C23.7058 30.5421 23.4864 29.7783 23.2322 29.0298C22.9531 28.21 22.669 27.3952 22.3998 26.5754C22.1456 25.7963 21.9114 25.0071 21.6522 24.228C21.3581 23.3471 21.1189 22.4509 20.7849 21.5852C20.5108 20.8672 20.3164 20.1136 20.0721 19.3804C19.7831 18.4994 19.4341 17.6389 19.1999 16.7427C18.9905 15.9483 18.6815 15.1896 18.4572 14.4003C18.2229 13.5703 17.9089 12.7607 17.6398 11.9409C17.3856 11.1771 17.1613 10.4031 16.8871 9.64436C16.279 7.98945 15.5762 6.39054 14.39 5.06152C14.046 4.67452 13.6822 4.32826 13.2336 4.05329C12.7152 3.7274 12.2168 3.74268 11.6884 3.96673C11.5788 4.01256 11.4841 4.12967 11.3644 4.03292C11.2448 3.93617 11.2598 3.78851 11.2697 3.64593C11.2797 3.48298 11.3694 3.36077 11.4741 3.24875C12.5956 2.03175 13.9214 1.17119 15.4865 0.636527C16.9569 0.132414 18.4323 0.0102052 20.0572 0.091678Z" fill="url(#paint1_radial_1_4401)"/>
<path d="M6.21557 38.9949C4.94954 38.944 3.33959 39.0458 1.72963 38.9389C1.11656 38.8981 0.667962 38.6486 0.3689 38.1802C0.0548842 37.6812 -0.0896627 37.121 0.0598686 36.4743C0.418744 34.9314 1.03681 33.4751 1.46546 31.9526C1.75456 30.9291 2.14832 29.9361 2.48228 28.9228C2.78134 28.0113 3.05049 27.0897 3.34956 26.1782C3.59878 25.4144 3.90781 24.671 4.11715 23.8919C4.44113 22.6851 4.96948 21.5495 5.25857 20.3224C5.43303 19.5687 5.77196 18.8558 6.02118 18.1226C6.27538 17.3741 6.51464 16.6204 6.75887 15.8719C7.03301 15.0317 7.31712 14.1915 7.58628 13.3513C7.8654 12.4806 8.1196 11.5997 8.4087 10.734C8.7277 9.78181 9.08159 8.83978 9.80931 8.10653C10.2928 7.62278 11.1501 7.36818 11.8978 7.92831C12.6354 8.47825 13.1289 9.22169 13.5924 9.99568C14.38 11.3043 14.8286 12.7607 15.3021 14.2068C15.656 15.2761 16.0747 16.3251 16.4335 17.3944C16.6728 18.1124 16.8871 18.8406 17.1463 19.5535C17.5401 20.6228 17.874 21.7176 18.2628 22.792C18.4821 23.398 18.4921 23.9581 18.2429 24.5691C17.9338 25.3431 17.7095 26.1527 17.4504 26.9471C17.1912 27.7567 16.932 28.5664 16.6778 29.3709C16.4136 30.2009 16.1993 31.0462 15.8753 31.8508C15.5513 32.6553 15.3719 33.5108 15.0429 34.3102C14.7538 35.0129 14.6641 35.7869 14.3002 36.4641C13.4928 37.9663 12.3613 38.9847 10.5769 38.9949C9.2361 39 7.89531 38.9949 6.21557 38.9949Z" fill="url(#paint2_radial_1_4401)"/>
<path d="M77.1581 35.1555L63.3813 15.9025V35.1555H57.2306V5.63184H63.5558L76.9438 24.1771V5.63184H83.0945V35.1504H77.1581V35.1555Z" fill="white"/>
<path d="M88.1188 8.11164C88.1188 6.25304 89.634 4.79163 91.4134 4.79163C93.1929 4.79163 94.7081 6.25304 94.7081 8.11164C94.7081 9.97024 93.2327 11.4775 91.4134 11.4775C89.5941 11.4775 88.1188 9.97024 88.1188 8.11164ZM88.682 35.1555V13.7791H94.1848V35.1555H88.682Z" fill="white"/>
<path d="M113.2 35.1555L107.658 26.9217L105.145 29.6663V35.1555H99.6427V5.63184H105.145V23.2911L113.076 13.774H119.834L111.56 23.4642L120.094 35.1504H113.205L113.2 35.1555Z" fill="white"/>
<path d="M122.82 35.1555V5.63184H128.323V35.1504H122.82V35.1555Z" fill="white"/>
<path d="M146.341 35.1555V32.9405C144.911 34.6667 142.443 35.6851 139.712 35.6851C136.377 35.6851 132.435 33.3835 132.435 28.602C132.435 23.8206 136.377 21.6972 139.712 21.6972C142.483 21.6972 144.956 22.6291 146.341 24.3094V21.4324C146.341 19.2632 144.522 17.8476 141.751 17.8476C139.498 17.8476 137.419 18.6878 135.645 20.3682L133.566 16.6052C136.123 14.3036 139.413 13.2393 142.708 13.2393C147.473 13.2393 151.849 15.1845 151.849 21.3408V35.1504H146.346L146.341 35.1555ZM146.341 30.0176V27.3647C145.429 26.1273 143.7 25.5061 141.92 25.5061C139.752 25.5061 137.977 26.6569 137.977 28.7344C137.977 30.812 139.752 31.8762 141.92 31.8762C143.695 31.8762 145.429 31.255 146.341 30.0176Z" fill="white"/>
<path d="M169.868 35.1555V32.9405C168.437 34.6667 165.97 35.6851 163.238 35.6851C159.904 35.6851 155.961 33.3835 155.961 28.602C155.961 23.8206 159.904 21.6972 163.238 21.6972C166.01 21.6972 168.482 22.6291 169.868 24.3094V21.4324C169.868 19.2632 168.048 17.8476 165.277 17.8476C163.024 17.8476 160.946 18.6878 159.171 20.3682L157.093 16.6052C159.65 14.3036 162.939 13.2393 166.234 13.2393C170.999 13.2393 175.375 15.1845 175.375 21.3408V35.1504H169.873L169.868 35.1555ZM169.868 30.0176V27.3647C168.955 26.1273 167.226 25.5061 165.446 25.5061C163.278 25.5061 161.504 26.6569 161.504 28.7344C161.504 30.812 163.278 31.8762 165.446 31.8762C167.221 31.8762 168.955 31.255 169.868 30.0176Z" fill="white"/>
<path d="M180.828 35.1555V13.7791H186.331V16.7019C187.806 14.7975 190.403 13.2495 193 13.2495V18.7387C192.611 18.6522 192.088 18.6063 191.485 18.6063C189.665 18.6063 187.238 19.6706 186.331 21.0403V35.1606H180.828V35.1555Z" fill="white"/>
</g>
<defs>
<radialGradient id="paint0_radial_1_4401" cx="0" cy="0" r="1" gradientUnits="userSpaceOnUse" gradientTransform="translate(45.2023 15.6956) scale(12.6033 12.937)">
<stop stop-color="white"/>
<stop offset="1" stop-color="#F3F3F3"/>
</radialGradient>
<radialGradient id="paint1_radial_1_4401" cx="0" cy="0" r="1" gradientUnits="userSpaceOnUse" gradientTransform="translate(27.315 19.5035) scale(22.0725 16.0533)">
<stop stop-color="white"/>
<stop offset="1" stop-color="#F3F3F3" stop-opacity="0.5"/>
</radialGradient>
<radialGradient id="paint2_radial_1_4401" cx="0" cy="0" r="1" gradientUnits="userSpaceOnUse" gradientTransform="translate(9.21118 23.3063) scale(12.6653 12.9389)">
<stop stop-color="white"/>
<stop offset="1" stop-color="#F3F3F3"/>
</radialGradient>
<clipPath id="clip0_1_4401">
<rect width="193" height="39" fill="white"/>
</clipPath>
</defs>
</svg>
