<svg width="45" height="44" viewBox="0 0 45 44" fill="none" xmlns="http://www.w3.org/2000/svg">
<g clip-path="url(#clip0_1_7212)">
<path d="M22.5 44C28.3348 44 33.9305 41.6822 38.0564 37.5564C42.1822 33.4305 44.5 27.8348 44.5 22C44.5 16.1652 42.1822 10.5695 38.0564 6.44365C33.9305 2.31785 28.3348 0 22.5 0C16.6652 0 11.0695 2.31785 6.94365 6.44365C2.81785 10.5695 0.5 16.1652 0.5 22C0.5 27.8348 2.81785 33.4305 6.94365 37.5564C11.0695 41.6822 16.6652 44 22.5 44ZM32.2109 17.9609L21.2109 28.9609C20.4031 29.7687 19.0969 29.7687 18.2977 28.9609L12.7977 23.4609C11.9898 22.6531 11.9898 21.3469 12.7977 20.5477C13.6055 19.7484 14.9117 19.7398 15.7109 20.5477L19.75 24.5867L29.2891 15.0391C30.0969 14.2312 31.4031 14.2312 32.2023 15.0391C33.0016 15.8469 33.0102 17.1531 32.2023 17.9523L32.2109 17.9609Z" fill="#009EEA"/>
</g>
<defs>
<clipPath id="clip0_1_7212">
<rect width="44" height="44" fill="white" transform="translate(0.5)"/>
</clipPath>
</defs>
</svg>
