<svg width="13" height="13" viewBox="0 0 13 13" fill="none" xmlns="http://www.w3.org/2000/svg">
<path fill-rule="evenodd" clip-rule="evenodd" d="M10.6161 3.07251C10.6722 3.1206 10.7183 3.17929 10.7517 3.2452C10.7851 3.31112 10.8052 3.38298 10.8109 3.45667C10.8165 3.53036 10.8076 3.60444 10.7846 3.67468C10.7616 3.74492 10.725 3.80993 10.6768 3.86601L6.17681 9.11601C6.12636 9.17487 6.06428 9.22267 5.99448 9.2564C5.92468 9.29013 5.84866 9.30907 5.77119 9.31203C5.69373 9.31498 5.61648 9.3019 5.54431 9.27359C5.47214 9.24527 5.4066 9.20235 5.35181 9.14751L2.72681 6.52251C2.6244 6.41637 2.56776 6.27426 2.56912 6.12677C2.57047 5.97929 2.62969 5.83823 2.73403 5.73399C2.83837 5.62974 2.97948 5.57065 3.12697 5.56944C3.27446 5.56823 3.41652 5.62499 3.52256 5.72751L5.71856 7.92276L9.82331 3.13401C9.92042 3.0209 10.0585 2.95096 10.2071 2.93957C10.3558 2.92818 10.5028 2.97552 10.6161 3.07251Z" fill="#00ACFF"/>
</svg>
