<svg width="16" height="17" viewBox="0 0 16 17" fill="none" xmlns="http://www.w3.org/2000/svg">
<path d="M14 14.5L10 10.5M6.66667 2.5C7.2795 2.5 7.88634 2.62071 8.45252 2.85523C9.01871 3.08975 9.53316 3.43349 9.9665 3.86683C10.3998 4.30018 10.7436 4.81462 10.9781 5.38081C11.2126 5.947 11.3333 6.55383 11.3333 7.16667C11.3333 7.7795 11.2126 8.38634 10.9781 8.95252C10.7436 9.51871 10.3998 10.0332 9.9665 10.4665C9.53316 10.8998 9.01871 11.2436 8.45252 11.4781C7.88634 11.7126 7.2795 11.8333 6.66667 11.8333C6.05383 11.8333 5.447 11.7126 4.88081 11.4781C4.31462 11.2436 3.80018 10.8998 3.36683 10.4665C2.93349 10.0332 2.58975 9.51871 2.35523 8.95252C2.12071 8.38634 2 7.7795 2 7.16667C2 6.55383 2.12071 5.947 2.35523 5.38081C2.58975 4.81462 2.93349 4.30018 3.36683 3.86683C3.80018 3.43349 4.31462 3.08975 4.88081 2.85523C5.447 2.62071 6.05383 2.5 6.66667 2.5Z" stroke="#009EEA" stroke-width="1.33333" stroke-linecap="round" stroke-linejoin="round"/>
</svg>
